SplineFontDB: 3.0
FontName: UbuntuFaust-Light
FullName: Ubuntu Faust
FamilyName: Ubuntu derivative Faust
Weight: Light
Copyright: Copyright 2011 Canonical Ltd.  Licensed under the Ubuntu Font Licence 1.0\nAdditional Glyphs 2017 by Thorsten Vitt
Version: 0.83
DefaultBaseFilename: UbuntuFaust-Light
ItalicAngle: 0
UnderlinePosition: -133
UnderlineWidth: 56
Ascent: 800
Descent: 200
InvalidEm: 0
sfntRevision: 0x0000d47b
LayerCount: 2
Layer: 0 1 "Back" 1
Layer: 1 1 "Fore" 0
XUID: [1021 205 319277455 14894801]
StyleMap: 0x0040
FSType: 0
OS2Version: 3
OS2_WeightWidthSlopeOnly: 0
OS2_UseTypoMetrics: 0
CreationTime: 1298466264
ModificationTime: 1501145005
PfmFamily: 17
TTFWeight: 300
TTFWidth: 5
LineGap: 28
VLineGap: 0
Panose: 2 11 3 4 3 6 2 3 2 4
OS2TypoAscent: 776
OS2TypoAOffset: 0
OS2TypoDescent: -185
OS2TypoDOffset: 0
OS2TypoLinegap: 56
OS2WinAscent: 932
OS2WinAOffset: 0
OS2WinDescent: 189
OS2WinDOffset: 0
HheadAscent: 932
HheadAOffset: 0
HheadDescent: -189
HheadDOffset: 0
OS2SubXSize: 700
OS2SubYSize: 650
OS2SubXOff: 0
OS2SubYOff: 140
OS2SupXSize: 700
OS2SupYSize: 650
OS2SupXOff: 0
OS2SupYOff: 477
OS2StrikeYSize: 56
OS2StrikeYPos: 250
OS2CapHeight: 693
OS2XHeight: 517
OS2Vendor: 'DAMA'
OS2CodePages: 2000009f.56010000
OS2UnicodeRanges: e00002ff.5000205b.00000000.00000000
Lookup: 1 0 0 "'locl' Localized Forms in Latin lookup 0" { "'locl' Localized Forms in Latin lookup 0 subtable"  } ['locl' ('latn' <'AZE ' > ) ]
Lookup: 1 0 0 "'locl' Localized Forms in Latin lookup 1" { "'locl' Localized Forms in Latin lookup 1 subtable"  } ['locl' ('latn' <'TRK ' > ) ]
Lookup: 1 0 0 "'locl' Localized Forms in Latin lookup 2" { "'locl' Localized Forms in Latin lookup 2 subtable"  } ['locl' ('latn' <'CRT ' > ) ]
Lookup: 1 0 0 "'locl' Localized Forms in Cyrillic lookup 3" { "'locl' Localized Forms in Cyrillic lookup 3 subtable"  } ['locl' ('cyrl' <'BGR ' > ) ]

StartChar: .notdef
Encoding: 65536 -1 0
Width: 500
Flags: W
LayerCount: 2
Fore
SplineSet
50 0 m 1,0,-1
 50 750 l 1,1,-1
 450 750 l 1,2,-1
 450 0 l 1,3,-1
 50 0 l 1,0,-1
400 50 m 1,4,-1
 400 700 l 1,5,-1
 100 700 l 1,6,-1
 100 50 l 1,7,-1
 400 50 l 1,4,-1
EndSplineSet
EndChar

StartChar: exclam
Encoding: 33 33 4
Width: 274
Flags: W
LayerCount: 2
Fore
SplineSet
172 500 m 2,0,1
 172 457 172 457 170.5 419.5 c 128,-1,2
 169 382 169 382 166 347 c 128,-1,3
 163 312 163 312 159.5 279 c 128,-1,4
 156 246 156 246 152 213 c 1,5,-1
 122 213 l 1,6,7
 113 280 113 280 107.5 347 c 128,-1,8
 102 414 102 414 102 500 c 2,9,-1
 102 693 l 1,10,-1
 172 693 l 1,11,-1
 172 500 l 2,0,1
192 43 m 256,12,13
 192 20 192 20 177.5 4 c 128,-1,14
 163 -12 163 -12 137 -12 c 256,15,16
 111 -12 111 -12 96.5 4 c 128,-1,17
 82 20 82 20 82 43 c 256,18,19
 82 66 82 66 96.5 82 c 128,-1,20
 111 98 111 98 137 98 c 256,21,22
 163 98 163 98 177.5 82 c 128,-1,23
 192 66 192 66 192 43 c 256,12,13
EndSplineSet
EndChar

StartChar: numbersign
Encoding: 35 35 6
Width: 653
Flags: W
LayerCount: 2
Fore
SplineSet
264 503 m 1,0,-1
 449 503 l 1,1,-1
 485 693 l 1,2,-1
 546 693 l 1,3,-1
 510 503 l 1,4,-1
 606 503 l 1,5,-1
 606 450 l 1,6,-1
 499 450 l 1,7,-1
 460 243 l 1,8,-1
 606 243 l 1,9,-1
 606 189 l 1,10,-1
 450 189 l 1,11,-1
 413 0 l 1,12,-1
 352 0 l 1,13,-1
 389 189 l 1,14,-1
 204 189 l 1,15,-1
 167 0 l 1,16,-1
 106 0 l 1,17,-1
 143 189 l 1,18,-1
 47 189 l 1,19,-1
 47 243 l 1,20,-1
 153 243 l 1,21,-1
 192 450 l 1,22,-1
 47 450 l 1,23,-1
 47 503 l 1,24,-1
 203 503 l 1,25,-1
 239 693 l 1,26,-1
 300 693 l 1,27,-1
 264 503 l 1,0,-1
214 243 m 1,28,-1
 399 243 l 1,29,-1
 439 450 l 1,30,-1
 254 450 l 1,31,-1
 214 243 l 1,28,-1
EndSplineSet
EndChar

StartChar: dollar
Encoding: 36 36 7
Width: 564
Flags: W
LayerCount: 2
Fore
SplineSet
314 -109 m 1,0,-1
 255 -109 l 1,1,-1
 255 20 l 1,2,3
 187 21 187 21 142 34.5 c 128,-1,4
 97 48 97 48 75 61 c 1,5,-1
 94 117 l 1,6,7
 107 110 107 110 123 103 c 128,-1,8
 139 96 139 96 160 90 c 128,-1,9
 181 84 181 84 208.5 80.5 c 128,-1,10
 236 77 236 77 273 77 c 0,11,12
 312 77 312 77 339.5 85 c 128,-1,13
 367 93 367 93 384.5 106.5 c 128,-1,14
 402 120 402 120 409.5 139 c 128,-1,15
 417 158 417 158 417 179 c 0,16,17
 417 212 417 212 404.5 234 c 128,-1,18
 392 256 392 256 369.5 272.5 c 128,-1,19
 347 289 347 289 315 301.5 c 128,-1,20
 283 314 283 314 245 328 c 0,21,22
 218 338 218 338 190 350.5 c 128,-1,23
 162 363 162 363 139.5 381.5 c 128,-1,24
 117 400 117 400 103 426.5 c 128,-1,25
 89 453 89 453 89 490 c 0,26,27
 89 564 89 564 129.5 604.5 c 128,-1,28
 170 645 170 645 255 657 c 1,29,-1
 255 776 l 1,30,-1
 314 776 l 1,31,-1
 314 660 l 1,32,33
 361 659 361 659 396.5 650.5 c 128,-1,34
 432 642 432 642 456 632 c 1,35,-1
 439 577 l 1,36,37
 422 584 422 584 389 593.5 c 128,-1,38
 356 603 356 603 300 603 c 0,39,40
 158 603 158 603 158 500 c 0,41,42
 158 472 158 472 168 453.5 c 128,-1,43
 178 435 178 435 197 421 c 128,-1,44
 216 407 216 407 243 396 c 128,-1,45
 270 385 270 385 303 373 c 0,46,47
 339 359 339 359 372.5 344.5 c 128,-1,48
 406 330 406 330 431.5 309 c 128,-1,49
 457 288 457 288 472 258 c 128,-1,50
 487 228 487 228 487 185 c 0,51,52
 487 115 487 115 441 72 c 128,-1,53
 395 29 395 29 314 23 c 1,54,-1
 314 -109 l 1,0,-1
EndSplineSet
EndChar

StartChar: percent
Encoding: 37 37 8
Width: 831
Flags: W
LayerCount: 2
Fore
SplineSet
359 529 m 256,0,1
 359 485 359 485 347 451.5 c 128,-1,2
 335 418 335 418 314 395.5 c 128,-1,3
 293 373 293 373 266 361.5 c 128,-1,4
 239 350 239 350 209 350 c 256,5,6
 179 350 179 350 152 361.5 c 128,-1,7
 125 373 125 373 104 395.5 c 128,-1,8
 83 418 83 418 71 451.5 c 128,-1,9
 59 485 59 485 59 529 c 256,10,11
 59 573 59 573 71 606.5 c 128,-1,12
 83 640 83 640 104 662.5 c 128,-1,13
 125 685 125 685 152 696.5 c 128,-1,14
 179 708 179 708 209 708 c 256,15,16
 239 708 239 708 266 696.5 c 128,-1,17
 293 685 293 685 314 662.5 c 128,-1,18
 335 640 335 640 347 606.5 c 128,-1,19
 359 573 359 573 359 529 c 256,0,1
300 529 m 256,20,21
 300 586 300 586 277 620.5 c 128,-1,22
 254 655 254 655 209 655 c 256,23,24
 164 655 164 655 141 620.5 c 128,-1,25
 118 586 118 586 118 529 c 256,26,27
 118 472 118 472 141 437.5 c 128,-1,28
 164 403 164 403 209 403 c 256,29,30
 254 403 254 403 277 437.5 c 128,-1,31
 300 472 300 472 300 529 c 256,20,21
472 164 m 256,32,33
 472 208 472 208 484 241.5 c 128,-1,34
 496 275 496 275 517 297.5 c 128,-1,35
 538 320 538 320 565 331.5 c 128,-1,36
 592 343 592 343 622 343 c 256,37,38
 652 343 652 343 679 331.5 c 128,-1,39
 706 320 706 320 727 297.5 c 128,-1,40
 748 275 748 275 760 241.5 c 128,-1,41
 772 208 772 208 772 164 c 256,42,43
 772 120 772 120 760 86.5 c 128,-1,44
 748 53 748 53 727 30.5 c 128,-1,45
 706 8 706 8 679 -3.5 c 128,-1,46
 652 -15 652 -15 622 -15 c 256,47,48
 592 -15 592 -15 565 -3.5 c 128,-1,49
 538 8 538 8 517 30.5 c 128,-1,50
 496 53 496 53 484 86.5 c 128,-1,51
 472 120 472 120 472 164 c 256,32,33
531 164 m 256,52,53
 531 107 531 107 554 72.5 c 128,-1,54
 577 38 577 38 622 38 c 256,55,56
 667 38 667 38 690 72.5 c 128,-1,57
 713 107 713 107 713 164 c 256,58,59
 713 221 713 221 690 255.5 c 128,-1,60
 667 290 667 290 622 290 c 256,61,62
 577 290 577 290 554 255.5 c 128,-1,63
 531 221 531 221 531 164 c 256,52,53
580 693 m 1,64,-1
 646 693 l 1,65,-1
 251 0 l 1,66,-1
 185 0 l 1,67,-1
 580 693 l 1,64,-1
EndSplineSet
EndChar

StartChar: ampersand
Encoding: 38 38 9
Width: 648
Flags: W
LayerCount: 2
Fore
SplineSet
486 178 m 1,0,1
 507 213 507 213 520 254.5 c 128,-1,2
 533 296 533 296 538 338 c 1,3,-1
 594 331 l 1,4,5
 589 282 589 282 572 232 c 128,-1,6
 555 182 555 182 525 137 c 1,7,8
 562 99 562 99 591.5 65 c 128,-1,9
 621 31 621 31 638 0 c 1,10,-1
 565 0 l 1,11,12
 551 23 551 23 531.5 45.5 c 128,-1,13
 512 68 512 68 489 91 c 1,14,15
 447 46 447 46 391.5 18.5 c 128,-1,16
 336 -9 336 -9 267 -9 c 0,17,18
 206 -9 206 -9 164.5 8.5 c 128,-1,19
 123 26 123 26 97.5 53.5 c 128,-1,20
 72 81 72 81 61 114 c 128,-1,21
 50 147 50 147 50 179 c 0,22,23
 50 219 50 219 62.5 250.5 c 128,-1,24
 75 282 75 282 96 306.5 c 128,-1,25
 117 331 117 331 145 350 c 128,-1,26
 173 369 173 369 203 383 c 1,27,28
 159 424 159 424 141.5 463 c 128,-1,29
 124 502 124 502 124 542 c 0,30,31
 124 581 124 581 136.5 612 c 128,-1,32
 149 643 149 643 171.5 664.5 c 128,-1,33
 194 686 194 686 225 697 c 128,-1,34
 256 708 256 708 292 708 c 0,35,36
 329 708 329 708 359 696.5 c 128,-1,37
 389 685 389 685 409 665.5 c 128,-1,38
 429 646 429 646 440 619 c 128,-1,39
 451 592 451 592 451 561 c 0,40,41
 451 524 451 524 438 494.5 c 128,-1,42
 425 465 425 465 404 442 c 128,-1,43
 383 419 383 419 355.5 401 c 128,-1,44
 328 383 328 383 300 368 c 1,45,-1
 486 178 l 1,0,1
267 48 m 0,46,47
 325 48 325 48 370.5 70 c 128,-1,48
 416 92 416 92 450 130 c 1,49,-1
 240 345 l 1,50,51
 220 335 220 335 198.5 322 c 128,-1,52
 177 309 177 309 159.5 289.5 c 128,-1,53
 142 270 142 270 131 243 c 128,-1,54
 120 216 120 216 120 179 c 0,55,56
 120 156 120 156 128 132.5 c 128,-1,57
 136 109 136 109 153 90.5 c 128,-1,58
 170 72 170 72 198 60 c 128,-1,59
 226 48 226 48 267 48 c 0,46,47
389 560 m 0,60,61
 389 599 389 599 362.5 625.5 c 128,-1,62
 336 652 336 652 294 652 c 0,63,64
 243 652 243 652 216.5 624.5 c 128,-1,65
 190 597 190 597 190 549 c 0,66,67
 190 514 190 514 205.5 479.5 c 128,-1,68
 221 445 221 445 265 405 c 1,69,70
 319 431 319 431 354 466 c 128,-1,71
 389 501 389 501 389 560 c 0,60,61
EndSplineSet
EndChar

StartChar: quotesingle
Encoding: 39 39 10
Width: 240
Flags: W
LayerCount: 2
Fore
SplineSet
156 760 m 1,0,-1
 156 722 l 2,1,2
 156 672 156 672 150.5 620.5 c 128,-1,3
 145 569 145 569 136 518 c 1,4,-1
 103 518 l 1,5,6
 95 569 95 569 89.5 620.5 c 128,-1,7
 84 672 84 672 84 723 c 2,8,-1
 84 760 l 1,9,-1
 156 760 l 1,0,-1
EndSplineSet
EndChar

StartChar: parenleft
Encoding: 40 40 11
Width: 310
Flags: W
LayerCount: 2
Fore
SplineSet
83 299 m 256,0,1
 83 444 83 444 130.5 566 c 128,-1,2
 178 688 178 688 254 783 c 1,3,-1
 301 751 l 1,4,5
 222 653 222 653 185.5 543.5 c 128,-1,6
 149 434 149 434 149 299 c 256,7,8
 149 164 149 164 185.5 54.5 c 128,-1,9
 222 -55 222 -55 301 -153 c 1,10,-1
 254 -185 l 1,11,12
 178 -90 178 -90 130.5 32 c 128,-1,13
 83 154 83 154 83 299 c 256,0,1
EndSplineSet
Substitution2: "'case' Case-Sensitive Forms lookup 18 subtable" Parenleft
EndChar

StartChar: parenright
Encoding: 41 41 12
Width: 310
Flags: W
LayerCount: 2
Fore
SplineSet
227 299 m 256,0,1
 227 154 227 154 179.5 32 c 128,-1,2
 132 -90 132 -90 56 -185 c 1,3,-1
 9 -153 l 1,4,5
 88 -55 88 -55 124.5 54.5 c 128,-1,6
 161 164 161 164 161 299 c 256,7,8
 161 434 161 434 124.5 543.5 c 128,-1,9
 88 653 88 653 9 751 c 1,10,-1
 56 783 l 1,11,12
 132 688 132 688 179.5 566 c 128,-1,13
 227 444 227 444 227 299 c 256,0,1
EndSplineSet
Substitution2: "'case' Case-Sensitive Forms lookup 18 subtable" Parenright
EndChar

StartChar: asterisk
Encoding: 42 42 13
Width: 472
Flags: W
LayerCount: 2
Fore
SplineSet
260 488 m 1,0,1
 294 454 294 454 321.5 426 c 128,-1,2
 349 398 349 398 379 358 c 1,3,-1
 323 317 l 1,4,5
 309 337 309 337 297.5 355.5 c 128,-1,6
 286 374 286 374 276 392.5 c 128,-1,7
 266 411 266 411 256.5 430.5 c 128,-1,8
 247 450 247 450 236 471 c 1,9,10
 225 450 225 450 215.5 430.5 c 128,-1,11
 206 411 206 411 196 392.5 c 128,-1,12
 186 374 186 374 174.5 355.5 c 128,-1,13
 163 337 163 337 149 317 c 1,14,-1
 93 358 l 1,15,16
 108 378 108 378 122 394.5 c 128,-1,17
 136 411 136 411 150 426 c 128,-1,18
 164 441 164 441 179.5 456 c 128,-1,19
 195 471 195 471 212 488 c 1,20,21
 165 495 165 495 125.5 502 c 128,-1,22
 86 509 86 509 39 524 c 1,23,-1
 60 589 l 1,24,25
 84 581 84 581 104 573 c 128,-1,26
 124 565 124 565 143 556 c 128,-1,27
 162 547 162 547 181 537.5 c 128,-1,28
 200 528 200 528 221 518 c 1,29,30
 217 542 217 542 213.5 563 c 128,-1,31
 210 584 210 584 207.5 604.5 c 128,-1,32
 205 625 205 625 203.5 646.5 c 128,-1,33
 202 668 202 668 202 693 c 1,34,-1
 270 693 l 1,35,36
 270 668 270 668 268.5 646.5 c 128,-1,37
 267 625 267 625 264.5 604.5 c 128,-1,38
 262 584 262 584 258.5 563 c 128,-1,39
 255 542 255 542 251 518 c 1,40,41
 272 528 272 528 291 537.5 c 128,-1,42
 310 547 310 547 329 556 c 128,-1,43
 348 565 348 565 368 573 c 128,-1,44
 388 581 388 581 412 589 c 1,45,-1
 433 524 l 1,46,47
 386 509 386 509 346.5 502 c 128,-1,48
 307 495 307 495 260 488 c 1,0,1
EndSplineSet
EndChar

StartChar: plus
Encoding: 43 43 14
Width: 564
Flags: W
LayerCount: 2
Fore
SplineSet
56 317 m 1,0,-1
 253 317 l 1,1,-1
 253 534 l 1,2,-1
 311 534 l 1,3,-1
 311 317 l 1,4,-1
 508 317 l 1,5,-1
 508 261 l 1,6,-1
 311 261 l 1,7,-1
 311 43 l 1,8,-1
 253 43 l 1,9,-1
 253 261 l 1,10,-1
 56 261 l 1,11,-1
 56 317 l 1,0,-1
EndSplineSet
EndChar

StartChar: comma
Encoding: 44 44 15
Width: 246
Flags: W
LayerCount: 2
Fore
SplineSet
162 95 m 1,0,1
 163 86 163 86 163 79 c 128,-1,2
 163 72 163 72 163 67 c 0,3,4
 163 5 163 5 145.5 -52 c 128,-1,5
 128 -109 128 -109 97 -159 c 1,6,-1
 49 -137 l 1,7,8
 72 -93 72 -93 81.5 -44.5 c 128,-1,9
 91 4 91 4 91 56 c 0,10,11
 91 68 91 68 90.5 76 c 128,-1,12
 90 84 90 84 89 95 c 1,13,-1
 162 95 l 1,0,1
EndSplineSet
EndChar

StartChar: hyphen
Encoding: 45 45 16
Width: 282
Flags: W
LayerCount: 2
Fore
SplineSet
28 321 m 1,0,-1
 254 321 l 1,1,-1
 254 258 l 1,2,-1
 28 258 l 1,3,-1
 28 321 l 1,0,-1
EndSplineSet
Substitution2: "'case' Case-Sensitive Forms lookup 18 subtable" Hyphen
EndChar

StartChar: period
Encoding: 46 46 17
Width: 246
Flags: W
LayerCount: 2
Fore
SplineSet
178 43 m 256,0,1
 178 20 178 20 163.5 4 c 128,-1,2
 149 -12 149 -12 123 -12 c 256,3,4
 97 -12 97 -12 82.5 4 c 128,-1,5
 68 20 68 20 68 43 c 256,6,7
 68 66 68 66 82.5 82 c 128,-1,8
 97 98 97 98 123 98 c 256,9,10
 149 98 149 98 163.5 82 c 128,-1,11
 178 66 178 66 178 43 c 256,0,1
EndSplineSet
EndChar

StartChar: slash
Encoding: 47 47 18
Width: 359
Flags: W
LayerCount: 2
Fore
SplineSet
43 -185 m 1,0,-1
 -23 -185 l 1,1,-1
 318 783 l 1,2,-1
 382 783 l 1,3,-1
 43 -185 l 1,0,-1
EndSplineSet
Substitution2: "'case' Case-Sensitive Forms lookup 18 subtable" Slash
Substitution2: "'frac' Diagonal Fractions lookup 14 subtable" fraction
EndChar

StartChar: zero
Encoding: 48 48 19
Width: 564
Flags: W
LayerCount: 2
Fore
SplineSet
59 346 m 0,0,1
 59 522 59 522 117 615 c 128,-1,2
 175 708 175 708 282 708 c 0,3,4
 388 708 388 708 446.5 615 c 128,-1,5
 505 522 505 522 505 346 c 0,6,7
 505 171 505 171 446.5 78 c 128,-1,8
 388 -15 388 -15 282 -15 c 256,9,10
 176 -15 176 -15 117.5 78 c 128,-1,11
 59 171 59 171 59 346 c 0,0,1
434 346 m 256,12,13
 434 406 434 406 426.5 460.5 c 128,-1,14
 419 515 419 515 401 557 c 128,-1,15
 383 599 383 599 354 624 c 128,-1,16
 325 649 325 649 282 649 c 0,17,18
 238 649 238 649 209 624 c 128,-1,19
 180 599 180 599 162.5 557 c 128,-1,20
 145 515 145 515 137.5 460.5 c 128,-1,21
 130 406 130 406 130 346 c 256,22,23
 130 286 130 286 137.5 231.5 c 128,-1,24
 145 177 145 177 162.5 135.5 c 128,-1,25
 180 94 180 94 209 69 c 128,-1,26
 238 44 238 44 282 44 c 0,27,28
 325 44 325 44 354 69 c 128,-1,29
 383 94 383 94 401 135.5 c 128,-1,30
 419 177 419 177 426.5 231.5 c 128,-1,31
 434 286 434 286 434 346 c 256,12,13
EndSplineSet
Substitution2: "'frac' Diagonal Fractions lookup 16 subtable" zerosuperior
Substitution2: "'sinf' Scientific Inferiors lookup 13 subtable" zero.sinf
Substitution2: "'subs' Subscript lookup 12 subtable" zero.sinf
Substitution2: "'sups' Superscript lookup 11 subtable" zero.sups
Substitution2: "'dnom' Denominators lookup 10 subtable" zeroinferior
Substitution2: "'numr' Numerators lookup 8 subtable" zerosuperior
Substitution2: "'pnum' Proportional Numbers lookup 6 subtable" zero.alt
EndChar

StartChar: one
Encoding: 49 49 20
Width: 564
Flags: W
LayerCount: 2
Fore
SplineSet
107 551 m 1,0,1
 167 572 167 572 214 604.5 c 128,-1,2
 261 637 261 637 307 693 c 1,3,-1
 353 693 l 1,4,-1
 353 0 l 1,5,-1
 288 0 l 1,6,-1
 288 594 l 1,7,8
 277 582 277 582 259.5 569 c 128,-1,9
 242 556 242 556 220 543.5 c 128,-1,10
 198 531 198 531 174 519.5 c 128,-1,11
 150 508 150 508 126 501 c 1,12,-1
 107 551 l 1,0,1
EndSplineSet
Substitution2: "'frac' Diagonal Fractions lookup 16 subtable" onesuperior
Substitution2: "'sinf' Scientific Inferiors lookup 13 subtable" one.sinf
Substitution2: "'subs' Subscript lookup 12 subtable" one.sinf
Substitution2: "'sups' Superscript lookup 11 subtable" one.sups
Substitution2: "'dnom' Denominators lookup 10 subtable" oneinferior
Substitution2: "'numr' Numerators lookup 8 subtable" onesuperior
Substitution2: "'pnum' Proportional Numbers lookup 6 subtable" one.alt
EndChar

StartChar: two
Encoding: 50 50 21
Width: 564
Flags: W
LayerCount: 2
Fore
SplineSet
456 521 m 0,0,1
 456 482 456 482 442 447.5 c 128,-1,2
 428 413 428 413 404.5 381 c 128,-1,3
 381 349 381 349 351 319 c 128,-1,4
 321 289 321 289 290 259 c 0,5,6
 264 234 264 234 239.5 208.5 c 128,-1,7
 215 183 215 183 195.5 157.5 c 128,-1,8
 176 132 176 132 164.5 107.5 c 128,-1,9
 153 83 153 83 153 59 c 2,10,-1
 153 57 l 1,11,-1
 480 57 l 1,12,-1
 480 0 l 1,13,-1
 81 0 l 2,14,15
 81 2 81 2 80.5 7.5 c 128,-1,16
 80 13 80 13 80 24 c 0,17,18
 80 71 80 71 97 111.5 c 128,-1,19
 114 152 114 152 140.5 188 c 128,-1,20
 167 224 167 224 199.5 255 c 128,-1,21
 232 286 232 286 262 315 c 0,22,23
 287 339 287 339 309.5 361.5 c 128,-1,24
 332 384 332 384 349 408 c 128,-1,25
 366 432 366 432 376 459 c 128,-1,26
 386 486 386 486 386 518 c 0,27,28
 386 588 386 588 348.5 618.5 c 128,-1,29
 311 649 311 649 254 649 c 0,30,31
 222 649 222 649 197 641 c 128,-1,32
 172 633 172 633 153.5 622.5 c 128,-1,33
 135 612 135 612 122 601 c 128,-1,34
 109 590 109 590 103 584 c 1,35,-1
 69 629 l 1,36,37
 75 636 75 636 90.5 649.5 c 128,-1,38
 106 663 106 663 129.5 676 c 128,-1,39
 153 689 153 689 184 698.5 c 128,-1,40
 215 708 215 708 253 708 c 0,41,42
 354 708 354 708 405 658.5 c 128,-1,43
 456 609 456 609 456 521 c 0,0,1
EndSplineSet
Substitution2: "'frac' Diagonal Fractions lookup 16 subtable" twosuperior
Substitution2: "'sinf' Scientific Inferiors lookup 13 subtable" two.sinf
Substitution2: "'subs' Subscript lookup 12 subtable" two.sinf
Substitution2: "'sups' Superscript lookup 11 subtable" two.sups
Substitution2: "'dnom' Denominators lookup 10 subtable" twoinferior
Substitution2: "'numr' Numerators lookup 8 subtable" twosuperior
Substitution2: "'pnum' Proportional Numbers lookup 6 subtable" two.alt
EndChar

StartChar: three
Encoding: 51 51 22
Width: 564
Flags: W
LayerCount: 2
Fore
SplineSet
235 45 m 0,0,1
 330 45 330 45 371 84.5 c 128,-1,2
 412 124 412 124 412 191 c 0,3,4
 412 235 412 235 395.5 264 c 128,-1,5
 379 293 379 293 350.5 310.5 c 128,-1,6
 322 328 322 328 284.5 335.5 c 128,-1,7
 247 343 247 343 205 343 c 2,8,-1
 195 343 l 1,9,-1
 195 397 l 1,10,-1
 218 397 l 2,11,12
 245 397 245 397 273.5 402.5 c 128,-1,13
 302 408 302 408 325.5 423 c 128,-1,14
 349 438 349 438 364.5 463 c 128,-1,15
 380 488 380 488 380 527 c 0,16,17
 380 560 380 560 369 583.5 c 128,-1,18
 358 607 358 607 339.5 621 c 128,-1,19
 321 635 321 635 296.5 641.5 c 128,-1,20
 272 648 272 648 245 648 c 0,21,22
 191 648 191 648 161 633 c 128,-1,23
 131 618 131 618 112 605 c 1,24,-1
 84 656 l 1,25,26
 94 663 94 663 109.5 672 c 128,-1,27
 125 681 125 681 146 689 c 128,-1,28
 167 697 167 697 192.5 702.5 c 128,-1,29
 218 708 218 708 248 708 c 0,30,31
 300 708 300 708 337.5 695 c 128,-1,32
 375 682 375 682 400 658.5 c 128,-1,33
 425 635 425 635 437 602.5 c 128,-1,34
 449 570 449 570 449 532 c 0,35,36
 449 471 449 471 416.5 432.5 c 128,-1,37
 384 394 384 394 333 377 c 1,38,39
 361 370 361 370 387.5 355.5 c 128,-1,40
 414 341 414 341 435 318.5 c 128,-1,41
 456 296 456 296 469 264 c 128,-1,42
 482 232 482 232 482 189 c 0,43,44
 482 145 482 145 466.5 108 c 128,-1,45
 451 71 451 71 420.5 43.5 c 128,-1,46
 390 16 390 16 343 0.5 c 128,-1,47
 296 -15 296 -15 233 -15 c 0,48,49
 200 -15 200 -15 172.5 -10.5 c 128,-1,50
 145 -6 145 -6 124 0 c 128,-1,51
 103 6 103 6 88.5 12 c 128,-1,52
 74 18 74 18 67 22 c 1,53,-1
 84 80 l 1,54,55
 90 76 90 76 104 70 c 128,-1,56
 118 64 118 64 137.5 58.5 c 128,-1,57
 157 53 157 53 181.5 49 c 128,-1,58
 206 45 206 45 235 45 c 0,0,1
EndSplineSet
Substitution2: "'frac' Diagonal Fractions lookup 16 subtable" threesuperior
Substitution2: "'sinf' Scientific Inferiors lookup 13 subtable" three.sinf
Substitution2: "'subs' Subscript lookup 12 subtable" three.sinf
Substitution2: "'sups' Superscript lookup 11 subtable" three.sups
Substitution2: "'dnom' Denominators lookup 10 subtable" threeinferior
Substitution2: "'numr' Numerators lookup 8 subtable" threesuperior
Substitution2: "'pnum' Proportional Numbers lookup 6 subtable" three.alt
EndChar

StartChar: four
Encoding: 52 52 23
Width: 564
Flags: W
LayerCount: 2
Fore
SplineSet
50 228 m 1,0,1
 68 276 68 276 100.5 336 c 128,-1,2
 133 396 133 396 174 459 c 128,-1,3
 215 522 215 522 263 582.5 c 128,-1,4
 311 643 311 643 360 693 c 1,5,-1
 428 693 l 1,6,-1
 428 241 l 1,7,-1
 514 241 l 1,8,-1
 514 188 l 1,9,-1
 428 188 l 1,10,-1
 428 0 l 1,11,-1
 364 0 l 1,12,-1
 364 188 l 1,13,-1
 50 188 l 1,14,-1
 50 228 l 1,0,1
364 241 m 1,15,-1
 364 620 l 1,16,17
 329 584 329 584 293 537 c 128,-1,18
 257 490 257 490 224.5 439.5 c 128,-1,19
 192 389 192 389 164 338 c 128,-1,20
 136 287 136 287 117 241 c 1,21,-1
 364 241 l 1,15,-1
EndSplineSet
Substitution2: "'frac' Diagonal Fractions lookup 16 subtable" foursuperior
Substitution2: "'sinf' Scientific Inferiors lookup 13 subtable" four.sinf
Substitution2: "'subs' Subscript lookup 12 subtable" four.sinf
Substitution2: "'sups' Superscript lookup 11 subtable" four.sups
Substitution2: "'dnom' Denominators lookup 10 subtable" fourinferior
Substitution2: "'numr' Numerators lookup 8 subtable" foursuperior
Substitution2: "'pnum' Proportional Numbers lookup 6 subtable" four.alt
EndChar

StartChar: five
Encoding: 53 53 24
Width: 564
Flags: W
LayerCount: 2
Fore
SplineSet
239 45 m 0,0,1
 289 45 289 45 322.5 56.5 c 128,-1,2
 356 68 356 68 376 88 c 128,-1,3
 396 108 396 108 404.5 134.5 c 128,-1,4
 413 161 413 161 413 192 c 0,5,6
 413 232 413 232 400 264 c 128,-1,7
 387 296 387 296 354 318 c 128,-1,8
 321 340 321 340 265 351.5 c 128,-1,9
 209 363 209 363 123 363 c 1,10,11
 129 414 129 414 133 456.5 c 128,-1,12
 137 499 137 499 140 538.5 c 128,-1,13
 143 578 143 578 144.5 615.5 c 128,-1,14
 146 653 146 653 147 693 c 1,15,-1
 459 693 l 1,16,-1
 459 636 l 1,17,-1
 204 636 l 1,18,19
 203 617 203 617 201 587 c 128,-1,20
 199 557 199 557 197 525.5 c 128,-1,21
 195 494 195 494 192 465 c 128,-1,22
 189 436 189 436 187 419 c 1,23,24
 264 417 264 417 320 400 c 128,-1,25
 376 383 376 383 412 354 c 128,-1,26
 448 325 448 325 465.5 284 c 128,-1,27
 483 243 483 243 483 193 c 0,28,29
 483 149 483 149 468.5 111 c 128,-1,30
 454 73 454 73 424 45 c 128,-1,31
 394 17 394 17 348 1 c 128,-1,32
 302 -15 302 -15 239 -15 c 0,33,34
 207 -15 207 -15 179.5 -10.5 c 128,-1,35
 152 -6 152 -6 130.5 0 c 128,-1,36
 109 6 109 6 94 12 c 128,-1,37
 79 18 79 18 72 22 c 1,38,-1
 89 80 l 1,39,40
 95 76 95 76 109.5 70 c 128,-1,41
 124 64 124 64 143.5 58.5 c 128,-1,42
 163 53 163 53 187.5 49 c 128,-1,43
 212 45 212 45 239 45 c 0,0,1
EndSplineSet
Substitution2: "'frac' Diagonal Fractions lookup 16 subtable" fivesuperior
Substitution2: "'sinf' Scientific Inferiors lookup 13 subtable" five.sinf
Substitution2: "'subs' Subscript lookup 12 subtable" five.sinf
Substitution2: "'sups' Superscript lookup 11 subtable" five.sups
Substitution2: "'dnom' Denominators lookup 10 subtable" fiveinferior
Substitution2: "'numr' Numerators lookup 8 subtable" fivesuperior
Substitution2: "'pnum' Proportional Numbers lookup 6 subtable" five.alt
EndChar

StartChar: six
Encoding: 54 54 25
Width: 564
Flags: W
LayerCount: 2
Fore
SplineSet
77 275 m 0,0,1
 77 478 77 478 174.5 583 c 128,-1,2
 272 688 272 688 458 696 c 1,3,-1
 462 641 l 1,4,5
 401 637 401 637 349.5 622.5 c 128,-1,6
 298 608 298 608 258 577.5 c 128,-1,7
 218 547 218 547 191 499 c 128,-1,8
 164 451 164 451 154 381 c 1,9,10
 181 395 181 395 219 405.5 c 128,-1,11
 257 416 257 416 300 416 c 0,12,13
 356 416 356 416 395 398.5 c 128,-1,14
 434 381 434 381 458 352 c 128,-1,15
 482 323 482 323 493 285 c 128,-1,16
 504 247 504 247 504 205 c 0,17,18
 504 166 504 166 492 127 c 128,-1,19
 480 88 480 88 454.5 56.5 c 128,-1,20
 429 25 429 25 390.5 5 c 128,-1,21
 352 -15 352 -15 299 -15 c 0,22,23
 190 -15 190 -15 133.5 61.5 c 128,-1,24
 77 138 77 138 77 275 c 0,0,1
294 359 m 0,25,26
 248 359 248 359 213.5 348.5 c 128,-1,27
 179 338 179 338 149 324 c 1,28,29
 147 307 147 307 147 297.5 c 128,-1,30
 147 288 147 288 147 274 c 0,31,32
 147 227 147 227 153.5 185 c 128,-1,33
 160 143 160 143 177.5 111 c 128,-1,34
 195 79 195 79 224 60.5 c 128,-1,35
 253 42 253 42 298 42 c 0,36,37
 335 42 335 42 361 55.5 c 128,-1,38
 387 69 387 69 403 91 c 128,-1,39
 419 113 419 113 426.5 142 c 128,-1,40
 434 171 434 171 434 203 c 0,41,42
 434 283 434 283 398.5 321 c 128,-1,43
 363 359 363 359 294 359 c 0,25,26
EndSplineSet
Substitution2: "'frac' Diagonal Fractions lookup 16 subtable" sixsuperior
Substitution2: "'sinf' Scientific Inferiors lookup 13 subtable" six.sinf
Substitution2: "'subs' Subscript lookup 12 subtable" six.sinf
Substitution2: "'sups' Superscript lookup 11 subtable" six.sups
Substitution2: "'dnom' Denominators lookup 10 subtable" sixinferior
Substitution2: "'numr' Numerators lookup 8 subtable" sixsuperior
Substitution2: "'pnum' Proportional Numbers lookup 6 subtable" six.alt
EndChar

StartChar: seven
Encoding: 55 55 26
Width: 564
Flags: W
LayerCount: 2
Fore
SplineSet
175 0 m 1,0,1
 181 83 181 83 205.5 176 c 128,-1,2
 230 269 230 269 265.5 356 c 128,-1,3
 301 443 301 443 342.5 516 c 128,-1,4
 384 589 384 589 423 633 c 1,5,-1
 69 633 l 1,6,-1
 69 693 l 1,7,-1
 490 693 l 1,8,-1
 490 635 l 1,9,10
 456 594 456 594 415.5 525.5 c 128,-1,11
 375 457 375 457 339 371.5 c 128,-1,12
 303 286 303 286 276.5 190 c 128,-1,13
 250 94 250 94 244 0 c 1,14,-1
 175 0 l 1,0,1
EndSplineSet
Substitution2: "'frac' Diagonal Fractions lookup 16 subtable" sevensuperior
Substitution2: "'sinf' Scientific Inferiors lookup 13 subtable" seven.sinf
Substitution2: "'subs' Subscript lookup 12 subtable" seven.sinf
Substitution2: "'sups' Superscript lookup 11 subtable" seven.sups
Substitution2: "'dnom' Denominators lookup 10 subtable" seveninferior
Substitution2: "'numr' Numerators lookup 8 subtable" sevensuperior
Substitution2: "'pnum' Proportional Numbers lookup 6 subtable" seven.alt
EndChar

StartChar: eight
Encoding: 56 56 27
Width: 564
Flags: W
LayerCount: 2
Fore
SplineSet
282 -15 m 256,0,1
 233 -15 233 -15 193.5 -1 c 128,-1,2
 154 13 154 13 125.5 38.5 c 128,-1,3
 97 64 97 64 81.5 98.5 c 128,-1,4
 66 133 66 133 66 174 c 0,5,6
 66 209 66 209 76 237.5 c 128,-1,7
 86 266 86 266 102.5 288.5 c 128,-1,8
 119 311 119 311 140.5 328.5 c 128,-1,9
 162 346 162 346 186 359 c 1,10,11
 125 389 125 389 103 430 c 128,-1,12
 81 471 81 471 81 519 c 0,13,14
 81 562 81 562 96 597 c 128,-1,15
 111 632 111 632 137.5 656.5 c 128,-1,16
 164 681 164 681 201 694.5 c 128,-1,17
 238 708 238 708 282 708 c 0,18,19
 334 708 334 708 372 692.5 c 128,-1,20
 410 677 410 677 434.5 652 c 128,-1,21
 459 627 459 627 470.5 595 c 128,-1,22
 482 563 482 563 482 529 c 0,23,24
 482 496 482 496 472 468.5 c 128,-1,25
 462 441 462 441 446 418.5 c 128,-1,26
 430 396 430 396 410 379 c 128,-1,27
 390 362 390 362 371 350 c 1,28,29
 441 320 441 320 469.5 275 c 128,-1,30
 498 230 498 230 498 180 c 0,31,32
 498 137 498 137 482.5 101 c 128,-1,33
 467 65 467 65 439 39.5 c 128,-1,34
 411 14 411 14 371 -0.5 c 128,-1,35
 331 -15 331 -15 282 -15 c 256,0,1
429 174 m 0,36,37
 429 217 429 217 412.5 244 c 128,-1,38
 396 271 396 271 369.5 288 c 128,-1,39
 343 305 343 305 309.5 315 c 128,-1,40
 276 325 276 325 242 336 c 1,41,42
 191 312 191 312 163 271.5 c 128,-1,43
 135 231 135 231 135 174 c 0,44,45
 135 146 135 146 144 122 c 128,-1,46
 153 98 153 98 171.5 80 c 128,-1,47
 190 62 190 62 217.5 51.5 c 128,-1,48
 245 41 245 41 282 41 c 256,49,50
 319 41 319 41 346.5 51.5 c 128,-1,51
 374 62 374 62 392.5 80 c 128,-1,52
 411 98 411 98 420 122 c 128,-1,53
 429 146 429 146 429 174 c 0,36,37
149 526 m 0,54,55
 149 498 149 498 155.5 475 c 128,-1,56
 162 452 162 452 180 433.5 c 128,-1,57
 198 415 198 415 230 399.5 c 128,-1,58
 262 384 262 384 314 370 c 1,59,60
 360 396 360 396 387 434 c 128,-1,61
 414 472 414 472 414 529 c 0,62,63
 414 552 414 552 406.5 574 c 128,-1,64
 399 596 399 596 383.5 613.5 c 128,-1,65
 368 631 368 631 343 641.5 c 128,-1,66
 318 652 318 652 282 652 c 0,67,68
 249 652 249 652 224 642 c 128,-1,69
 199 632 199 632 182.5 614.5 c 128,-1,70
 166 597 166 597 157.5 574 c 128,-1,71
 149 551 149 551 149 526 c 0,54,55
EndSplineSet
Substitution2: "'frac' Diagonal Fractions lookup 16 subtable" eightsuperior
Substitution2: "'sinf' Scientific Inferiors lookup 13 subtable" eight.sinf
Substitution2: "'subs' Subscript lookup 12 subtable" eight.sinf
Substitution2: "'sups' Superscript lookup 11 subtable" eight.sups
Substitution2: "'dnom' Denominators lookup 10 subtable" eightinferior
Substitution2: "'numr' Numerators lookup 8 subtable" eightsuperior
Substitution2: "'pnum' Proportional Numbers lookup 6 subtable" eight.alt
EndChar

StartChar: nine
Encoding: 57 57 28
Width: 564
Flags: W
LayerCount: 2
Fore
SplineSet
490 418 m 0,0,1
 490 209 490 209 390 103.5 c 128,-1,2
 290 -2 290 -2 98 -2 c 1,3,-1
 96 52 l 1,4,5
 162 52 162 52 217 67 c 128,-1,6
 272 82 272 82 312.5 113.5 c 128,-1,7
 353 145 353 145 378.5 194.5 c 128,-1,8
 404 244 404 244 413 314 c 1,9,10
 386 300 386 300 348 289.5 c 128,-1,11
 310 279 310 279 267 279 c 0,12,13
 211 279 211 279 172 296.5 c 128,-1,14
 133 314 133 314 109 343 c 128,-1,15
 85 372 85 372 74 410 c 128,-1,16
 63 448 63 448 63 489 c 0,17,18
 63 527 63 527 75 566 c 128,-1,19
 87 605 87 605 112.5 636.5 c 128,-1,20
 138 668 138 668 176.5 688 c 128,-1,21
 215 708 215 708 268 708 c 0,22,23
 377 708 377 708 433.5 631.5 c 128,-1,24
 490 555 490 555 490 418 c 0,0,1
273 336 m 0,25,26
 319 336 319 336 353.5 346.5 c 128,-1,27
 388 357 388 357 418 371 c 1,28,29
 419 383 419 383 419.5 394 c 128,-1,30
 420 405 420 405 420 419 c 0,31,32
 420 466 420 466 413.5 508 c 128,-1,33
 407 550 407 550 389.5 582 c 128,-1,34
 372 614 372 614 343 632.5 c 128,-1,35
 314 651 314 651 269 651 c 0,36,37
 232 651 232 651 206 637.5 c 128,-1,38
 180 624 180 624 164 602 c 128,-1,39
 148 580 148 580 140.5 551 c 128,-1,40
 133 522 133 522 133 491 c 0,41,42
 133 412 133 412 168.5 374 c 128,-1,43
 204 336 204 336 273 336 c 0,25,26
EndSplineSet
Substitution2: "'frac' Diagonal Fractions lookup 16 subtable" ninesuperior
Substitution2: "'sinf' Scientific Inferiors lookup 13 subtable" nine.sinf
Substitution2: "'subs' Subscript lookup 12 subtable" nine.sinf
Substitution2: "'sups' Superscript lookup 11 subtable" nine.sups
Substitution2: "'dnom' Denominators lookup 10 subtable" nineinferior
Substitution2: "'numr' Numerators lookup 8 subtable" ninesuperior
Substitution2: "'pnum' Proportional Numbers lookup 6 subtable" nine.alt
EndChar

StartChar: less
Encoding: 60 60 31
Width: 564
Flags: W
LayerCount: 2
Fore
SplineSet
131 288 m 1,0,-1
 508 130 l 1,1,-1
 488 75 l 1,2,-1
 55 259 l 1,3,-1
 55 317 l 1,4,-1
 488 501 l 1,5,-1
 508 446 l 1,6,-1
 131 288 l 1,0,-1
EndSplineSet
EndChar

StartChar: equal
Encoding: 61 61 32
Width: 564
Flags: W
LayerCount: 2
Fore
SplineSet
56 212 m 1,0,-1
 508 212 l 1,1,-1
 508 156 l 1,2,-1
 56 156 l 1,3,-1
 56 212 l 1,0,-1
56 422 m 1,4,-1
 508 422 l 1,5,-1
 508 366 l 1,6,-1
 56 366 l 1,7,-1
 56 422 l 1,4,-1
EndSplineSet
EndChar

StartChar: greater
Encoding: 62 62 33
Width: 564
Flags: W
LayerCount: 2
Fore
SplineSet
55 446 m 1,0,-1
 75 501 l 1,1,-1
 508 317 l 1,2,-1
 508 259 l 1,3,-1
 75 75 l 1,4,-1
 55 130 l 1,5,-1
 432 288 l 1,6,-1
 55 446 l 1,0,-1
EndSplineSet
EndChar

StartChar: question
Encoding: 63 63 34
Width: 380
Flags: W
LayerCount: 2
Fore
SplineSet
161 650 m 0,0,1
 94 650 94 650 39 620 c 1,2,-1
 20 674 l 1,3,4
 41 686 41 686 80.5 697 c 128,-1,5
 120 708 120 708 168 708 c 0,6,7
 221 708 221 708 256.5 694.5 c 128,-1,8
 292 681 292 681 313 659.5 c 128,-1,9
 334 638 334 638 343 611 c 128,-1,10
 352 584 352 584 352 558 c 0,11,12
 352 522 352 522 339 494 c 128,-1,13
 326 466 326 466 306 442 c 128,-1,14
 286 418 286 418 263.5 396 c 128,-1,15
 241 374 241 374 221 350.5 c 128,-1,16
 201 327 201 327 188 300 c 128,-1,17
 175 273 175 273 175 240 c 0,18,19
 175 229 175 229 175 223.5 c 128,-1,20
 175 218 175 218 176 213 c 1,21,-1
 124 213 l 1,22,23
 122 223 122 223 121 234.5 c 128,-1,24
 120 246 120 246 120 258 c 0,25,26
 120 292 120 292 132 318.5 c 128,-1,27
 144 345 144 345 162 368 c 128,-1,28
 180 391 180 391 201 411.5 c 128,-1,29
 222 432 222 432 240 453.5 c 128,-1,30
 258 475 258 475 270 499.5 c 128,-1,31
 282 524 282 524 282 555 c 0,32,33
 282 583 282 583 272 601.5 c 128,-1,34
 262 620 262 620 245.5 631 c 128,-1,35
 229 642 229 642 207 646 c 128,-1,36
 185 650 185 650 161 650 c 0,0,1
210 43 m 256,37,38
 210 20 210 20 195.5 4 c 128,-1,39
 181 -12 181 -12 155 -12 c 256,40,41
 129 -12 129 -12 114.5 4 c 128,-1,42
 100 20 100 20 100 43 c 256,43,44
 100 66 100 66 114.5 82 c 128,-1,45
 129 98 129 98 155 98 c 256,46,47
 181 98 181 98 195.5 82 c 128,-1,48
 210 66 210 66 210 43 c 256,37,38
EndSplineSet
EndChar

StartChar: at
Encoding: 64 64 35
Width: 940
Flags: W
LayerCount: 2
Fore
SplineSet
687 58 m 0,0,1
 655 58 655 58 635.5 69 c 128,-1,2
 616 80 616 80 607 93 c 1,3,4
 589 81 589 81 558 69 c 128,-1,5
 527 57 527 57 490 57 c 0,6,7
 444 57 444 57 405.5 70.5 c 128,-1,8
 367 84 367 84 338.5 111.5 c 128,-1,9
 310 139 310 139 294 181 c 128,-1,10
 278 223 278 223 278 280 c 0,11,12
 278 327 278 327 292.5 368 c 128,-1,13
 307 409 307 409 334.5 439.5 c 128,-1,14
 362 470 362 470 402.5 487.5 c 128,-1,15
 443 505 443 505 495 505 c 0,16,17
 543 505 543 505 581.5 496.5 c 128,-1,18
 620 488 620 488 642 479 c 1,19,-1
 642 186 l 2,20,21
 642 147 642 147 655.5 130 c 128,-1,22
 669 113 669 113 691 113 c 0,23,24
 725 113 725 113 746.5 134.5 c 128,-1,25
 768 156 768 156 780.5 188.5 c 128,-1,26
 793 221 793 221 798 257.5 c 128,-1,27
 803 294 803 294 803 324 c 0,28,29
 803 389 803 389 781 448 c 128,-1,30
 759 507 759 507 717.5 551.5 c 128,-1,31
 676 596 676 596 616 622.5 c 128,-1,32
 556 649 556 649 480 649 c 0,33,34
 403 649 403 649 340 624.5 c 128,-1,35
 277 600 277 600 232 553 c 128,-1,36
 187 506 187 506 162 437.5 c 128,-1,37
 137 369 137 369 137 281 c 0,38,39
 137 188 137 188 164.5 118 c 128,-1,40
 192 48 192 48 240 1 c 128,-1,41
 288 -46 288 -46 353.5 -69.5 c 128,-1,42
 419 -93 419 -93 495 -93 c 0,43,44
 553 -93 553 -93 586.5 -87.5 c 128,-1,45
 620 -82 620 -82 631 -78 c 1,46,-1
 638 -133 l 1,47,48
 621 -138 621 -138 581 -144 c 128,-1,49
 541 -150 541 -150 495 -150 c 0,50,51
 408 -150 408 -150 331 -124.5 c 128,-1,52
 254 -99 254 -99 196.5 -45.5 c 128,-1,53
 139 8 139 8 105.5 89 c 128,-1,54
 72 170 72 170 72 281 c 0,55,56
 72 388 72 388 104 468 c 128,-1,57
 136 548 136 548 191.5 601 c 128,-1,58
 247 654 247 654 321.5 680 c 128,-1,59
 396 706 396 706 480 706 c 0,60,61
 560 706 560 706 630.5 679 c 128,-1,62
 701 652 701 652 754 602 c 128,-1,63
 807 552 807 552 837.5 481 c 128,-1,64
 868 410 868 410 868 322 c 0,65,66
 868 257 868 257 854 207.5 c 128,-1,67
 840 158 840 158 815.5 125 c 128,-1,68
 791 92 791 92 758 75 c 128,-1,69
 725 58 725 58 687 58 c 0,0,1
486 111 m 0,70,71
 520 111 520 111 541 116.5 c 128,-1,72
 562 122 562 122 585 136 c 1,73,74
 581 146 581 146 579.5 161.5 c 128,-1,75
 578 177 578 177 578 188 c 2,76,-1
 578 442 l 1,77,78
 570 444 570 444 552 447.5 c 128,-1,79
 534 451 534 451 502 451 c 0,80,81
 464 451 464 451 434.5 438.5 c 128,-1,82
 405 426 405 426 385 403.5 c 128,-1,83
 365 381 365 381 355 349.5 c 128,-1,84
 345 318 345 318 345 281 c 0,85,86
 345 237 345 237 356 205 c 128,-1,87
 367 173 367 173 386 152 c 128,-1,88
 405 131 405 131 431 121 c 128,-1,89
 457 111 457 111 486 111 c 0,70,71
EndSplineSet
Substitution2: "'case' Case-Sensitive Forms lookup 18 subtable" At
EndChar

StartChar: A
Encoding: 65 65 36
Width: 641
Flags: W
LayerCount: 2
Fore
SplineSet
556 0 m 1,0,1
 537 51 537 51 520 98 c 128,-1,2
 503 145 503 145 487 190 c 1,3,-1
 150 190 l 1,4,5
 133 145 133 145 116 98 c 128,-1,6
 99 51 99 51 81 0 c 1,7,-1
 10 0 l 1,8,9
 50 108 50 108 85 201.5 c 128,-1,10
 120 295 120 295 153.5 378.5 c 128,-1,11
 187 462 187 462 220 539 c 128,-1,12
 253 616 253 616 290 693 c 1,13,-1
 350 693 l 1,14,15
 387 616 387 616 420 539 c 128,-1,16
 453 462 453 462 486.5 378.5 c 128,-1,17
 520 295 520 295 555 201.5 c 128,-1,18
 590 108 590 108 631 0 c 1,19,-1
 556 0 l 1,0,1
318 615 m 1,20,21
 280 529 280 529 244.5 440 c 128,-1,22
 209 351 209 351 171 248 c 1,23,-1
 466 248 l 1,24,25
 428 351 428 351 392 440 c 128,-1,26
 356 529 356 529 318 615 c 1,20,21
EndSplineSet
EndChar

StartChar: B
Encoding: 66 66 37
Width: 630
Flags: W
LayerCount: 2
Fore
SplineSet
256 -6 m 0,0,1
 239 -6 239 -6 216.5 -4.5 c 128,-1,2
 194 -3 194 -3 170.5 -0.5 c 128,-1,3
 147 2 147 2 126 5.5 c 128,-1,4
 105 9 105 9 90 13 c 1,5,-1
 90 680 l 1,6,7
 108 685 108 685 130 688.5 c 128,-1,8
 152 692 152 692 175.5 694.5 c 128,-1,9
 199 697 199 697 221.5 698 c 128,-1,10
 244 699 244 699 263 699 c 0,11,12
 319 699 319 699 369.5 690 c 128,-1,13
 420 681 420 681 458 660 c 128,-1,14
 496 639 496 639 518.5 604.5 c 128,-1,15
 541 570 541 570 541 519 c 0,16,17
 541 463 541 463 512.5 423.5 c 128,-1,18
 484 384 484 384 436 369 c 1,19,20
 466 362 466 362 491 349 c 128,-1,21
 516 336 516 336 535 315.5 c 128,-1,22
 554 295 554 295 564.5 265.5 c 128,-1,23
 575 236 575 236 575 195 c 0,24,25
 575 97 575 97 497 45.5 c 128,-1,26
 419 -6 419 -6 256 -6 c 0,0,1
158 332 m 1,27,-1
 158 59 l 1,28,29
 173 57 173 57 203 54.5 c 128,-1,30
 233 52 233 52 264 52 c 0,31,32
 310 52 310 52 353.5 58 c 128,-1,33
 397 64 397 64 430 80 c 128,-1,34
 463 96 463 96 483 124 c 128,-1,35
 503 152 503 152 503 196 c 0,36,37
 503 236 503 236 489 262.5 c 128,-1,38
 475 289 475 289 449 304.5 c 128,-1,39
 423 320 423 320 385.5 326 c 128,-1,40
 348 332 348 332 302 332 c 2,41,-1
 158 332 l 1,27,-1
158 390 m 1,42,-1
 290 390 l 2,43,44
 327 390 327 390 360 395.5 c 128,-1,45
 393 401 393 401 417.5 415.5 c 128,-1,46
 442 430 442 430 456 454.5 c 128,-1,47
 470 479 470 479 470 517 c 0,48,49
 470 551 470 551 455 574.5 c 128,-1,50
 440 598 440 598 412.5 613 c 128,-1,51
 385 628 385 628 347 634.5 c 128,-1,52
 309 641 309 641 263 641 c 0,53,54
 226 641 226 641 200.5 639 c 128,-1,55
 175 637 175 637 158 634 c 1,56,-1
 158 390 l 1,42,-1
EndSplineSet
EndChar

StartChar: C
Encoding: 67 67 38
Width: 609
Flags: W
LayerCount: 2
Fore
SplineSet
378 -15 m 0,0,1
 311 -15 311 -15 253.5 9 c 128,-1,2
 196 33 196 33 153.5 79 c 128,-1,3
 111 125 111 125 86.5 192.5 c 128,-1,4
 62 260 62 260 62 347 c 256,5,6
 62 434 62 434 88.5 501.5 c 128,-1,7
 115 569 115 569 159 615 c 128,-1,8
 203 661 203 661 261 684.5 c 128,-1,9
 319 708 319 708 382 708 c 0,10,11
 421 708 421 708 453 703 c 128,-1,12
 485 698 485 698 509 690.5 c 128,-1,13
 533 683 533 683 550 675.5 c 128,-1,14
 567 668 567 668 576 662 c 1,15,-1
 554 603 l 1,16,17
 529 618 529 618 490.5 632.5 c 128,-1,18
 452 647 452 647 395 647 c 0,19,20
 330 647 330 647 281.5 625 c 128,-1,21
 233 603 233 603 200 563 c 128,-1,22
 167 523 167 523 150.5 468 c 128,-1,23
 134 413 134 413 134 346 c 0,24,25
 134 277 134 277 150.5 221.5 c 128,-1,26
 167 166 167 166 199 127 c 128,-1,27
 231 88 231 88 277.5 67 c 128,-1,28
 324 46 324 46 384 46 c 0,29,30
 450 46 450 46 494.5 58.5 c 128,-1,31
 539 71 539 71 562 84 c 1,32,-1
 581 26 l 1,33,34
 574 21 574 21 557 14.5 c 128,-1,35
 540 8 540 8 514 1 c 128,-1,36
 488 -6 488 -6 454 -10.5 c 128,-1,37
 420 -15 420 -15 378 -15 c 0,0,1
EndSplineSet
EndChar

StartChar: D
Encoding: 68 68 39
Width: 702
Flags: W
LayerCount: 2
Fore
SplineSet
640 347 m 0,0,1
 640 258 640 258 612 192 c 128,-1,2
 584 126 584 126 533.5 82 c 128,-1,3
 483 38 483 38 413 16 c 128,-1,4
 343 -6 343 -6 259 -6 c 0,5,6
 217 -6 217 -6 171 -1.5 c 128,-1,7
 125 3 125 3 90 12 c 1,8,-1
 90 680 l 1,9,10
 125 690 125 690 171 694.5 c 128,-1,11
 217 699 217 699 259 699 c 0,12,13
 343 699 343 699 413 677 c 128,-1,14
 483 655 483 655 533.5 611 c 128,-1,15
 584 567 584 567 612 501 c 128,-1,16
 640 435 640 435 640 347 c 0,0,1
158 60 m 1,17,18
 164 59 164 59 188.5 56 c 128,-1,19
 213 53 213 53 267 53 c 0,20,21
 342 53 342 53 398 73.5 c 128,-1,22
 454 94 454 94 492 132 c 128,-1,23
 530 170 530 170 549 224.5 c 128,-1,24
 568 279 568 279 568 347 c 256,25,26
 568 415 568 415 549 469 c 128,-1,27
 530 523 530 523 492 561 c 128,-1,28
 454 599 454 599 398 619.5 c 128,-1,29
 342 640 342 640 267 640 c 0,30,31
 213 640 213 640 188.5 637 c 128,-1,32
 164 634 164 634 158 633 c 1,33,-1
 158 60 l 1,17,18
EndSplineSet
EndChar

StartChar: E
Encoding: 69 69 40
Width: 555
Flags: W
LayerCount: 2
Fore
SplineSet
90 0 m 1,0,-1
 90 693 l 1,1,-1
 490 693 l 1,2,-1
 490 634 l 1,3,-1
 158 634 l 1,4,-1
 158 393 l 1,5,-1
 454 393 l 1,6,-1
 454 335 l 1,7,-1
 158 335 l 1,8,-1
 158 59 l 1,9,-1
 516 59 l 1,10,-1
 516 0 l 1,11,-1
 90 0 l 1,0,-1
EndSplineSet
EndChar

StartChar: F
Encoding: 70 70 41
Width: 520
Flags: W
LayerCount: 2
Fore
SplineSet
90 0 m 1,0,-1
 90 693 l 1,1,-1
 485 693 l 1,2,-1
 485 634 l 1,3,-1
 158 634 l 1,4,-1
 158 390 l 1,5,-1
 448 390 l 1,6,-1
 448 331 l 1,7,-1
 158 331 l 1,8,-1
 158 0 l 1,9,-1
 90 0 l 1,0,-1
EndSplineSet
EndChar

StartChar: G
Encoding: 71 71 42
Width: 658
Flags: W
LayerCount: 2
Fore
SplineSet
522 328 m 1,0,-1
 590 328 l 1,1,-1
 590 19 l 1,2,3
 571 11 571 11 515.5 -1.5 c 128,-1,4
 460 -14 460 -14 379 -14 c 0,5,6
 311 -14 311 -14 253 10 c 128,-1,7
 195 34 195 34 152.5 79.5 c 128,-1,8
 110 125 110 125 86 192.5 c 128,-1,9
 62 260 62 260 62 347 c 256,10,11
 62 434 62 434 88 501.5 c 128,-1,12
 114 569 114 569 158.5 614.5 c 128,-1,13
 203 660 203 660 262 684 c 128,-1,14
 321 708 321 708 388 708 c 0,15,16
 465 708 465 708 515 691.5 c 128,-1,17
 565 675 565 675 588 660 c 1,18,-1
 565 602 l 1,19,20
 537 622 537 622 489 634.5 c 128,-1,21
 441 647 441 647 385 647 c 0,22,23
 333 647 333 647 287 628 c 128,-1,24
 241 609 241 609 207 571 c 128,-1,25
 173 533 173 533 153.5 477 c 128,-1,26
 134 421 134 421 134 347 c 0,27,28
 134 278 134 278 150 222.5 c 128,-1,29
 166 167 166 167 198.5 127.5 c 128,-1,30
 231 88 231 88 279 67 c 128,-1,31
 327 46 327 46 390 46 c 0,32,33
 441 46 441 46 475.5 51.5 c 128,-1,34
 510 57 510 57 522 62 c 1,35,-1
 522 328 l 1,0,-1
EndSplineSet
EndChar

StartChar: H
Encoding: 72 72 43
Width: 692
Flags: W
LayerCount: 2
Fore
SplineSet
534 693 m 1,0,-1
 602 693 l 1,1,-1
 602 0 l 1,2,-1
 534 0 l 1,3,-1
 534 333 l 1,4,-1
 158 333 l 1,5,-1
 158 0 l 1,6,-1
 90 0 l 1,7,-1
 90 693 l 1,8,-1
 158 693 l 1,9,-1
 158 392 l 1,10,-1
 534 392 l 1,11,-1
 534 693 l 1,0,-1
EndSplineSet
EndChar

StartChar: I
Encoding: 73 73 44
Width: 248
Flags: W
LayerCount: 2
Fore
SplineSet
90 693 m 1,0,-1
 158 693 l 1,1,-1
 158 0 l 1,2,-1
 90 0 l 1,3,-1
 90 693 l 1,0,-1
EndSplineSet
EndChar

StartChar: J
Encoding: 74 74 45
Width: 487
Flags: W
LayerCount: 2
Fore
SplineSet
400 218 m 2,0,1
 400 168 400 168 390 125.5 c 128,-1,2
 380 83 380 83 355.5 51.5 c 128,-1,3
 331 20 331 20 290.5 2.5 c 128,-1,4
 250 -15 250 -15 189 -15 c 0,5,6
 153 -15 153 -15 123 -8.5 c 128,-1,7
 93 -2 93 -2 70 7 c 128,-1,8
 47 16 47 16 31.5 26 c 128,-1,9
 16 36 16 36 8 44 c 1,10,-1
 40 99 l 1,11,12
 49 91 49 91 62.5 81.5 c 128,-1,13
 76 72 76 72 94 64 c 128,-1,14
 112 56 112 56 134 51 c 128,-1,15
 156 46 156 46 182 46 c 0,16,17
 259 46 259 46 295.5 86.5 c 128,-1,18
 332 127 332 127 332 225 c 2,19,-1
 332 693 l 1,20,-1
 400 693 l 1,21,-1
 400 218 l 2,0,1
EndSplineSet
EndChar

StartChar: K
Encoding: 75 75 46
Width: 599
Flags: W
LayerCount: 2
Fore
SplineSet
513 0 m 1,0,1
 479 52 479 52 436.5 103 c 128,-1,2
 394 154 394 154 347 199 c 128,-1,3
 300 244 300 244 251.5 281 c 128,-1,4
 203 318 203 318 158 343 c 1,5,-1
 158 0 l 1,6,-1
 90 0 l 1,7,-1
 90 693 l 1,8,-1
 158 693 l 1,9,-1
 158 370 l 1,10,11
 196 404 196 404 242.5 448.5 c 128,-1,12
 289 493 289 493 334.5 538 c 128,-1,13
 380 583 380 583 420 624 c 128,-1,14
 460 665 460 665 484 693 c 1,15,-1
 566 693 l 1,16,17
 537 662 537 662 496 619.5 c 128,-1,18
 455 577 455 577 409 532 c 128,-1,19
 363 487 363 487 317.5 443.5 c 128,-1,20
 272 400 272 400 236 367 c 1,21,22
 265 349 265 349 298.5 322.5 c 128,-1,23
 332 296 332 296 366.5 264.5 c 128,-1,24
 401 233 401 233 434.5 198.5 c 128,-1,25
 468 164 468 164 497.5 129 c 128,-1,26
 527 94 527 94 550.5 61 c 128,-1,27
 574 28 574 28 589 0 c 1,28,-1
 513 0 l 1,0,1
EndSplineSet
EndChar

StartChar: L
Encoding: 76 76 47
Width: 502
Flags: W
LayerCount: 2
Fore
SplineSet
484 59 m 1,0,-1
 484 0 l 1,1,-1
 90 0 l 1,2,-1
 90 693 l 1,3,-1
 158 693 l 1,4,-1
 158 59 l 1,5,-1
 484 59 l 1,0,-1
EndSplineSet
EndChar

StartChar: M
Encoding: 77 77 48
Width: 865
Flags: W
LayerCount: 2
Fore
SplineSet
401 100 m 1,0,1
 391 125 391 125 372.5 166 c 128,-1,2
 354 207 354 207 331 255.5 c 128,-1,3
 308 304 308 304 284 355.5 c 128,-1,4
 260 407 260 407 238 452 c 128,-1,5
 216 497 216 497 199 531 c 128,-1,6
 182 565 182 565 174 579 c 1,7,8
 161 454 161 454 153.5 307.5 c 128,-1,9
 146 161 146 161 140 0 c 1,10,-1
 73 0 l 1,11,12
 82 189 82 189 93.5 362 c 128,-1,13
 105 535 105 535 122 693 c 1,14,-1
 182 693 l 1,15,16
 212 643 212 643 246 577.5 c 128,-1,17
 280 512 280 512 313.5 441.5 c 128,-1,18
 347 371 347 371 378.5 302.5 c 128,-1,19
 410 234 410 234 434 179 c 1,20,21
 458 234 458 234 489.5 302.5 c 128,-1,22
 521 371 521 371 554.5 441.5 c 128,-1,23
 588 512 588 512 622 577.5 c 128,-1,24
 656 643 656 643 686 693 c 1,25,-1
 743 693 l 1,26,27
 760 535 760 535 771.5 362 c 128,-1,28
 783 189 783 189 792 0 c 1,29,-1
 723 0 l 1,30,31
 717 161 717 161 709.5 307.5 c 128,-1,32
 702 454 702 454 689 579 c 1,33,34
 681 565 681 565 664 531 c 128,-1,35
 647 497 647 497 625 452 c 128,-1,36
 603 407 603 407 579 355.5 c 128,-1,37
 555 304 555 304 532 255.5 c 128,-1,38
 509 207 509 207 490.5 166 c 128,-1,39
 472 125 472 125 462 100 c 1,40,-1
 401 100 l 1,0,1
EndSplineSet
EndChar

StartChar: N
Encoding: 78 78 49
Width: 709
Flags: W
LayerCount: 2
Fore
SplineSet
562 0 m 1,0,1
 543 35 543 35 513.5 82 c 128,-1,2
 484 129 484 129 449 182.5 c 128,-1,3
 414 236 414 236 375 292.5 c 128,-1,4
 336 349 336 349 297.5 402.5 c 128,-1,5
 259 456 259 456 222.5 503 c 128,-1,6
 186 550 186 550 157 584 c 1,7,-1
 157 0 l 1,8,-1
 90 0 l 1,9,-1
 90 693 l 1,10,-1
 144 693 l 1,11,12
 195 636 195 636 253.5 561.5 c 128,-1,13
 312 487 312 487 368 409.5 c 128,-1,14
 424 332 424 332 472.5 258 c 128,-1,15
 521 184 521 184 552 129 c 1,16,-1
 552 693 l 1,17,-1
 619 693 l 1,18,-1
 619 0 l 1,19,-1
 562 0 l 1,0,1
EndSplineSet
EndChar

StartChar: O
Encoding: 79 79 50
Width: 774
Flags: W
LayerCount: 2
Fore
SplineSet
712 347 m 256,0,1
 712 258 712 258 686 190 c 128,-1,2
 660 122 660 122 615.5 76.5 c 128,-1,3
 571 31 571 31 512 8 c 128,-1,4
 453 -15 453 -15 387 -15 c 256,5,6
 321 -15 321 -15 262 8 c 128,-1,7
 203 31 203 31 158.5 76.5 c 128,-1,8
 114 122 114 122 88 190 c 128,-1,9
 62 258 62 258 62 347 c 256,10,11
 62 436 62 436 88 503.5 c 128,-1,12
 114 571 114 571 158.5 616.5 c 128,-1,13
 203 662 203 662 262 685 c 128,-1,14
 321 708 321 708 387 708 c 256,15,16
 453 708 453 708 512 685 c 128,-1,17
 571 662 571 662 615.5 616.5 c 128,-1,18
 660 571 660 571 686 503.5 c 128,-1,19
 712 436 712 436 712 347 c 256,0,1
640 347 m 256,20,21
 640 417 640 417 622 472.5 c 128,-1,22
 604 528 604 528 571 567 c 128,-1,23
 538 606 538 606 491.5 626.5 c 128,-1,24
 445 647 445 647 387 647 c 256,25,26
 329 647 329 647 282.5 626.5 c 128,-1,27
 236 606 236 606 203 567 c 128,-1,28
 170 528 170 528 152 472.5 c 128,-1,29
 134 417 134 417 134 347 c 256,30,31
 134 277 134 277 152 221.5 c 128,-1,32
 170 166 170 166 203 127 c 128,-1,33
 236 88 236 88 282.5 67 c 128,-1,34
 329 46 329 46 387 46 c 256,35,36
 445 46 445 46 491.5 67 c 128,-1,37
 538 88 538 88 571 127 c 128,-1,38
 604 166 604 166 622 221.5 c 128,-1,39
 640 277 640 277 640 347 c 256,20,21
EndSplineSet
EndChar

StartChar: P
Encoding: 80 80 51
Width: 592
Flags: W
LayerCount: 2
Fore
SplineSet
265 699 m 0,0,1
 412 699 412 699 484 643 c 128,-1,2
 556 587 556 587 556 484 c 0,3,4
 556 425 556 425 535 383.5 c 128,-1,5
 514 342 514 342 475 316.5 c 128,-1,6
 436 291 436 291 379.5 279.5 c 128,-1,7
 323 268 323 268 252 268 c 2,8,-1
 158 268 l 1,9,-1
 158 0 l 1,10,-1
 90 0 l 1,11,-1
 90 680 l 1,12,13
 126 690 126 690 174.5 694.5 c 128,-1,14
 223 699 223 699 265 699 c 0,0,1
268 640 m 0,15,16
 230 640 230 640 203.5 637.5 c 128,-1,17
 177 635 177 635 158 633 c 1,18,-1
 158 327 l 1,19,-1
 244 327 l 2,20,21
 299 327 299 327 343.5 333.5 c 128,-1,22
 388 340 388 340 419.5 357.5 c 128,-1,23
 451 375 451 375 468 406 c 128,-1,24
 485 437 485 437 485 485 c 0,25,26
 485 531 485 531 466.5 561 c 128,-1,27
 448 591 448 591 417.5 608.5 c 128,-1,28
 387 626 387 626 348 633 c 128,-1,29
 309 640 309 640 268 640 c 0,15,16
EndSplineSet
EndChar

StartChar: Q
Encoding: 81 81 52
Width: 774
Flags: W
LayerCount: 2
Fore
SplineSet
712 347 m 0,0,1
 712 267 712 267 691 205 c 128,-1,2
 670 143 670 143 634 98 c 128,-1,3
 598 53 598 53 549 26 c 128,-1,4
 500 -1 500 -1 444 -10 c 1,5,6
 448 -38 448 -38 469.5 -58 c 128,-1,7
 491 -78 491 -78 521.5 -92 c 128,-1,8
 552 -106 552 -106 589 -114.5 c 128,-1,9
 626 -123 626 -123 661 -128 c 1,10,-1
 647 -185 l 1,11,12
 609 -178 609 -178 565 -167.5 c 128,-1,13
 521 -157 521 -157 481.5 -138 c 128,-1,14
 442 -119 442 -119 413 -89.5 c 128,-1,15
 384 -60 384 -60 375 -15 c 1,16,17
 311 -13 311 -13 254 11 c 128,-1,18
 197 35 197 35 154.5 80.5 c 128,-1,19
 112 126 112 126 87 193 c 128,-1,20
 62 260 62 260 62 347 c 0,21,22
 62 436 62 436 88 503.5 c 128,-1,23
 114 571 114 571 158.5 616.5 c 128,-1,24
 203 662 203 662 262 685 c 128,-1,25
 321 708 321 708 387 708 c 256,26,27
 453 708 453 708 512 685 c 128,-1,28
 571 662 571 662 615.5 616.5 c 128,-1,29
 660 571 660 571 686 503.5 c 128,-1,30
 712 436 712 436 712 347 c 0,0,1
640 347 m 256,31,32
 640 417 640 417 622 472.5 c 128,-1,33
 604 528 604 528 571 567 c 128,-1,34
 538 606 538 606 491.5 626.5 c 128,-1,35
 445 647 445 647 387 647 c 256,36,37
 329 647 329 647 282.5 626.5 c 128,-1,38
 236 606 236 606 203 567 c 128,-1,39
 170 528 170 528 152 472.5 c 128,-1,40
 134 417 134 417 134 347 c 256,41,42
 134 277 134 277 152 221.5 c 128,-1,43
 170 166 170 166 203 127 c 128,-1,44
 236 88 236 88 282.5 67 c 128,-1,45
 329 46 329 46 387 46 c 256,46,47
 445 46 445 46 491.5 67 c 128,-1,48
 538 88 538 88 571 127 c 128,-1,49
 604 166 604 166 622 221.5 c 128,-1,50
 640 277 640 277 640 347 c 256,31,32
EndSplineSet
EndChar

StartChar: R
Encoding: 82 82 53
Width: 618
Flags: W
LayerCount: 2
Fore
SplineSet
552 485 m 0,0,1
 552 407 552 407 511 362 c 128,-1,2
 470 317 470 317 403 297 c 1,3,4
 419 277 419 277 444.5 243 c 128,-1,5
 470 209 470 209 497 168.5 c 128,-1,6
 524 128 524 128 550 84 c 128,-1,7
 576 40 576 40 594 0 c 1,8,-1
 521 0 l 1,9,10
 500 40 500 40 475.5 80 c 128,-1,11
 451 120 451 120 425.5 157.5 c 128,-1,12
 400 195 400 195 376 227 c 128,-1,13
 352 259 352 259 334 283 c 1,14,15
 302 280 302 280 270 280 c 2,16,-1
 158 280 l 1,17,-1
 158 0 l 1,18,-1
 90 0 l 1,19,-1
 90 680 l 1,20,21
 126 690 126 690 174.5 694.5 c 128,-1,22
 223 699 223 699 264 699 c 0,23,24
 407 699 407 699 479.5 645 c 128,-1,25
 552 591 552 591 552 485 c 0,0,1
272 640 m 0,26,27
 234 640 234 640 205.5 637.5 c 128,-1,28
 177 635 177 635 158 633 c 1,29,-1
 158 338 l 1,30,-1
 252 338 l 2,31,32
 299 338 299 338 341 342.5 c 128,-1,33
 383 347 383 347 414 362.5 c 128,-1,34
 445 378 445 378 463 407 c 128,-1,35
 481 436 481 436 481 486 c 0,36,37
 481 532 481 532 463 562 c 128,-1,38
 445 592 445 592 416 609.5 c 128,-1,39
 387 627 387 627 349.5 633.5 c 128,-1,40
 312 640 312 640 272 640 c 0,26,27
EndSplineSet
EndChar

StartChar: S
Encoding: 83 83 54
Width: 517
Flags: W
LayerCount: 2
Fore
SplineSet
239 44 m 0,0,1
 320 44 320 44 365 73.5 c 128,-1,2
 410 103 410 103 410 169 c 0,3,4
 410 207 410 207 395.5 232.5 c 128,-1,5
 381 258 381 258 357 275.5 c 128,-1,6
 333 293 333 293 302 305.5 c 128,-1,7
 271 318 271 318 237 332 c 0,8,9
 194 349 194 349 160 367 c 128,-1,10
 126 385 126 385 102 407.5 c 128,-1,11
 78 430 78 430 65.5 459 c 128,-1,12
 53 488 53 488 53 527 c 0,13,14
 53 616 53 616 112 662 c 128,-1,15
 171 708 171 708 276 708 c 0,16,17
 304 708 304 708 331 704 c 128,-1,18
 358 700 358 700 381.5 693.5 c 128,-1,19
 405 687 405 687 424.5 679 c 128,-1,20
 444 671 444 671 457 662 c 1,21,-1
 433 605 l 1,22,23
 404 625 404 625 362.5 637 c 128,-1,24
 321 649 321 649 273 649 c 0,25,26
 240 649 240 649 212.5 642.5 c 128,-1,27
 185 636 185 636 165 621.5 c 128,-1,28
 145 607 145 607 133.5 585 c 128,-1,29
 122 563 122 563 122 532 c 0,30,31
 122 500 122 500 134 478 c 128,-1,32
 146 456 146 456 167.5 440 c 128,-1,33
 189 424 189 424 218 411 c 128,-1,34
 247 398 247 398 281 384 c 0,35,36
 322 367 322 367 358.5 350 c 128,-1,37
 395 333 395 333 422 310 c 128,-1,38
 449 287 449 287 465 254 c 128,-1,39
 481 221 481 221 481 173 c 0,40,41
 481 79 481 79 415.5 32 c 128,-1,42
 350 -15 350 -15 238 -15 c 0,43,44
 198 -15 198 -15 165 -10 c 128,-1,45
 132 -5 132 -5 106 2.5 c 128,-1,46
 80 10 80 10 62 18 c 128,-1,47
 44 26 44 26 34 32 c 1,48,-1
 56 91 l 1,49,50
 66 85 66 85 83 77 c 128,-1,51
 100 69 100 69 123 61.5 c 128,-1,52
 146 54 146 54 175 49 c 128,-1,53
 204 44 204 44 239 44 c 0,0,1
EndSplineSet
EndChar

StartChar: T
Encoding: 84 84 55
Width: 548
Flags: W
LayerCount: 2
Fore
SplineSet
530 693 m 1,0,-1
 530 634 l 1,1,-1
 308 634 l 1,2,-1
 308 0 l 1,3,-1
 240 0 l 1,4,-1
 240 634 l 1,5,-1
 18 634 l 1,6,-1
 18 693 l 1,7,-1
 530 693 l 1,0,-1
EndSplineSet
EndChar

StartChar: U
Encoding: 85 85 56
Width: 680
Flags: W
LayerCount: 2
Fore
SplineSet
340 -15 m 256,0,1
 271 -15 271 -15 222.5 6 c 128,-1,2
 174 27 174 27 144 64 c 128,-1,3
 114 101 114 101 100.5 150.5 c 128,-1,4
 87 200 87 200 87 257 c 2,5,-1
 87 693 l 1,6,-1
 155 693 l 1,7,-1
 155 266 l 2,8,9
 155 209 155 209 168.5 167.5 c 128,-1,10
 182 126 182 126 206 99 c 128,-1,11
 230 72 230 72 264 59 c 128,-1,12
 298 46 298 46 340 46 c 256,13,14
 382 46 382 46 416 59 c 128,-1,15
 450 72 450 72 474 99 c 128,-1,16
 498 126 498 126 511.5 167.5 c 128,-1,17
 525 209 525 209 525 266 c 2,18,-1
 525 693 l 1,19,-1
 593 693 l 1,20,-1
 593 257 l 2,21,22
 593 200 593 200 579.5 150.5 c 128,-1,23
 566 101 566 101 536 64 c 128,-1,24
 506 27 506 27 457.5 6 c 128,-1,25
 409 -15 409 -15 340 -15 c 256,0,1
EndSplineSet
EndChar

StartChar: V
Encoding: 86 86 57
Width: 624
Flags: W
LayerCount: 2
Fore
SplineSet
86 693 m 1,0,1
 116 604 116 604 144 524.5 c 128,-1,2
 172 445 172 445 199 370.5 c 128,-1,3
 226 296 226 296 254 224.5 c 128,-1,4
 282 153 282 153 314 80 c 1,5,6
 345 152 345 152 373.5 223.5 c 128,-1,7
 402 295 402 295 429.5 369.5 c 128,-1,8
 457 444 457 444 484.5 524 c 128,-1,9
 512 604 512 604 542 693 c 1,10,-1
 614 693 l 1,11,12
 568 562 568 562 531.5 463 c 128,-1,13
 495 364 495 364 463.5 284 c 128,-1,14
 432 204 432 204 403.5 136.5 c 128,-1,15
 375 69 375 69 344 0 c 1,16,-1
 281 0 l 1,17,18
 250 69 250 69 221 136.5 c 128,-1,19
 192 204 192 204 160.5 284 c 128,-1,20
 129 364 129 364 92.5 463 c 128,-1,21
 56 562 56 562 10 693 c 1,22,-1
 86 693 l 1,0,1
EndSplineSet
EndChar

StartChar: W
Encoding: 87 87 58
Width: 921
Flags: W
LayerCount: 2
Fore
SplineSet
491 608 m 1,0,1
 539 447 539 447 587.5 316.5 c 128,-1,2
 636 186 636 186 682 77 c 1,3,4
 717 195 717 195 751.5 355 c 128,-1,5
 786 515 786 515 818 693 c 1,6,-1
 885 693 l 1,7,8
 867 586 867 586 848.5 492.5 c 128,-1,9
 830 399 830 399 810 314.5 c 128,-1,10
 790 230 790 230 768 152.5 c 128,-1,11
 746 75 746 75 720 0 c 1,12,-1
 647 0 l 1,13,14
 623 57 623 57 599.5 114 c 128,-1,15
 576 171 576 171 553 231.5 c 128,-1,16
 530 292 530 292 507 358 c 128,-1,17
 484 424 484 424 460 498 c 1,18,19
 436 424 436 424 412.5 358 c 128,-1,20
 389 292 389 292 366 231.5 c 128,-1,21
 343 171 343 171 319.5 114 c 128,-1,22
 296 57 296 57 272 0 c 1,23,-1
 200 0 l 1,24,25
 173 75 173 75 150.5 152.5 c 128,-1,26
 128 230 128 230 108.5 314.5 c 128,-1,27
 89 399 89 399 71.5 492.5 c 128,-1,28
 54 586 54 586 36 693 c 1,29,-1
 106 693 l 1,30,31
 121 605 121 605 137 520.5 c 128,-1,32
 153 436 153 436 170.5 357 c 128,-1,33
 188 278 188 278 206.5 207.5 c 128,-1,34
 225 137 225 137 243 77 c 1,35,36
 286 188 286 188 335 317.5 c 128,-1,37
 384 447 384 447 432 608 c 1,38,-1
 491 608 l 1,0,1
EndSplineSet
EndChar

StartChar: X
Encoding: 88 88 59
Width: 608
Flags: W
LayerCount: 2
Fore
SplineSet
490 693 m 1,0,-1
 566 693 l 1,1,-1
 343 368 l 1,2,3
 408 276 408 276 470 183.5 c 128,-1,4
 532 91 532 91 578 0 c 1,5,-1
 504 0 l 1,6,7
 489 30 489 30 465.5 69 c 128,-1,8
 442 108 442 108 414.5 151 c 128,-1,9
 387 194 387 194 357.5 237 c 128,-1,10
 328 280 328 280 301 318 c 1,11,12
 274 280 274 280 244.5 237 c 128,-1,13
 215 194 215 194 187.5 151 c 128,-1,14
 160 108 160 108 136.5 69 c 128,-1,15
 113 30 113 30 98 0 c 1,16,-1
 27 0 l 1,17,18
 73 91 73 91 135 183 c 128,-1,19
 197 275 197 275 261 366 c 1,20,-1
 38 693 l 1,21,-1
 116 693 l 1,22,-1
 303 414 l 1,23,-1
 490 693 l 1,0,-1
EndSplineSet
EndChar

StartChar: Y
Encoding: 89 89 60
Width: 569
Flags: W
LayerCount: 2
Fore
SplineSet
251 0 m 1,0,-1
 251 285 l 1,1,2
 180 394 180 394 120.5 495.5 c 128,-1,3
 61 597 61 597 10 693 c 1,4,-1
 89 693 l 1,5,6
 131 605 131 605 181.5 514.5 c 128,-1,7
 232 424 232 424 287 342 c 1,8,9
 340 424 340 424 391 514.5 c 128,-1,10
 442 605 442 605 485 693 c 1,11,-1
 559 693 l 1,12,13
 506 598 506 598 447 495.5 c 128,-1,14
 388 393 388 393 319 287 c 1,15,-1
 319 0 l 1,16,-1
 251 0 l 1,0,-1
EndSplineSet
EndChar

StartChar: Z
Encoding: 90 90 61
Width: 560
Flags: W
LayerCount: 2
Fore
SplineSet
510 631 m 1,0,1
 486 603 486 603 454.5 563 c 128,-1,2
 423 523 423 523 387 475.5 c 128,-1,3
 351 428 351 428 313.5 374.5 c 128,-1,4
 276 321 276 321 239.5 266.5 c 128,-1,5
 203 212 203 212 170.5 159 c 128,-1,6
 138 106 138 106 112 59 c 1,7,-1
 520 59 l 1,8,-1
 520 0 l 1,9,-1
 38 0 l 1,10,-1
 38 51 l 1,11,12
 60 94 60 94 90.5 145.5 c 128,-1,13
 121 197 121 197 156 251.5 c 128,-1,14
 191 306 191 306 229 361 c 128,-1,15
 267 416 267 416 304 466.5 c 128,-1,16
 341 517 341 517 374.5 560 c 128,-1,17
 408 603 408 603 436 634 c 1,18,-1
 57 634 l 1,19,-1
 57 693 l 1,20,-1
 510 693 l 1,21,-1
 510 631 l 1,0,1
EndSplineSet
EndChar

StartChar: bracketleft
Encoding: 91 91 62
Width: 310
Flags: W
LayerCount: 2
Fore
SplineSet
100 783 m 1,0,-1
 302 783 l 1,1,-1
 302 733 l 1,2,-1
 162 733 l 1,3,-1
 162 -135 l 1,4,-1
 302 -135 l 1,5,-1
 302 -185 l 1,6,-1
 100 -185 l 1,7,-1
 100 783 l 1,0,-1
EndSplineSet
Substitution2: "'case' Case-Sensitive Forms lookup 18 subtable" Bracketleft
EndChar

StartChar: backslash
Encoding: 92 92 63
Width: 359
Flags: W
LayerCount: 2
Fore
SplineSet
-23 783 m 1,0,-1
 41 783 l 1,1,-1
 382 -185 l 1,2,-1
 316 -185 l 1,3,-1
 -23 783 l 1,0,-1
EndSplineSet
Substitution2: "'case' Case-Sensitive Forms lookup 18 subtable" Backslash
EndChar

StartChar: bracketright
Encoding: 93 93 64
Width: 310
Flags: W
LayerCount: 2
Fore
SplineSet
210 -185 m 1,0,-1
 8 -185 l 1,1,-1
 8 -135 l 1,2,-1
 148 -135 l 1,3,-1
 148 733 l 1,4,-1
 8 733 l 1,5,-1
 8 783 l 1,6,-1
 210 783 l 1,7,-1
 210 -185 l 1,0,-1
EndSplineSet
Substitution2: "'case' Case-Sensitive Forms lookup 18 subtable" Bracketright
EndChar

StartChar: asciicircum
Encoding: 94 94 65
Width: 564
Flags: W
LayerCount: 2
Fore
SplineSet
502 356 m 1,0,-1
 453 330 l 1,1,-1
 282 638 l 1,2,-1
 111 330 l 1,3,-1
 62 356 l 1,4,-1
 250 693 l 1,5,-1
 314 693 l 1,6,-1
 502 356 l 1,0,-1
EndSplineSet
EndChar

StartChar: underscore
Encoding: 95 95 66
Width: 490
Flags: W
LayerCount: 2
Fore
SplineSet
-5 -129 m 1,0,-1
 495 -129 l 1,1,-1
 495 -185 l 1,2,-1
 -5 -185 l 1,3,-1
 -5 -129 l 1,0,-1
EndSplineSet
EndChar

StartChar: grave
Encoding: 96 96 67
Width: 376
Flags: W
LayerCount: 2
Fore
SplineSet
106 773 m 1,0,-1
 264 621 l 1,1,-1
 231 583 l 1,2,-1
 60 722 l 1,3,-1
 106 773 l 1,0,-1
EndSplineSet
EndChar

StartChar: a
Encoding: 97 97 68
Width: 509
Flags: W
LayerCount: 2
Fore
SplineSet
249 47 m 0,0,1
 287 47 287 47 315.5 49.5 c 128,-1,2
 344 52 344 52 364 56 c 1,3,-1
 364 238 l 1,4,5
 353 243 353 243 329 248.5 c 128,-1,6
 305 254 305 254 263 254 c 0,7,8
 239 254 239 254 213 250.5 c 128,-1,9
 187 247 187 247 165 235.5 c 128,-1,10
 143 224 143 224 129 204 c 128,-1,11
 115 184 115 184 115 151 c 0,12,13
 115 122 115 122 124.5 102 c 128,-1,14
 134 82 134 82 151.5 70 c 128,-1,15
 169 58 169 58 193.5 52.5 c 128,-1,16
 218 47 218 47 249 47 c 0,0,1
243 529 m 0,17,18
 294 529 294 529 329.5 514.5 c 128,-1,19
 365 500 365 500 387 474.5 c 128,-1,20
 409 449 409 449 419 414 c 128,-1,21
 429 379 429 379 429 338 c 2,22,-1
 429 12 l 1,23,24
 419 9 419 9 400 5.5 c 128,-1,25
 381 2 381 2 356 -2 c 128,-1,26
 331 -6 331 -6 300.5 -8.5 c 128,-1,27
 270 -11 270 -11 238 -11 c 0,28,29
 197 -11 197 -11 162.5 -2 c 128,-1,30
 128 7 128 7 102.5 26.5 c 128,-1,31
 77 46 77 46 62.5 76.5 c 128,-1,32
 48 107 48 107 48 151 c 0,33,34
 48 193 48 193 64 223 c 128,-1,35
 80 253 80 253 109 272.5 c 128,-1,36
 138 292 138 292 178 301 c 128,-1,37
 218 310 218 310 265 310 c 0,38,39
 279 310 279 310 294.5 308.5 c 128,-1,40
 310 307 310 307 324.5 304.5 c 128,-1,41
 339 302 339 302 349.5 299.5 c 128,-1,42
 360 297 360 297 364 295 c 1,43,-1
 364 327 l 2,44,45
 364 354 364 354 360 379.5 c 128,-1,46
 356 405 356 405 342.5 425.5 c 128,-1,47
 329 446 329 446 304.5 458.5 c 128,-1,48
 280 471 280 471 240 471 c 0,49,50
 183 471 183 471 155 463 c 128,-1,51
 127 455 127 455 114 450 c 1,52,-1
 105 507 l 1,53,54
 122 515 122 515 157.5 522 c 128,-1,55
 193 529 193 529 243 529 c 0,17,18
EndSplineSet
Substitution2: "'case' Case-Sensitive Forms lookup 19 subtable" A
Substitution2: "'ordn' Ordinals in Latin lookup 9 subtable" ordfeminine
EndChar

StartChar: b
Encoding: 98 98 69
Width: 583
Flags: W
LayerCount: 2
Fore
SplineSet
151 486 m 1,0,1
 168 499 168 499 205.5 513.5 c 128,-1,2
 243 528 243 528 294 528 c 0,3,4
 350 528 350 528 393.5 508 c 128,-1,5
 437 488 437 488 467 452 c 128,-1,6
 497 416 497 416 512.5 366.5 c 128,-1,7
 528 317 528 317 528 258 c 0,8,9
 528 195 528 195 509.5 145 c 128,-1,10
 491 95 491 95 457.5 60 c 128,-1,11
 424 25 424 25 377.5 6.5 c 128,-1,12
 331 -12 331 -12 274 -12 c 0,13,14
 205 -12 205 -12 160 -3 c 128,-1,15
 115 6 115 6 86 16 c 1,16,-1
 86 764 l 1,17,-1
 151 776 l 1,18,-1
 151 486 l 1,0,1
151 61 m 1,19,20
 166 56 166 56 195.5 51.5 c 128,-1,21
 225 47 225 47 273 47 c 0,22,23
 357 47 357 47 408 101.5 c 128,-1,24
 459 156 459 156 459 258 c 0,25,26
 459 301 459 301 450 339.5 c 128,-1,27
 441 378 441 378 421 406.5 c 128,-1,28
 401 435 401 435 368.5 452 c 128,-1,29
 336 469 336 469 288 469 c 0,30,31
 265 469 265 469 244 464.5 c 128,-1,32
 223 460 223 460 205 453 c 128,-1,33
 187 446 187 446 173.5 438 c 128,-1,34
 160 430 160 430 151 423 c 1,35,-1
 151 61 l 1,19,20
EndSplineSet
Substitution2: "'case' Case-Sensitive Forms lookup 19 subtable" B
EndChar

StartChar: c
Encoding: 99 99 70
Width: 460
Flags: W
LayerCount: 2
Fore
SplineSet
300 -11 m 0,0,1
 240 -11 240 -11 194 8 c 128,-1,2
 148 27 148 27 117.5 62.5 c 128,-1,3
 87 98 87 98 71 147.5 c 128,-1,4
 55 197 55 197 55 257 c 0,5,6
 55 318 55 318 71.5 368 c 128,-1,7
 88 418 88 418 119 454 c 128,-1,8
 150 490 150 490 194 509.5 c 128,-1,9
 238 529 238 529 293 529 c 0,10,11
 335 529 335 529 371.5 522 c 128,-1,12
 408 515 408 515 428 504 c 1,13,-1
 411 448 l 1,14,15
 391 458 391 458 366 464 c 128,-1,16
 341 470 341 470 299 470 c 0,17,18
 213 470 213 470 168.5 414.5 c 128,-1,19
 124 359 124 359 124 257 c 0,20,21
 124 211 124 211 134 172.5 c 128,-1,22
 144 134 144 134 166.5 106.5 c 128,-1,23
 189 79 189 79 224.5 63.5 c 128,-1,24
 260 48 260 48 311 48 c 0,25,26
 353 48 353 48 381.5 57.5 c 128,-1,27
 410 67 410 67 423 74 c 1,28,-1
 437 18 l 1,29,30
 419 8 419 8 380.5 -1.5 c 128,-1,31
 342 -11 342 -11 300 -11 c 0,0,1
EndSplineSet
Substitution2: "'case' Case-Sensitive Forms lookup 19 subtable" C
EndChar

StartChar: d
Encoding: 100 100 71
Width: 583
Flags: W
LayerCount: 2
Fore
SplineSet
497 16 m 1,0,1
 468 6 468 6 423 -3 c 128,-1,2
 378 -12 378 -12 309 -12 c 0,3,4
 252 -12 252 -12 205.5 6.5 c 128,-1,5
 159 25 159 25 125.5 60 c 128,-1,6
 92 95 92 95 73.5 145 c 128,-1,7
 55 195 55 195 55 258 c 0,8,9
 55 317 55 317 70.5 366.5 c 128,-1,10
 86 416 86 416 116 452 c 128,-1,11
 146 488 146 488 189.5 508 c 128,-1,12
 233 528 233 528 289 528 c 0,13,14
 340 528 340 528 377.5 513.5 c 128,-1,15
 415 499 415 499 432 486 c 1,16,-1
 432 764 l 1,17,-1
 497 776 l 1,18,-1
 497 16 l 1,0,1
432 423 m 1,19,20
 423 430 423 430 409.5 438 c 128,-1,21
 396 446 396 446 378 453 c 128,-1,22
 360 460 360 460 339 464.5 c 128,-1,23
 318 469 318 469 295 469 c 0,24,25
 247 469 247 469 214.5 452 c 128,-1,26
 182 435 182 435 162 406.5 c 128,-1,27
 142 378 142 378 133 339.5 c 128,-1,28
 124 301 124 301 124 258 c 0,29,30
 124 156 124 156 175 101.5 c 128,-1,31
 226 47 226 47 310 47 c 0,32,33
 358 47 358 47 387.5 51.5 c 128,-1,34
 417 56 417 56 432 61 c 1,35,-1
 432 423 l 1,19,20
EndSplineSet
Substitution2: "'case' Case-Sensitive Forms lookup 19 subtable" D
EndChar

StartChar: e
Encoding: 101 101 72
Width: 548
Flags: W
LayerCount: 2
Fore
SplineSet
55 259 m 0,0,1
 55 327 55 327 74.5 377.5 c 128,-1,2
 94 428 94 428 125.5 462 c 128,-1,3
 157 496 157 496 197.5 512.5 c 128,-1,4
 238 529 238 529 281 529 c 0,5,6
 376 529 376 529 432.5 467 c 128,-1,7
 489 405 489 405 489 276 c 0,8,9
 489 268 489 268 488.5 260 c 128,-1,10
 488 252 488 252 487 245 c 1,11,-1
 124 245 l 1,12,13
 127 150 127 150 171 99 c 128,-1,14
 215 48 215 48 311 48 c 0,15,16
 364 48 364 48 395 58 c 128,-1,17
 426 68 426 68 440 75 c 1,18,-1
 452 19 l 1,19,20
 438 11 438 11 399.5 0 c 128,-1,21
 361 -11 361 -11 309 -11 c 0,22,23
 241 -11 241 -11 193 9 c 128,-1,24
 145 29 145 29 114 65 c 128,-1,25
 83 101 83 101 69 150.5 c 128,-1,26
 55 200 55 200 55 259 c 0,0,1
422 300 m 1,27,28
 420 381 420 381 384 426 c 128,-1,29
 348 471 348 471 282 471 c 0,30,31
 247 471 247 471 219.5 457 c 128,-1,32
 192 443 192 443 171.5 419.5 c 128,-1,33
 151 396 151 396 139.5 365 c 128,-1,34
 128 334 128 334 126 300 c 1,35,-1
 422 300 l 1,27,28
EndSplineSet
Substitution2: "'case' Case-Sensitive Forms lookup 19 subtable" E
EndChar

StartChar: f
Encoding: 102 102 73
Width: 376
Flags: W
LayerCount: 2
Fore
SplineSet
276 776 m 0,0,1
 318 776 318 776 344.5 769.5 c 128,-1,2
 371 763 371 763 379 758 c 1,3,-1
 366 702 l 1,4,5
 355 707 355 707 333.5 712.5 c 128,-1,6
 312 718 312 718 279 718 c 0,7,8
 210 718 210 718 180.5 683 c 128,-1,9
 151 648 151 648 151 571 c 2,10,-1
 151 517 l 1,11,-1
 359 517 l 1,12,-1
 359 462 l 1,13,-1
 151 462 l 1,14,-1
 151 0 l 1,15,-1
 86 0 l 1,16,-1
 86 573 l 2,17,18
 86 674 86 674 132.5 725 c 128,-1,19
 179 776 179 776 276 776 c 0,0,1
EndSplineSet
Substitution2: "'case' Case-Sensitive Forms lookup 19 subtable" F
EndChar

StartChar: g
Encoding: 103 103 74
Width: 573
Flags: W
LayerCount: 2
Fore
SplineSet
423 60 m 1,0,1
 417 55 417 55 405 48.5 c 128,-1,2
 393 42 393 42 375.5 35 c 128,-1,3
 358 28 358 28 335.5 23.5 c 128,-1,4
 313 19 313 19 285 19 c 0,5,6
 240 19 240 19 198 33 c 128,-1,7
 156 47 156 47 124.5 77 c 128,-1,8
 93 107 93 107 74 154.5 c 128,-1,9
 55 202 55 202 55 270 c 0,10,11
 55 325 55 325 72 372 c 128,-1,12
 89 419 89 419 120.5 453.5 c 128,-1,13
 152 488 152 488 197.5 507.5 c 128,-1,14
 243 527 243 527 300 527 c 0,15,16
 372 527 372 527 415.5 517.5 c 128,-1,17
 459 508 459 508 487 499 c 1,18,-1
 487 27 l 2,19,20
 487 -89 487 -89 427 -138.5 c 128,-1,21
 367 -188 367 -188 246 -188 c 0,22,23
 196 -188 196 -188 155.5 -180.5 c 128,-1,24
 115 -173 115 -173 86 -163 c 1,25,-1
 99 -104 l 1,26,27
 123 -115 123 -115 164.5 -123 c 128,-1,28
 206 -131 206 -131 248 -131 c 0,29,30
 340 -131 340 -131 381.5 -95.5 c 128,-1,31
 423 -60 423 -60 423 26 c 2,32,-1
 423 60 l 1,0,1
422 454 m 1,33,34
 405 459 405 459 378 463.5 c 128,-1,35
 351 468 351 468 301 468 c 0,36,37
 259 468 259 468 226.5 453.5 c 128,-1,38
 194 439 194 439 171 412.5 c 128,-1,39
 148 386 148 386 136 349.5 c 128,-1,40
 124 313 124 313 124 269 c 0,41,42
 124 218 124 218 138 181.5 c 128,-1,43
 152 145 152 145 174.5 122 c 128,-1,44
 197 99 197 99 226 88.5 c 128,-1,45
 255 78 255 78 285 78 c 0,46,47
 329 78 329 78 365.5 91 c 128,-1,48
 402 104 402 104 422 121 c 1,49,-1
 422 454 l 1,33,34
EndSplineSet
Substitution2: "'case' Case-Sensitive Forms lookup 19 subtable" G
EndChar

StartChar: h
Encoding: 104 104 75
Width: 569
Flags: W
LayerCount: 2
Fore
SplineSet
86 0 m 1,0,-1
 86 764 l 1,1,-1
 151 776 l 1,2,-1
 151 502 l 1,3,4
 183 514 183 514 216 520.5 c 128,-1,5
 249 527 249 527 282 527 c 0,6,7
 342 527 342 527 382 510 c 128,-1,8
 422 493 422 493 446 461.5 c 128,-1,9
 470 430 470 430 479.5 386 c 128,-1,10
 489 342 489 342 489 289 c 2,11,-1
 489 0 l 1,12,-1
 424 0 l 1,13,-1
 424 268 l 2,14,15
 424 323 424 323 416.5 361 c 128,-1,16
 409 399 409 399 391.5 423 c 128,-1,17
 374 447 374 447 345 457.5 c 128,-1,18
 316 468 316 468 272 468 c 0,19,20
 255 468 255 468 235.5 465 c 128,-1,21
 216 462 216 462 199 458.5 c 128,-1,22
 182 455 182 455 168.5 451 c 128,-1,23
 155 447 155 447 151 445 c 1,24,-1
 151 0 l 1,25,-1
 86 0 l 1,0,-1
EndSplineSet
Substitution2: "'case' Case-Sensitive Forms lookup 19 subtable" H
EndChar

StartChar: i
Encoding: 105 105 76
Width: 237
Flags: W
LayerCount: 2
Fore
SplineSet
151 0 m 1,0,-1
 86 0 l 1,1,-1
 86 517 l 1,2,-1
 151 517 l 1,3,-1
 151 0 l 1,0,-1
166 673 m 256,4,5
 166 650 166 650 152 636.5 c 128,-1,6
 138 623 138 623 118 623 c 256,7,8
 98 623 98 623 84 636.5 c 128,-1,9
 70 650 70 650 70 673 c 256,10,11
 70 696 70 696 84 709.5 c 128,-1,12
 98 723 98 723 118 723 c 256,13,14
 138 723 138 723 152 709.5 c 128,-1,15
 166 696 166 696 166 673 c 256,4,5
EndSplineSet
Substitution2: "'case' Case-Sensitive Forms lookup 19 subtable" I
Substitution2: "'locl' Localized Forms in Latin lookup 2 subtable" i.locl
Substitution2: "'locl' Localized Forms in Latin lookup 1 subtable" i.locl
Substitution2: "'locl' Localized Forms in Latin lookup 0 subtable" i.locl
EndChar

StartChar: j
Encoding: 106 106 77
Width: 237
Flags: W
LayerCount: 2
Fore
SplineSet
-11 -187 m 0,0,1
 -22 -187 -22 -187 -38.5 -184 c 128,-1,2
 -55 -181 -55 -181 -63 -177 c 1,3,-1
 -54 -124 l 1,4,5
 -47 -126 -47 -126 -35 -128 c 128,-1,6
 -23 -130 -23 -130 -12 -130 c 0,7,8
 47 -130 47 -130 66.5 -97 c 128,-1,9
 86 -64 86 -64 86 2 c 2,10,-1
 86 517 l 1,11,-1
 151 517 l 1,12,-1
 151 5 l 2,13,14
 151 -93 151 -93 114 -140 c 128,-1,15
 77 -187 77 -187 -11 -187 c 0,0,1
166 673 m 256,16,17
 166 650 166 650 152 636.5 c 128,-1,18
 138 623 138 623 118 623 c 256,19,20
 98 623 98 623 84 636.5 c 128,-1,21
 70 650 70 650 70 673 c 256,22,23
 70 696 70 696 84 709.5 c 128,-1,24
 98 723 98 723 118 723 c 256,25,26
 138 723 138 723 152 709.5 c 128,-1,27
 166 696 166 696 166 673 c 256,16,17
EndSplineSet
Substitution2: "'case' Case-Sensitive Forms lookup 19 subtable" J
EndChar

StartChar: k
Encoding: 107 107 78
Width: 495
Flags: W
LayerCount: 2
Fore
SplineSet
224 281 m 1,0,1
 255 260 255 260 290.5 227 c 128,-1,2
 326 194 326 194 360.5 155.5 c 128,-1,3
 395 117 395 117 425.5 76.5 c 128,-1,4
 456 36 456 36 477 0 c 1,5,-1
 400 0 l 1,6,7
 376 40 376 40 345.5 78.5 c 128,-1,8
 315 117 315 117 281.5 151 c 128,-1,9
 248 185 248 185 214.5 213 c 128,-1,10
 181 241 181 241 151 260 c 1,11,-1
 151 0 l 1,12,-1
 86 0 l 1,13,-1
 86 764 l 1,14,-1
 151 776 l 1,15,-1
 151 284 l 1,16,17
 176 308 176 308 207 339 c 128,-1,18
 238 370 238 370 269.5 402 c 128,-1,19
 301 434 301 434 329 464 c 128,-1,20
 357 494 357 494 377 517 c 1,21,-1
 455 517 l 1,22,23
 432 493 432 493 403 463 c 128,-1,24
 374 433 374 433 342.5 400.5 c 128,-1,25
 311 368 311 368 280 337 c 128,-1,26
 249 306 249 306 224 281 c 1,0,1
EndSplineSet
Substitution2: "'case' Case-Sensitive Forms lookup 19 subtable" K
EndChar

StartChar: l
Encoding: 108 108 79
Width: 255
Flags: W
LayerCount: 2
Fore
SplineSet
217 -9 m 1,0,1
 184 -8 184 -8 159.5 -0.5 c 128,-1,2
 135 7 135 7 118.5 22.5 c 128,-1,3
 102 38 102 38 93.5 62.5 c 128,-1,4
 85 87 85 87 85 124 c 2,5,-1
 85 764 l 1,6,-1
 150 776 l 1,7,-1
 150 126 l 2,8,9
 150 102 150 102 154.5 87.5 c 128,-1,10
 159 73 159 73 168 64.5 c 128,-1,11
 177 56 177 56 191.5 52 c 128,-1,12
 206 48 206 48 226 45 c 1,13,-1
 217 -9 l 1,0,1
EndSplineSet
Substitution2: "'case' Case-Sensitive Forms lookup 19 subtable" L
EndChar

StartChar: m
Encoding: 109 109 80
Width: 863
Flags: W
LayerCount: 2
Fore
SplineSet
86 499 m 1,0,1
 115 507 115 507 161.5 517 c 128,-1,2
 208 527 208 527 282 527 c 0,3,4
 380 527 380 527 424 470 c 1,5,6
 429 474 429 474 443.5 483.5 c 128,-1,7
 458 493 458 493 480 503 c 128,-1,8
 502 513 502 513 531.5 520 c 128,-1,9
 561 527 561 527 597 527 c 0,10,11
 656 527 656 527 692.5 509.5 c 128,-1,12
 729 492 729 492 749 460.5 c 128,-1,13
 769 429 769 429 776 385 c 128,-1,14
 783 341 783 341 783 289 c 2,15,-1
 783 0 l 1,16,-1
 718 0 l 1,17,-1
 718 268 l 2,18,19
 718 319 718 319 713.5 356.5 c 128,-1,20
 709 394 709 394 695.5 418.5 c 128,-1,21
 682 443 682 443 657 455.5 c 128,-1,22
 632 468 632 468 592 468 c 0,23,24
 562 468 562 468 537.5 462.5 c 128,-1,25
 513 457 513 457 495 449 c 128,-1,26
 477 441 477 441 465.5 433 c 128,-1,27
 454 425 454 425 449 421 c 1,28,29
 458 395 458 395 462.5 362.5 c 128,-1,30
 467 330 467 330 467 294 c 2,31,-1
 467 0 l 1,32,-1
 402 0 l 1,33,-1
 402 268 l 2,34,35
 402 319 402 319 397.5 356.5 c 128,-1,36
 393 394 393 394 379 418.5 c 128,-1,37
 365 443 365 443 339.5 455.5 c 128,-1,38
 314 468 314 468 272 468 c 0,39,40
 225 468 225 468 192.5 463 c 128,-1,41
 160 458 160 458 151 454 c 1,42,-1
 151 0 l 1,43,-1
 86 0 l 1,44,-1
 86 499 l 1,0,1
EndSplineSet
Substitution2: "'case' Case-Sensitive Forms lookup 19 subtable" M
EndChar

StartChar: n
Encoding: 110 110 81
Width: 569
Flags: W
LayerCount: 2
Fore
SplineSet
86 499 m 1,0,1
 115 507 115 507 164 517 c 128,-1,2
 213 527 213 527 284 527 c 0,3,4
 343 527 343 527 382.5 510 c 128,-1,5
 422 493 422 493 445.5 461.5 c 128,-1,6
 469 430 469 430 479 386 c 128,-1,7
 489 342 489 342 489 289 c 2,8,-1
 489 0 l 1,9,-1
 424 0 l 1,10,-1
 424 268 l 2,11,12
 424 323 424 323 416.5 361 c 128,-1,13
 409 399 409 399 391.5 423 c 128,-1,14
 374 447 374 447 345.5 457.5 c 128,-1,15
 317 468 317 468 274 468 c 0,16,17
 228 468 228 468 194.5 463 c 128,-1,18
 161 458 161 458 151 454 c 1,19,-1
 151 0 l 1,20,-1
 86 0 l 1,21,-1
 86 499 l 1,0,1
EndSplineSet
Substitution2: "'case' Case-Sensitive Forms lookup 19 subtable" N
EndChar

StartChar: o
Encoding: 111 111 82
Width: 582
Flags: W
LayerCount: 2
Fore
SplineSet
527 258 m 256,0,1
 527 197 527 197 509.5 147 c 128,-1,2
 492 97 492 97 460.5 62 c 128,-1,3
 429 27 429 27 386 7.5 c 128,-1,4
 343 -12 343 -12 291 -12 c 256,5,6
 239 -12 239 -12 196 7.5 c 128,-1,7
 153 27 153 27 121.5 62 c 128,-1,8
 90 97 90 97 72.5 147 c 128,-1,9
 55 197 55 197 55 258 c 256,10,11
 55 319 55 319 72.5 369 c 128,-1,12
 90 419 90 419 121.5 454.5 c 128,-1,13
 153 490 153 490 196 509.5 c 128,-1,14
 239 529 239 529 291 529 c 256,15,16
 343 529 343 529 386 509.5 c 128,-1,17
 429 490 429 490 460.5 454.5 c 128,-1,18
 492 419 492 419 509.5 369 c 128,-1,19
 527 319 527 319 527 258 c 256,0,1
458 258 m 256,20,21
 458 355 458 355 413 412.5 c 128,-1,22
 368 470 368 470 291 470 c 256,23,24
 214 470 214 470 169 412.5 c 128,-1,25
 124 355 124 355 124 258 c 256,26,27
 124 161 124 161 169 104 c 128,-1,28
 214 47 214 47 291 47 c 256,29,30
 368 47 368 47 413 104 c 128,-1,31
 458 161 458 161 458 258 c 256,20,21
EndSplineSet
Substitution2: "'case' Case-Sensitive Forms lookup 19 subtable" O
Substitution2: "'ordn' Ordinals in Latin lookup 9 subtable" ordmasculine
EndChar

StartChar: p
Encoding: 112 112 83
Width: 583
Flags: W
LayerCount: 2
Fore
SplineSet
151 93 m 1,0,1
 160 86 160 86 173.5 78 c 128,-1,2
 187 70 187 70 205 63 c 128,-1,3
 223 56 223 56 244 51.5 c 128,-1,4
 265 47 265 47 288 47 c 0,5,6
 336 47 336 47 368.5 63.5 c 128,-1,7
 401 80 401 80 421 108.5 c 128,-1,8
 441 137 441 137 450 175.5 c 128,-1,9
 459 214 459 214 459 257 c 0,10,11
 459 359 459 359 408 413.5 c 128,-1,12
 357 468 357 468 273 468 c 0,13,14
 225 468 225 468 195.5 463.5 c 128,-1,15
 166 459 166 459 151 454 c 1,16,-1
 151 93 l 1,0,1
151 -185 m 1,17,-1
 86 -185 l 1,18,-1
 86 499 l 1,19,20
 115 509 115 509 160 518 c 128,-1,21
 205 527 205 527 274 527 c 0,22,23
 331 527 331 527 377.5 508.5 c 128,-1,24
 424 490 424 490 457.5 455 c 128,-1,25
 491 420 491 420 509.5 370 c 128,-1,26
 528 320 528 320 528 257 c 0,27,28
 528 198 528 198 512.5 148.5 c 128,-1,29
 497 99 497 99 467 63.5 c 128,-1,30
 437 28 437 28 393.5 8 c 128,-1,31
 350 -12 350 -12 294 -12 c 0,32,33
 243 -12 243 -12 205.5 2.5 c 128,-1,34
 168 17 168 17 151 30 c 1,35,-1
 151 -185 l 1,17,-1
EndSplineSet
Substitution2: "'case' Case-Sensitive Forms lookup 19 subtable" P
EndChar

StartChar: q
Encoding: 113 113 84
Width: 583
Flags: W
LayerCount: 2
Fore
SplineSet
432 454 m 1,0,1
 417 459 417 459 387.5 463.5 c 128,-1,2
 358 468 358 468 310 468 c 0,3,4
 226 468 226 468 175 413.5 c 128,-1,5
 124 359 124 359 124 257 c 0,6,7
 124 214 124 214 133 175.5 c 128,-1,8
 142 137 142 137 162 108.5 c 128,-1,9
 182 80 182 80 214.5 63.5 c 128,-1,10
 247 47 247 47 295 47 c 0,11,12
 318 47 318 47 339 51.5 c 128,-1,13
 360 56 360 56 378 63 c 128,-1,14
 396 70 396 70 409.5 78 c 128,-1,15
 423 86 423 86 432 93 c 1,16,-1
 432 454 l 1,0,1
432 30 m 1,17,18
 415 17 415 17 377.5 2.5 c 128,-1,19
 340 -12 340 -12 289 -12 c 0,20,21
 233 -12 233 -12 189.5 8 c 128,-1,22
 146 28 146 28 116 63.5 c 128,-1,23
 86 99 86 99 70.5 148.5 c 128,-1,24
 55 198 55 198 55 257 c 0,25,26
 55 320 55 320 73.5 370 c 128,-1,27
 92 420 92 420 125.5 455 c 128,-1,28
 159 490 159 490 205.5 508.5 c 128,-1,29
 252 527 252 527 309 527 c 0,30,31
 378 527 378 527 423 518 c 128,-1,32
 468 509 468 509 497 499 c 1,33,-1
 497 -185 l 1,34,-1
 432 -185 l 1,35,-1
 432 30 l 1,17,18
EndSplineSet
Substitution2: "'case' Case-Sensitive Forms lookup 19 subtable" Q
EndChar

StartChar: r
Encoding: 114 114 85
Width: 374
Flags: W
LayerCount: 2
Fore
SplineSet
262 527 m 0,0,1
 294 527 294 527 322.5 522 c 128,-1,2
 351 517 351 517 362 512 c 1,3,-1
 349 456 l 1,4,5
 341 460 341 460 316.5 464.5 c 128,-1,6
 292 469 292 469 252 469 c 0,7,8
 210 469 210 469 184.5 463 c 128,-1,9
 159 457 159 457 151 453 c 1,10,-1
 151 0 l 1,11,-1
 86 0 l 1,12,-1
 86 493 l 1,13,14
 111 504 111 504 155 515.5 c 128,-1,15
 199 527 199 527 262 527 c 0,0,1
EndSplineSet
Substitution2: "'case' Case-Sensitive Forms lookup 19 subtable" R
EndChar

StartChar: s
Encoding: 115 115 86
Width: 428
Flags: W
LayerCount: 2
Fore
SplineSet
192 46 m 0,0,1
 248 46 248 46 284.5 64.5 c 128,-1,2
 321 83 321 83 321 127 c 0,3,4
 321 148 321 148 314.5 163 c 128,-1,5
 308 178 308 178 293 190 c 128,-1,6
 278 202 278 202 253.5 213 c 128,-1,7
 229 224 229 224 193 239 c 0,8,9
 164 251 164 251 138 263.5 c 128,-1,10
 112 276 112 276 92 292.5 c 128,-1,11
 72 309 72 309 60 332 c 128,-1,12
 48 355 48 355 48 388 c 0,13,14
 48 451 48 451 95.5 490 c 128,-1,15
 143 529 143 529 226 529 c 0,16,17
 279 529 279 529 313.5 520 c 128,-1,18
 348 511 348 511 362 504 c 1,19,-1
 347 446 l 1,20,21
 335 452 335 452 306.5 462 c 128,-1,22
 278 472 278 472 223 472 c 0,23,24
 201 472 201 472 181.5 467.5 c 128,-1,25
 162 463 162 463 147 453.5 c 128,-1,26
 132 444 132 444 123 429.5 c 128,-1,27
 114 415 114 415 114 394 c 256,28,29
 114 373 114 373 122 358 c 128,-1,30
 130 343 130 343 145.5 331.5 c 128,-1,31
 161 320 161 320 183.5 310 c 128,-1,32
 206 300 206 300 235 288 c 0,33,34
 265 276 265 276 292.5 263.5 c 128,-1,35
 320 251 320 251 341 233.5 c 128,-1,36
 362 216 362 216 375 191.5 c 128,-1,37
 388 167 388 167 388 130 c 0,38,39
 388 60 388 60 335.5 24 c 128,-1,40
 283 -12 283 -12 192 -12 c 0,41,42
 124 -12 124 -12 88 -0.5 c 128,-1,43
 52 11 52 11 40 17 c 1,44,-1
 57 76 l 2,45,46
 60 74 60 74 70 69.5 c 128,-1,47
 80 65 80 65 97 59.5 c 128,-1,48
 114 54 114 54 137.5 50 c 128,-1,49
 161 46 161 46 192 46 c 0,0,1
EndSplineSet
Substitution2: "'case' Case-Sensitive Forms lookup 19 subtable" S
EndChar

StartChar: t
Encoding: 116 116 87
Width: 387
Flags: W
LayerCount: 2
Fore
SplineSet
147 517 m 1,0,-1
 353 517 l 1,1,-1
 353 462 l 1,2,-1
 147 462 l 1,3,-1
 147 187 l 2,4,5
 147 143 147 143 154.5 115.5 c 128,-1,6
 162 88 162 88 176 73 c 128,-1,7
 190 58 190 58 210 53 c 128,-1,8
 230 48 230 48 254 48 c 0,9,10
 295 48 295 48 320 57.5 c 128,-1,11
 345 67 345 67 359 75 c 1,12,-1
 375 21 l 1,13,14
 361 12 361 12 326 0.5 c 128,-1,15
 291 -11 291 -11 250 -11 c 0,16,17
 202 -11 202 -11 169.5 1.5 c 128,-1,18
 137 14 137 14 117.5 39.5 c 128,-1,19
 98 65 98 65 90 103 c 128,-1,20
 82 141 82 141 82 193 c 2,21,-1
 82 669 l 1,22,-1
 147 681 l 1,23,-1
 147 517 l 1,0,-1
EndSplineSet
Substitution2: "'case' Case-Sensitive Forms lookup 19 subtable" T
EndChar

StartChar: u
Encoding: 117 117 88
Width: 569
Flags: W
LayerCount: 2
Fore
SplineSet
483 18 m 1,0,1
 454 10 454 10 405 0 c 128,-1,2
 356 -10 356 -10 285 -10 c 0,3,4
 227 -10 227 -10 188 7 c 128,-1,5
 149 24 149 24 125 55 c 128,-1,6
 101 86 101 86 90.5 130 c 128,-1,7
 80 174 80 174 80 227 c 2,8,-1
 80 517 l 1,9,-1
 145 517 l 1,10,-1
 145 248 l 2,11,12
 145 193 145 193 153 155 c 128,-1,13
 161 117 161 117 179 93.5 c 128,-1,14
 197 70 197 70 225.5 59.5 c 128,-1,15
 254 49 254 49 295 49 c 0,16,17
 341 49 341 49 375 54 c 128,-1,18
 409 59 409 59 418 63 c 1,19,-1
 418 517 l 1,20,-1
 483 517 l 1,21,-1
 483 18 l 1,0,1
EndSplineSet
Substitution2: "'case' Case-Sensitive Forms lookup 19 subtable" U
EndChar

StartChar: v
Encoding: 118 118 89
Width: 480
Flags: W
LayerCount: 2
Fore
SplineSet
242 70 m 1,0,1
 263 113 263 113 285 168.5 c 128,-1,2
 307 224 307 224 327.5 283.5 c 128,-1,3
 348 343 348 343 365.5 403.5 c 128,-1,4
 383 464 383 464 395 517 c 1,5,-1
 460 517 l 1,6,7
 442 446 442 446 420 377 c 128,-1,8
 398 308 398 308 373.5 242 c 128,-1,9
 349 176 349 176 322.5 115 c 128,-1,10
 296 54 296 54 271 0 c 1,11,-1
 209 0 l 1,12,13
 183 54 183 54 157 115 c 128,-1,14
 131 176 131 176 106.5 242 c 128,-1,15
 82 308 82 308 60 377 c 128,-1,16
 38 446 38 446 20 517 c 1,17,-1
 89 517 l 1,18,19
 101 464 101 464 118.5 403.5 c 128,-1,20
 136 343 136 343 156.5 283.5 c 128,-1,21
 177 224 177 224 199 168.5 c 128,-1,22
 221 113 221 113 242 70 c 1,0,1
EndSplineSet
Substitution2: "'case' Case-Sensitive Forms lookup 19 subtable" V
EndChar

StartChar: w
Encoding: 119 119 90
Width: 775
Flags: W
LayerCount: 2
Fore
SplineSet
419 517 m 1,0,1
 428 467 428 467 442.5 410.5 c 128,-1,2
 457 354 457 354 474.5 295.5 c 128,-1,3
 492 237 492 237 511.5 180 c 128,-1,4
 531 123 531 123 551 73 c 1,5,6
 568 111 568 111 587 165.5 c 128,-1,7
 606 220 606 220 625 280.5 c 128,-1,8
 644 341 644 341 660.5 402.5 c 128,-1,9
 677 464 677 464 688 517 c 1,10,-1
 752 517 l 1,11,12
 716 365 716 365 673.5 239 c 128,-1,13
 631 113 631 113 580 0 c 1,14,-1
 519 0 l 1,15,16
 504 35 504 35 487.5 78.5 c 128,-1,17
 471 122 471 122 453.5 171.5 c 128,-1,18
 436 221 436 221 419.5 275.5 c 128,-1,19
 403 330 403 330 388 387 c 1,20,21
 373 330 373 330 356.5 275.5 c 128,-1,22
 340 221 340 221 322.5 171.5 c 128,-1,23
 305 122 305 122 288.5 78.5 c 128,-1,24
 272 35 272 35 257 0 c 1,25,-1
 195 0 l 1,26,27
 144 113 144 113 101.5 239 c 128,-1,28
 59 365 59 365 23 517 c 1,29,-1
 92 517 l 1,30,31
 103 464 103 464 119.5 402.5 c 128,-1,32
 136 341 136 341 155 280.5 c 128,-1,33
 174 220 174 220 193.5 166 c 128,-1,34
 213 112 213 112 230 74 c 1,35,36
 249 124 249 124 268.5 181 c 128,-1,37
 288 238 288 238 305 296 c 128,-1,38
 322 354 322 354 337 410.5 c 128,-1,39
 352 467 352 467 363 517 c 1,40,-1
 419 517 l 1,0,1
EndSplineSet
Substitution2: "'case' Case-Sensitive Forms lookup 19 subtable" W
EndChar

StartChar: x
Encoding: 120 120 91
Width: 499
Flags: W
LayerCount: 2
Fore
SplineSet
248 234 m 1,0,1
 226 205 226 205 204 173 c 128,-1,2
 182 141 182 141 161.5 110 c 128,-1,3
 141 79 141 79 124 50.5 c 128,-1,4
 107 22 107 22 95 0 c 1,5,-1
 28 0 l 1,6,7
 69 77 69 77 114 143.5 c 128,-1,8
 159 210 159 210 206 274 c 1,9,-1
 38 517 l 1,10,-1
 114 517 l 1,11,-1
 248 319 l 1,12,-1
 384 517 l 1,13,-1
 455 517 l 1,14,-1
 290 278 l 1,15,16
 311 250 311 250 335 217 c 128,-1,17
 359 184 359 184 383 148.5 c 128,-1,18
 407 113 407 113 429.5 75 c 128,-1,19
 452 37 452 37 471 0 c 1,20,-1
 401 0 l 1,21,22
 389 22 389 22 372 50.5 c 128,-1,23
 355 79 355 79 334.5 110 c 128,-1,24
 314 141 314 141 291.5 173 c 128,-1,25
 269 205 269 205 248 234 c 1,0,1
EndSplineSet
Substitution2: "'case' Case-Sensitive Forms lookup 19 subtable" X
EndChar

StartChar: y
Encoding: 121 121 92
Width: 474
Flags: W
LayerCount: 2
Fore
SplineSet
227 -11 m 1,0,1
 194 50 194 50 163.5 116 c 128,-1,2
 133 182 133 182 106.5 249.5 c 128,-1,3
 80 317 80 317 58 384.5 c 128,-1,4
 36 452 36 452 20 517 c 1,5,-1
 89 517 l 1,6,7
 100 469 100 469 117 413.5 c 128,-1,8
 134 358 134 358 155.5 299 c 128,-1,9
 177 240 177 240 203 178 c 128,-1,10
 229 116 229 116 259 56 c 1,11,12
 281 118 281 118 298 173 c 128,-1,13
 315 228 315 228 329.5 282.5 c 128,-1,14
 344 337 344 337 357.5 394 c 128,-1,15
 371 451 371 451 386 517 c 1,16,-1
 451 517 l 1,17,18
 419 372 419 372 378 235 c 128,-1,19
 337 98 337 98 289 -16 c 0,20,21
 270 -61 270 -61 250 -93.5 c 128,-1,22
 230 -126 230 -126 205.5 -147 c 128,-1,23
 181 -168 181 -168 148.5 -178 c 128,-1,24
 116 -188 116 -188 72 -188 c 0,25,26
 47 -188 47 -188 26.5 -182 c 128,-1,27
 6 -176 6 -176 1 -173 c 1,28,-1
 14 -119 l 1,29,30
 18 -122 18 -122 36.5 -127.5 c 128,-1,31
 55 -133 55 -133 75 -133 c 0,32,33
 103 -133 103 -133 125.5 -127 c 128,-1,34
 148 -121 148 -121 166 -106.5 c 128,-1,35
 184 -92 184 -92 198.5 -69 c 128,-1,36
 213 -46 213 -46 227 -11 c 1,0,1
EndSplineSet
Substitution2: "'case' Case-Sensitive Forms lookup 19 subtable" Y
EndChar

StartChar: z
Encoding: 122 122 93
Width: 455
Flags: W
LayerCount: 2
Fore
SplineSet
407 464 m 1,0,1
 384 438 384 438 347 392 c 128,-1,2
 310 346 310 346 268 289.5 c 128,-1,3
 226 233 226 233 185 171.5 c 128,-1,4
 144 110 144 110 113 55 c 1,5,-1
 416 55 l 1,6,-1
 416 0 l 1,7,-1
 38 0 l 1,8,-1
 38 47 l 1,9,10
 64 96 64 96 102.5 155 c 128,-1,11
 141 214 141 214 182 271.5 c 128,-1,12
 223 329 223 329 262 379.5 c 128,-1,13
 301 430 301 430 328 462 c 1,14,-1
 53 462 l 1,15,-1
 53 517 l 1,16,-1
 407 517 l 1,17,-1
 407 464 l 1,0,1
EndSplineSet
Substitution2: "'case' Case-Sensitive Forms lookup 19 subtable" Z
EndChar

StartChar: braceleft
Encoding: 123 123 94
Width: 319
Flags: W
LayerCount: 2
Fore
SplineSet
132 289 m 1,0,1
 148 280 148 280 161 267.5 c 128,-1,2
 174 255 174 255 183 236 c 128,-1,3
 192 217 192 217 196.5 190 c 128,-1,4
 201 163 201 163 201 126 c 2,5,-1
 201 19 l 2,6,7
 201 -28 201 -28 203 -59.5 c 128,-1,8
 205 -91 205 -91 215.5 -110.5 c 128,-1,9
 226 -130 226 -130 248 -138 c 128,-1,10
 270 -146 270 -146 311 -146 c 1,11,-1
 311 -196 l 1,12,-1
 303 -196 l 2,13,14
 255 -196 255 -196 223 -185 c 128,-1,15
 191 -174 191 -174 172.5 -153 c 128,-1,16
 154 -132 154 -132 146.5 -101 c 128,-1,17
 139 -70 139 -70 139 -29 c 2,18,-1
 139 165 l 2,19,20
 139 183 139 183 133.5 200.5 c 128,-1,21
 128 218 128 218 116 232 c 128,-1,22
 104 246 104 246 86 255 c 128,-1,23
 68 264 68 264 43 264 c 1,24,-1
 43 313 l 1,25,26
 68 313 68 313 86 322 c 128,-1,27
 104 331 104 331 116 345 c 128,-1,28
 128 359 128 359 133.5 376.5 c 128,-1,29
 139 394 139 394 139 412 c 2,30,-1
 139 606 l 2,31,32
 139 646 139 646 146.5 677.5 c 128,-1,33
 154 709 154 709 172.5 730 c 128,-1,34
 191 751 191 751 223 762 c 128,-1,35
 255 773 255 773 303 773 c 2,36,-1
 311 773 l 1,37,-1
 311 723 l 1,38,39
 270 723 270 723 248 715 c 128,-1,40
 226 707 226 707 215.5 687.5 c 128,-1,41
 205 668 205 668 203 636.5 c 128,-1,42
 201 605 201 605 201 558 c 2,43,-1
 201 451 l 2,44,45
 201 414 201 414 196.5 387.5 c 128,-1,46
 192 361 192 361 183 342 c 128,-1,47
 174 323 174 323 161 310.5 c 128,-1,48
 148 298 148 298 132 289 c 1,0,1
EndSplineSet
Substitution2: "'case' Case-Sensitive Forms lookup 18 subtable" Braceleft
EndChar

StartChar: bar
Encoding: 124 124 95
Width: 262
Flags: W
LayerCount: 2
Fore
SplineSet
100 783 m 1,0,-1
 162 783 l 1,1,-1
 162 -185 l 1,2,-1
 100 -185 l 1,3,-1
 100 783 l 1,0,-1
EndSplineSet
EndChar

StartChar: braceright
Encoding: 125 125 96
Width: 319
Flags: W
LayerCount: 2
Fore
SplineSet
187 289 m 1,0,1
 171 298 171 298 158 310.5 c 128,-1,2
 145 323 145 323 136 342 c 128,-1,3
 127 361 127 361 122.5 387.5 c 128,-1,4
 118 414 118 414 118 451 c 2,5,-1
 118 558 l 2,6,7
 118 605 118 605 116 636.5 c 128,-1,8
 114 668 114 668 103.5 687.5 c 128,-1,9
 93 707 93 707 71 715 c 128,-1,10
 49 723 49 723 8 723 c 1,11,-1
 8 773 l 1,12,-1
 16 773 l 2,13,14
 64 773 64 773 96 762 c 128,-1,15
 128 751 128 751 146.5 730 c 128,-1,16
 165 709 165 709 172.5 677.5 c 128,-1,17
 180 646 180 646 180 606 c 2,18,-1
 180 412 l 2,19,20
 180 394 180 394 185.5 376.5 c 128,-1,21
 191 359 191 359 203 345 c 128,-1,22
 215 331 215 331 233 322 c 128,-1,23
 251 313 251 313 276 313 c 1,24,-1
 276 264 l 1,25,26
 251 264 251 264 233 255 c 128,-1,27
 215 246 215 246 203 232 c 128,-1,28
 191 218 191 218 185.5 200.5 c 128,-1,29
 180 183 180 183 180 165 c 2,30,-1
 180 -29 l 2,31,32
 180 -70 180 -70 172.5 -101 c 128,-1,33
 165 -132 165 -132 146.5 -153 c 128,-1,34
 128 -174 128 -174 96 -185 c 128,-1,35
 64 -196 64 -196 16 -196 c 2,36,-1
 8 -196 l 1,37,-1
 8 -146 l 1,38,39
 49 -146 49 -146 71 -138 c 128,-1,40
 93 -130 93 -130 103.5 -110.5 c 128,-1,41
 114 -91 114 -91 116 -59.5 c 128,-1,42
 118 -28 118 -28 118 19 c 2,43,-1
 118 126 l 2,44,45
 118 163 118 163 122.5 190 c 128,-1,46
 127 217 127 217 136 236 c 128,-1,47
 145 255 145 255 158 267.5 c 128,-1,48
 171 280 171 280 187 289 c 1,0,1
EndSplineSet
Substitution2: "'case' Case-Sensitive Forms lookup 18 subtable" Braceright
EndChar

StartChar: asciitilde
Encoding: 126 126 97
Width: 564
Flags: W
LayerCount: 2
Fore
SplineSet
384 222 m 256,0,1
 350 222 350 222 323 236 c 128,-1,2
 296 250 296 250 271.5 267 c 128,-1,3
 247 284 247 284 223.5 298 c 128,-1,4
 200 312 200 312 174 312 c 0,5,6
 155 312 155 312 142 302.5 c 128,-1,7
 129 293 129 293 120.5 279.5 c 128,-1,8
 112 266 112 266 107.5 252.5 c 128,-1,9
 103 239 103 239 101 231 c 1,10,-1
 50 243 l 1,11,12
 54 261 54 261 62.5 282.5 c 128,-1,13
 71 304 71 304 85.5 322.5 c 128,-1,14
 100 341 100 341 123 353.5 c 128,-1,15
 146 366 146 366 180 366 c 256,16,17
 214 366 214 366 241 352 c 128,-1,18
 268 338 268 338 292.5 321 c 128,-1,19
 317 304 317 304 340.5 290 c 128,-1,20
 364 276 364 276 390 276 c 0,21,22
 409 276 409 276 422 285.5 c 128,-1,23
 435 295 435 295 443.5 308.5 c 128,-1,24
 452 322 452 322 456.5 335.5 c 128,-1,25
 461 349 461 349 463 357 c 1,26,-1
 514 345 l 1,27,28
 509 327 509 327 501 305.5 c 128,-1,29
 493 284 493 284 478.5 265.5 c 128,-1,30
 464 247 464 247 441 234.5 c 128,-1,31
 418 222 418 222 384 222 c 256,0,1
EndSplineSet
EndChar

StartChar: Euro
Encoding: 8364 8364 98
Width: 564
Flags: W
LayerCount: 2
Fore
SplineSet
209 409 m 1,0,1
 208 393 208 393 207.5 377 c 128,-1,2
 207 361 207 361 207 346 c 0,3,4
 207 332 207 332 207 318 c 128,-1,5
 207 304 207 304 208 290 c 1,6,-1
 421 290 l 1,7,-1
 410 237 l 1,8,-1
 213 237 l 1,9,10
 219 199 219 199 231 164.5 c 128,-1,11
 243 130 243 130 264.5 104 c 128,-1,12
 286 78 286 78 320 62 c 128,-1,13
 354 46 354 46 403 46 c 0,14,15
 448 46 448 46 479.5 54.5 c 128,-1,16
 511 63 511 63 529 73 c 1,17,-1
 544 17 l 1,18,19
 537 13 537 13 523 8 c 128,-1,20
 509 3 509 3 490 -1.5 c 128,-1,21
 471 -6 471 -6 448 -9.5 c 128,-1,22
 425 -13 425 -13 401 -13 c 0,23,24
 336 -13 336 -13 290.5 7 c 128,-1,25
 245 27 245 27 214.5 61 c 128,-1,26
 184 95 184 95 166.5 140.5 c 128,-1,27
 149 186 149 186 142 237 c 1,28,-1
 45 237 l 1,29,-1
 45 290 l 1,30,-1
 136 290 l 1,31,32
 135 304 135 304 135 318 c 128,-1,33
 135 332 135 332 135 346 c 0,34,35
 135 377 135 377 138 409 c 1,36,-1
 45 409 l 1,37,-1
 45 462 l 1,38,-1
 144 462 l 1,39,40
 153 511 153 511 171 555 c 128,-1,41
 189 599 189 599 220 632.5 c 128,-1,42
 251 666 251 666 295 685.5 c 128,-1,43
 339 705 339 705 400 705 c 0,44,45
 422 705 422 705 439.5 703.5 c 128,-1,46
 457 702 457 702 471.5 699.5 c 128,-1,47
 486 697 486 697 499.5 693 c 128,-1,48
 513 689 513 689 527 684 c 1,49,-1
 511 626 l 1,50,51
 487 636 487 636 457 641.5 c 128,-1,52
 427 647 427 647 400 647 c 0,53,54
 355 647 355 647 323 632 c 128,-1,55
 291 617 291 617 269.5 591.5 c 128,-1,56
 248 566 248 566 235 532.5 c 128,-1,57
 222 499 222 499 216 462 c 1,58,-1
 455 462 l 1,59,-1
 445 409 l 1,60,-1
 209 409 l 1,0,1
EndSplineSet
EndChar

StartChar: quotesinglbase
Encoding: 8218 8218 99
Width: 230
Flags: W
LayerCount: 2
Fore
SplineSet
156 95 m 1,0,-1
 156 85 l 2,1,2
 156 28 156 28 139 -23.5 c 128,-1,3
 122 -75 122 -75 88 -126 c 1,4,-1
 40 -104 l 1,5,6
 65 -56 65 -56 74.5 -16 c 128,-1,7
 84 24 84 24 84 59 c 0,8,9
 84 70 84 70 84 78 c 128,-1,10
 84 86 84 86 83 95 c 1,11,-1
 156 95 l 1,0,-1
EndSplineSet
EndChar

StartChar: florin
Encoding: 402 402 100
Width: 376
Flags: W
LayerCount: 2
Fore
SplineSet
151 5 m 2,0,1
 151 -93 151 -93 114 -140 c 128,-1,2
 77 -187 77 -187 -11 -187 c 0,3,4
 -22 -187 -22 -187 -38.5 -184 c 128,-1,5
 -55 -181 -55 -181 -63 -177 c 1,6,-1
 -54 -124 l 1,7,8
 -47 -126 -47 -126 -35 -128 c 128,-1,9
 -23 -130 -23 -130 -12 -130 c 0,10,11
 47 -130 47 -130 66.5 -97 c 128,-1,12
 86 -64 86 -64 86 2 c 2,13,-1
 86 573 l 2,14,15
 86 674 86 674 132.5 725 c 128,-1,16
 179 776 179 776 276 776 c 0,17,18
 318 776 318 776 344.5 769.5 c 128,-1,19
 371 763 371 763 379 758 c 1,20,-1
 366 702 l 1,21,22
 355 707 355 707 333.5 712.5 c 128,-1,23
 312 718 312 718 279 718 c 0,24,25
 210 718 210 718 180.5 683 c 128,-1,26
 151 648 151 648 151 571 c 2,27,-1
 151 517 l 1,28,-1
 359 517 l 1,29,-1
 359 462 l 1,30,-1
 151 462 l 1,31,-1
 151 5 l 2,0,1
EndSplineSet
EndChar

StartChar: dagger
Encoding: 8224 8224 103
Width: 469
Flags: W
LayerCount: 2
Fore
SplineSet
264 411 m 1,0,-1
 264 142 l 2,1,2
 264 56 264 56 260 -11.5 c 128,-1,3
 256 -79 256 -79 248 -145 c 1,4,-1
 221 -145 l 1,5,6
 212 -79 212 -79 208.5 -11.5 c 128,-1,7
 205 56 205 56 205 142 c 2,8,-1
 205 411 l 1,9,-1
 42 411 l 1,10,-1
 42 468 l 1,11,-1
 205 468 l 1,12,-1
 205 693 l 1,13,-1
 264 693 l 1,14,-1
 264 468 l 1,15,-1
 427 468 l 1,16,-1
 427 411 l 1,17,-1
 264 411 l 1,0,-1
EndSplineSet
EndChar

StartChar: daggerdbl
Encoding: 8225 8225 104
Width: 469
Flags: W
LayerCount: 2
Fore
SplineSet
264 142 m 2,0,1
 264 56 264 56 260 -11.5 c 128,-1,2
 256 -79 256 -79 248 -145 c 1,3,-1
 221 -145 l 1,4,5
 212 -79 212 -79 208.5 -11.5 c 128,-1,6
 205 56 205 56 205 142 c 2,7,-1
 205 147 l 1,8,-1
 42 147 l 1,9,-1
 42 204 l 1,10,-1
 205 204 l 1,11,-1
 205 411 l 1,12,-1
 42 411 l 1,13,-1
 42 468 l 1,14,-1
 205 468 l 1,15,-1
 205 693 l 1,16,-1
 264 693 l 1,17,-1
 264 468 l 1,18,-1
 427 468 l 1,19,-1
 427 411 l 1,20,-1
 264 411 l 1,21,-1
 264 204 l 1,22,-1
 427 204 l 1,23,-1
 427 147 l 1,24,-1
 264 147 l 1,25,-1
 264 142 l 2,0,1
EndSplineSet
EndChar

StartChar: circumflex
Encoding: 710 710 105
Width: 376
Flags: W
LayerCount: 2
Fore
SplineSet
84 584 m 1,0,-1
 56 615 l 1,1,-1
 188 762 l 1,2,-1
 320 615 l 1,3,-1
 292 584 l 1,4,-1
 188 680 l 1,5,-1
 84 584 l 1,0,-1
EndSplineSet
EndChar

StartChar: perthousand
Encoding: 8240 8240 106
Width: 1184
Flags: W
LayerCount: 2
Fore
SplineSet
580 693 m 1,0,-1
 646 693 l 1,1,-1
 251 0 l 1,2,-1
 185 0 l 1,3,-1
 580 693 l 1,0,-1
359 529 m 256,4,5
 359 485 359 485 347 451.5 c 128,-1,6
 335 418 335 418 314 395.5 c 128,-1,7
 293 373 293 373 266 361.5 c 128,-1,8
 239 350 239 350 209 350 c 256,9,10
 179 350 179 350 152 361.5 c 128,-1,11
 125 373 125 373 104 395.5 c 128,-1,12
 83 418 83 418 71 451.5 c 128,-1,13
 59 485 59 485 59 529 c 256,14,15
 59 573 59 573 71 606.5 c 128,-1,16
 83 640 83 640 104 662.5 c 128,-1,17
 125 685 125 685 152 696.5 c 128,-1,18
 179 708 179 708 209 708 c 256,19,20
 239 708 239 708 266 696.5 c 128,-1,21
 293 685 293 685 314 662.5 c 128,-1,22
 335 640 335 640 347 606.5 c 128,-1,23
 359 573 359 573 359 529 c 256,4,5
300 529 m 256,24,25
 300 586 300 586 277 620.5 c 128,-1,26
 254 655 254 655 209 655 c 256,27,28
 164 655 164 655 141 620.5 c 128,-1,29
 118 586 118 586 118 529 c 256,30,31
 118 472 118 472 141 437.5 c 128,-1,32
 164 403 164 403 209 403 c 256,33,34
 254 403 254 403 277 437.5 c 128,-1,35
 300 472 300 472 300 529 c 256,24,25
472 164 m 256,36,37
 472 208 472 208 484 241.5 c 128,-1,38
 496 275 496 275 517 297.5 c 128,-1,39
 538 320 538 320 565 331.5 c 128,-1,40
 592 343 592 343 622 343 c 256,41,42
 652 343 652 343 679 331.5 c 128,-1,43
 706 320 706 320 727 297.5 c 128,-1,44
 748 275 748 275 760 241.5 c 128,-1,45
 772 208 772 208 772 164 c 256,46,47
 772 120 772 120 760 86.5 c 128,-1,48
 748 53 748 53 727 30.5 c 128,-1,49
 706 8 706 8 679 -3.5 c 128,-1,50
 652 -15 652 -15 622 -15 c 256,51,52
 592 -15 592 -15 565 -3.5 c 128,-1,53
 538 8 538 8 517 30.5 c 128,-1,54
 496 53 496 53 484 86.5 c 128,-1,55
 472 120 472 120 472 164 c 256,36,37
531 164 m 256,56,57
 531 107 531 107 554 72.5 c 128,-1,58
 577 38 577 38 622 38 c 256,59,60
 667 38 667 38 690 72.5 c 128,-1,61
 713 107 713 107 713 164 c 256,62,63
 713 221 713 221 690 255.5 c 128,-1,64
 667 290 667 290 622 290 c 256,65,66
 577 290 577 290 554 255.5 c 128,-1,67
 531 221 531 221 531 164 c 256,56,57
825 164 m 256,68,69
 825 208 825 208 837 241.5 c 128,-1,70
 849 275 849 275 870 297.5 c 128,-1,71
 891 320 891 320 918 331.5 c 128,-1,72
 945 343 945 343 975 343 c 256,73,74
 1005 343 1005 343 1032 331.5 c 128,-1,75
 1059 320 1059 320 1080 297.5 c 128,-1,76
 1101 275 1101 275 1113 241.5 c 128,-1,77
 1125 208 1125 208 1125 164 c 256,78,79
 1125 120 1125 120 1113 86.5 c 128,-1,80
 1101 53 1101 53 1080 30.5 c 128,-1,81
 1059 8 1059 8 1032 -3.5 c 128,-1,82
 1005 -15 1005 -15 975 -15 c 256,83,84
 945 -15 945 -15 918 -3.5 c 128,-1,85
 891 8 891 8 870 30.5 c 128,-1,86
 849 53 849 53 837 86.5 c 128,-1,87
 825 120 825 120 825 164 c 256,68,69
884 164 m 256,88,89
 884 107 884 107 907 72.5 c 128,-1,90
 930 38 930 38 975 38 c 256,91,92
 1020 38 1020 38 1043 72.5 c 128,-1,93
 1066 107 1066 107 1066 164 c 256,94,95
 1066 221 1066 221 1043 255.5 c 128,-1,96
 1020 290 1020 290 975 290 c 256,97,98
 930 290 930 290 907 255.5 c 128,-1,99
 884 221 884 221 884 164 c 256,88,89
EndSplineSet
EndChar

StartChar: guilsinglleft
Encoding: 8249 8249 108
Width: 275
Flags: W
LayerCount: 2
Fore
SplineSet
188 72 m 1,0,-1
 36 284 l 1,1,-1
 188 495 l 1,2,-1
 229 469 l 1,3,-1
 113 284 l 1,4,-1
 229 98 l 1,5,-1
 188 72 l 1,0,-1
EndSplineSet
Substitution2: "'case' Case-Sensitive Forms lookup 18 subtable" Guilsinglleft
EndChar

StartChar: OE
Encoding: 338 338 109
Width: 990
Flags: W
LayerCount: 2
Fore
SplineSet
539 633 m 1,0,1
 533 634 533 634 509.5 637 c 128,-1,2
 486 640 486 640 432 640 c 0,3,4
 359 640 359 640 303.5 619.5 c 128,-1,5
 248 599 248 599 211 561 c 128,-1,6
 174 523 174 523 155.5 469 c 128,-1,7
 137 415 137 415 137 347 c 256,8,9
 137 279 137 279 155.5 224.5 c 128,-1,10
 174 170 174 170 211 132 c 128,-1,11
 248 94 248 94 303.5 73.5 c 128,-1,12
 359 53 359 53 432 53 c 0,13,14
 486 53 486 53 509.5 56 c 128,-1,15
 533 59 533 59 539 60 c 1,16,-1
 539 633 l 1,0,1
540 0 m 1,17,18
 490 -6 490 -6 440 -6 c 0,19,20
 357 -6 357 -6 288.5 16 c 128,-1,21
 220 38 220 38 170 82 c 128,-1,22
 120 126 120 126 92.5 192 c 128,-1,23
 65 258 65 258 65 347 c 0,24,25
 65 435 65 435 92.5 501 c 128,-1,26
 120 567 120 567 170 611 c 128,-1,27
 220 655 220 655 288.5 677 c 128,-1,28
 357 699 357 699 440 699 c 0,29,30
 464 699 464 699 489.5 697.5 c 128,-1,31
 515 696 515 696 539 693 c 2,32,-1
 925 693 l 1,33,-1
 925 634 l 1,34,-1
 607 634 l 1,35,-1
 607 393 l 1,36,-1
 889 393 l 1,37,-1
 889 335 l 1,38,-1
 607 335 l 1,39,-1
 607 59 l 1,40,-1
 951 59 l 1,41,-1
 951 0 l 1,42,-1
 540 0 l 1,17,18
EndSplineSet
EndChar

StartChar: quoteleft
Encoding: 8216 8216 110
Width: 230
Flags: W
LayerCount: 2
Fore
SplineSet
74 542 m 2,0,1
 74 599 74 599 91 650.5 c 128,-1,2
 108 702 108 702 142 753 c 1,3,-1
 190 731 l 1,4,5
 165 683 165 683 155.5 643 c 128,-1,6
 146 603 146 603 146 568 c 0,7,8
 146 557 146 557 146 549 c 128,-1,9
 146 541 146 541 147 532 c 1,10,-1
 74 532 l 1,11,-1
 74 542 l 2,0,1
EndSplineSet
EndChar

StartChar: quoteright
Encoding: 8217 8217 111
Width: 230
Flags: W
LayerCount: 2
Fore
SplineSet
156 731 m 2,0,1
 156 674 156 674 139 622.5 c 128,-1,2
 122 571 122 571 88 520 c 1,3,-1
 40 542 l 1,4,5
 65 590 65 590 74.5 630 c 128,-1,6
 84 670 84 670 84 705 c 0,7,8
 84 716 84 716 84 724 c 128,-1,9
 84 732 84 732 83 741 c 1,10,-1
 156 741 l 1,11,-1
 156 731 l 2,0,1
EndSplineSet
EndChar

StartChar: bullet
Encoding: 8226 8226 114
Width: 360
Flags: W
LayerCount: 2
Fore
SplineSet
300 353 m 256,0,1
 300 329 300 329 291.5 307 c 128,-1,2
 283 285 283 285 267.5 268.5 c 128,-1,3
 252 252 252 252 230 242.5 c 128,-1,4
 208 233 208 233 180 233 c 256,5,6
 152 233 152 233 129.5 242.5 c 128,-1,7
 107 252 107 252 91.5 268.5 c 128,-1,8
 76 285 76 285 68 307 c 128,-1,9
 60 329 60 329 60 353 c 256,10,11
 60 377 60 377 68 398.5 c 128,-1,12
 76 420 76 420 91.5 436.5 c 128,-1,13
 107 453 107 453 129.5 463 c 128,-1,14
 152 473 152 473 180 473 c 256,15,16
 208 473 208 473 230 463 c 128,-1,17
 252 453 252 453 267.5 436.5 c 128,-1,18
 283 420 283 420 291.5 398.5 c 128,-1,19
 300 377 300 377 300 353 c 256,0,1
EndSplineSet
Substitution2: "'case' Case-Sensitive Forms lookup 18 subtable" Bullet
EndChar

StartChar: endash
Encoding: 8211 8211 115
Width: 496
Flags: W
LayerCount: 2
Fore
SplineSet
-2 318 m 1,0,-1
 498 318 l 1,1,-1
 498 261 l 1,2,-1
 -2 261 l 1,3,-1
 -2 318 l 1,0,-1
EndSplineSet
Substitution2: "'case' Case-Sensitive Forms lookup 18 subtable" Endash
EndChar

StartChar: emdash
Encoding: 8212 8212 116
Width: 996
Flags: W
LayerCount: 2
Fore
SplineSet
-2 318 m 1,0,-1
 998 318 l 1,1,-1
 998 261 l 1,2,-1
 -2 261 l 1,3,-1
 -2 318 l 1,0,-1
EndSplineSet
Substitution2: "'case' Case-Sensitive Forms lookup 18 subtable" Emdash
EndChar

StartChar: tilde
Encoding: 732 732 117
Width: 376
Flags: W
LayerCount: 2
Fore
SplineSet
251 629 m 0,0,1
 229 629 229 629 211 636 c 128,-1,2
 193 643 193 643 176 651 c 0,3,4
 157 661 157 661 145 664.5 c 128,-1,5
 133 668 133 668 123 668 c 0,6,7
 102 668 102 668 90 654 c 128,-1,8
 78 640 78 640 68 623 c 1,9,-1
 30 641 l 1,10,11
 35 653 35 653 43.5 667 c 128,-1,12
 52 681 52 681 63.5 693 c 128,-1,13
 75 705 75 705 90.5 713 c 128,-1,14
 106 721 106 721 126 721 c 0,15,16
 148 721 148 721 166 714 c 128,-1,17
 184 707 184 707 201 699 c 0,18,19
 220 689 220 689 232 685.5 c 128,-1,20
 244 682 244 682 254 682 c 0,21,22
 275 682 275 682 287 696 c 128,-1,23
 299 710 299 710 309 727 c 1,24,-1
 347 709 l 1,25,26
 342 697 342 697 333.5 683 c 128,-1,27
 325 669 325 669 313.5 657 c 128,-1,28
 302 645 302 645 286.5 637 c 128,-1,29
 271 629 271 629 251 629 c 0,0,1
EndSplineSet
EndChar

StartChar: trademark
Encoding: 8482 8482 118
Width: 713
Flags: W
LayerCount: 2
Fore
SplineSet
278 693 m 1,0,-1
 278 653 l 1,1,-1
 171 653 l 1,2,-1
 171 369 l 1,3,-1
 127 369 l 1,4,-1
 127 653 l 1,5,-1
 20 653 l 1,6,-1
 20 693 l 1,7,-1
 278 693 l 1,0,-1
490 475 m 1,8,9
 504 503 504 503 521.5 535.5 c 128,-1,10
 539 568 539 568 555.5 598 c 128,-1,11
 572 628 572 628 586.5 653.5 c 128,-1,12
 601 679 601 679 610 693 c 1,13,-1
 645 693 l 1,14,15
 649 669 649 669 653.5 634.5 c 128,-1,16
 658 600 658 600 661.5 557.5 c 128,-1,17
 665 515 665 515 668 467 c 128,-1,18
 671 419 671 419 673 369 c 1,19,-1
 628 369 l 1,20,21
 625 441 625 441 620.5 503 c 128,-1,22
 616 565 616 565 610 610 c 1,23,24
 598 589 598 589 582 561 c 128,-1,25
 566 533 566 533 551 505 c 128,-1,26
 536 477 536 477 523.5 452.5 c 128,-1,27
 511 428 511 428 504 414 c 1,28,-1
 472 414 l 1,29,30
 465 428 465 428 452.5 452.5 c 128,-1,31
 440 477 440 477 425 505 c 128,-1,32
 410 533 410 533 394 561 c 128,-1,33
 378 589 378 589 366 610 c 1,34,35
 360 565 360 565 355.5 503 c 128,-1,36
 351 441 351 441 348 369 c 1,37,-1
 305 369 l 1,38,39
 306 419 306 419 309.5 467 c 128,-1,40
 313 515 313 515 316.5 557.5 c 128,-1,41
 320 600 320 600 324.5 634.5 c 128,-1,42
 329 669 329 669 333 693 c 1,43,-1
 370 693 l 1,44,45
 379 679 379 679 393.5 653.5 c 128,-1,46
 408 628 408 628 424.5 598 c 128,-1,47
 441 568 441 568 458.5 535.5 c 128,-1,48
 476 503 476 503 490 475 c 1,8,9
EndSplineSet
EndChar

StartChar: guilsinglright
Encoding: 8250 8250 120
Width: 275
Flags: W
LayerCount: 2
Fore
SplineSet
46 98 m 1,0,-1
 162 284 l 1,1,-1
 46 469 l 1,2,-1
 87 495 l 1,3,-1
 239 284 l 1,4,-1
 87 72 l 1,5,-1
 46 98 l 1,0,-1
EndSplineSet
Substitution2: "'case' Case-Sensitive Forms lookup 18 subtable" Guilsinglright
EndChar

StartChar: oe
Encoding: 339 339 121
Width: 944
Flags: W
LayerCount: 2
Fore
SplineSet
291 529 m 0,0,1
 361 529 361 529 410.5 494.5 c 128,-1,2
 460 460 460 460 488 399 c 1,3,4
 517 464 517 464 567 496.5 c 128,-1,5
 617 529 617 529 677 529 c 0,6,7
 772 529 772 529 828.5 467 c 128,-1,8
 885 405 885 405 885 276 c 0,9,10
 885 268 885 268 884.5 260 c 128,-1,11
 884 252 884 252 883 245 c 1,12,-1
 520 245 l 1,13,14
 523 150 523 150 567 99 c 128,-1,15
 611 48 611 48 707 48 c 0,16,17
 760 48 760 48 791 58 c 128,-1,18
 822 68 822 68 836 75 c 1,19,-1
 848 19 l 1,20,21
 834 11 834 11 795.5 0 c 128,-1,22
 757 -11 757 -11 705 -11 c 0,23,24
 615 -11 615 -11 564 22 c 128,-1,25
 513 55 513 55 487 113 c 1,26,27
 458 54 458 54 409 21 c 128,-1,28
 360 -12 360 -12 291 -12 c 0,29,30
 239 -12 239 -12 196 7.5 c 128,-1,31
 153 27 153 27 121.5 62 c 128,-1,32
 90 97 90 97 72.5 147 c 128,-1,33
 55 197 55 197 55 258 c 256,34,35
 55 319 55 319 72.5 369 c 128,-1,36
 90 419 90 419 121.5 454.5 c 128,-1,37
 153 490 153 490 196 509.5 c 128,-1,38
 239 529 239 529 291 529 c 0,0,1
458 258 m 256,39,40
 458 355 458 355 413 412.5 c 128,-1,41
 368 470 368 470 291 470 c 256,42,43
 214 470 214 470 169 412.5 c 128,-1,44
 124 355 124 355 124 258 c 256,45,46
 124 161 124 161 169 104 c 128,-1,47
 214 47 214 47 291 47 c 256,48,49
 368 47 368 47 413 104 c 128,-1,50
 458 161 458 161 458 258 c 256,39,40
818 300 m 1,51,52
 816 381 816 381 780 426 c 128,-1,53
 744 471 744 471 678 471 c 0,54,55
 643 471 643 471 615.5 457 c 128,-1,56
 588 443 588 443 567.5 419.5 c 128,-1,57
 547 396 547 396 535.5 365 c 128,-1,58
 524 334 524 334 522 300 c 1,59,-1
 818 300 l 1,51,52
EndSplineSet
Substitution2: "'case' Case-Sensitive Forms lookup 19 subtable" OE
EndChar

StartChar: exclamdown
Encoding: 161 161 124
Width: 274
Flags: W
LayerCount: 2
Fore
SplineSet
172 -185 m 1,0,-1
 102 -185 l 1,1,-1
 102 5 l 2,2,3
 102 91 102 91 107.5 158 c 128,-1,4
 113 225 113 225 122 292 c 1,5,-1
 152 292 l 1,6,7
 156 259 156 259 159.5 226 c 128,-1,8
 163 193 163 193 166 158 c 128,-1,9
 169 123 169 123 170.5 85.5 c 128,-1,10
 172 48 172 48 172 5 c 2,11,-1
 172 -185 l 1,0,-1
192 462 m 256,12,13
 192 439 192 439 177.5 423 c 128,-1,14
 163 407 163 407 137 407 c 256,15,16
 111 407 111 407 96.5 423 c 128,-1,17
 82 439 82 439 82 462 c 256,18,19
 82 485 82 485 96.5 501 c 128,-1,20
 111 517 111 517 137 517 c 256,21,22
 163 517 163 517 177.5 501 c 128,-1,23
 192 485 192 485 192 462 c 256,12,13
EndSplineSet
Substitution2: "'case' Case-Sensitive Forms lookup 18 subtable" Exclamdown
EndChar

StartChar: cent
Encoding: 162 162 125
Width: 564
Flags: W
LayerCount: 2
Fore
SplineSet
304 34 m 1,0,1
 256 41 256 41 219 63 c 128,-1,2
 182 85 182 85 157.5 118.5 c 128,-1,3
 133 152 133 152 120 195.5 c 128,-1,4
 107 239 107 239 107 290 c 256,5,6
 107 341 107 341 120.5 385.5 c 128,-1,7
 134 430 134 430 159.5 464 c 128,-1,8
 185 498 185 498 221.5 520.5 c 128,-1,9
 258 543 258 543 304 550 c 1,10,-1
 304 693 l 1,11,-1
 363 693 l 1,12,-1
 363 552 l 1,13,14
 394 552 394 552 422.5 545.5 c 128,-1,15
 451 539 451 539 479 528 c 1,16,-1
 462 473 l 1,17,18
 441 482 441 482 412.5 489 c 128,-1,19
 384 496 384 496 353 496 c 0,20,21
 266 496 266 496 221 444.5 c 128,-1,22
 176 393 176 393 176 290 c 0,23,24
 176 246 176 246 186.5 209 c 128,-1,25
 197 172 197 172 219.5 145 c 128,-1,26
 242 118 242 118 277.5 103 c 128,-1,27
 313 88 313 88 363 88 c 0,28,29
 405 88 405 88 434 96.5 c 128,-1,30
 463 105 463 105 476 111 c 1,31,-1
 488 57 l 1,32,33
 482 53 482 53 468.5 48.5 c 128,-1,34
 455 44 455 44 438 40.5 c 128,-1,35
 421 37 421 37 401.5 34.5 c 128,-1,36
 382 32 382 32 363 31 c 1,37,-1
 363 -109 l 1,38,-1
 304 -109 l 1,39,-1
 304 34 l 1,0,1
EndSplineSet
EndChar

StartChar: sterling
Encoding: 163 163 126
Width: 564
Flags: W
LayerCount: 2
Fore
SplineSet
242 364 m 1,0,-1
 443 364 l 1,1,-1
 443 309 l 1,2,-1
 242 309 l 1,3,-1
 242 300 l 2,4,5
 242 241 242 241 238.5 179.5 c 128,-1,6
 235 118 235 118 225 57 c 1,7,-1
 528 57 l 1,8,-1
 528 0 l 1,9,-1
 149 0 l 1,10,11
 160 69 160 69 167.5 141.5 c 128,-1,12
 175 214 175 214 175 297 c 2,13,-1
 175 309 l 1,14,-1
 79 309 l 1,15,-1
 79 364 l 1,16,-1
 175 364 l 1,17,-1
 175 460 l 2,18,19
 175 534 175 534 190 582 c 128,-1,20
 205 630 205 630 232.5 657.5 c 128,-1,21
 260 685 260 685 297.5 695.5 c 128,-1,22
 335 706 335 706 380 706 c 0,23,24
 422 706 422 706 453.5 697.5 c 128,-1,25
 485 689 485 689 508 678 c 1,26,-1
 490 619 l 1,27,28
 441 645 441 645 372 645 c 0,29,30
 341 645 341 645 316.5 637 c 128,-1,31
 292 629 292 629 275.5 608.5 c 128,-1,32
 259 588 259 588 250.5 554 c 128,-1,33
 242 520 242 520 242 469 c 2,34,-1
 242 364 l 1,0,-1
EndSplineSet
EndChar

StartChar: currency
Encoding: 164 164 127
Width: 564
Flags: W
LayerCount: 2
Fore
SplineSet
95 347 m 256,0,1
 95 380 95 380 104 409.5 c 128,-1,2
 113 439 113 439 130 462 c 1,3,-1
 56 538 l 1,4,-1
 96 579 l 1,5,-1
 172 501 l 1,6,7
 195 518 195 518 223 527 c 128,-1,8
 251 536 251 536 282 536 c 256,9,10
 313 536 313 536 341 527 c 128,-1,11
 369 518 369 518 392 501 c 1,12,-1
 468 579 l 1,13,-1
 508 538 l 1,14,-1
 434 462 l 1,15,16
 451 439 451 439 460 409.5 c 128,-1,17
 469 380 469 380 469 347 c 256,18,19
 469 314 469 314 460 284.5 c 128,-1,20
 451 255 451 255 434 232 c 1,21,-1
 508 156 l 1,22,-1
 468 115 l 1,23,-1
 392 193 l 1,24,25
 369 176 369 176 341 167 c 128,-1,26
 313 158 313 158 282 158 c 256,27,28
 251 158 251 158 223 167 c 128,-1,29
 195 176 195 176 172 193 c 1,30,-1
 96 115 l 1,31,-1
 56 156 l 1,32,-1
 130 232 l 1,33,34
 113 255 113 255 104 284.5 c 128,-1,35
 95 314 95 314 95 347 c 256,0,1
411 347 m 256,36,37
 411 377 411 377 401 402 c 128,-1,38
 391 427 391 427 373.5 445 c 128,-1,39
 356 463 356 463 332.5 473 c 128,-1,40
 309 483 309 483 282 483 c 256,41,42
 255 483 255 483 231.5 473 c 128,-1,43
 208 463 208 463 190.5 445 c 128,-1,44
 173 427 173 427 163 402 c 128,-1,45
 153 377 153 377 153 347 c 256,46,47
 153 317 153 317 163 292 c 128,-1,48
 173 267 173 267 190.5 249 c 128,-1,49
 208 231 208 231 231.5 221 c 128,-1,50
 255 211 255 211 282 211 c 256,51,52
 309 211 309 211 332.5 221 c 128,-1,53
 356 231 356 231 373.5 249 c 128,-1,54
 391 267 391 267 401 292 c 128,-1,55
 411 317 411 317 411 347 c 256,36,37
EndSplineSet
EndChar

StartChar: yen
Encoding: 165 165 128
Width: 564
Flags: W
LayerCount: 2
Fore
SplineSet
250 0 m 1,0,-1
 250 115 l 1,1,-1
 87 115 l 1,2,-1
 87 168 l 1,3,-1
 250 168 l 1,4,-1
 250 287 l 1,5,-1
 87 287 l 1,6,-1
 87 340 l 1,7,-1
 236 340 l 1,8,9
 176 433 176 433 125 519.5 c 128,-1,10
 74 606 74 606 31 693 c 1,11,-1
 100 693 l 1,12,13
 139 610 139 610 186 528.5 c 128,-1,14
 233 447 233 447 284 371 c 1,15,16
 335 447 335 447 381.5 528.5 c 128,-1,17
 428 610 428 610 467 693 c 1,18,-1
 533 693 l 1,19,20
 490 606 490 606 438.5 519.5 c 128,-1,21
 387 433 387 433 327 340 c 1,22,-1
 478 340 l 1,23,-1
 478 287 l 1,24,-1
 315 287 l 1,25,-1
 315 168 l 1,26,-1
 478 168 l 1,27,-1
 478 115 l 1,28,-1
 315 115 l 1,29,-1
 315 0 l 1,30,-1
 250 0 l 1,0,-1
EndSplineSet
EndChar

StartChar: brokenbar
Encoding: 166 166 129
Width: 262
Flags: W
LayerCount: 2
Fore
SplineSet
100 191 m 1,0,-1
 162 191 l 1,1,-1
 162 -185 l 1,2,-1
 100 -185 l 1,3,-1
 100 191 l 1,0,-1
100 783 m 1,4,-1
 162 783 l 1,5,-1
 162 407 l 1,6,-1
 100 407 l 1,7,-1
 100 783 l 1,4,-1
EndSplineSet
EndChar

StartChar: section
Encoding: 167 167 130
Width: 482
Flags: W
LayerCount: 2
Fore
SplineSet
72 -28 m 1,0,1
 98 -39 98 -39 130 -48.5 c 128,-1,2
 162 -58 162 -58 221 -58 c 0,3,4
 247 -58 247 -58 270 -53 c 128,-1,5
 293 -48 293 -48 310.5 -37.5 c 128,-1,6
 328 -27 328 -27 338 -11 c 128,-1,7
 348 5 348 5 348 28 c 0,8,9
 348 49 348 49 341 65 c 128,-1,10
 334 81 334 81 318.5 94 c 128,-1,11
 303 107 303 107 278.5 118 c 128,-1,12
 254 129 254 129 220 141 c 0,13,14
 185 153 185 153 153.5 165.5 c 128,-1,15
 122 178 122 178 98.5 196.5 c 128,-1,16
 75 215 75 215 61 242 c 128,-1,17
 47 269 47 269 47 309 c 0,18,19
 47 337 47 337 56.5 360.5 c 128,-1,20
 66 384 66 384 80 402 c 128,-1,21
 94 420 94 420 111.5 433 c 128,-1,22
 129 446 129 446 144 455 c 1,23,24
 114 477 114 477 99.5 502.5 c 128,-1,25
 85 528 85 528 85 565 c 0,26,27
 85 631 85 631 129.5 669.5 c 128,-1,28
 174 708 174 708 261 708 c 0,29,30
 321 708 321 708 356 698.5 c 128,-1,31
 391 689 391 689 406 683 c 1,32,-1
 390 630 l 1,33,34
 373 638 373 638 341.5 647.5 c 128,-1,35
 310 657 310 657 260 657 c 0,36,37
 211 657 211 657 179 637.5 c 128,-1,38
 147 618 147 618 147 576 c 0,39,40
 147 535 147 535 173.5 512 c 128,-1,41
 200 489 200 489 262 470 c 0,42,43
 295 459 295 459 326 447 c 128,-1,44
 357 435 357 435 382 416.5 c 128,-1,45
 407 398 407 398 422 370 c 128,-1,46
 437 342 437 342 437 300 c 0,47,48
 437 275 437 275 429 253 c 128,-1,49
 421 231 421 231 407.5 212 c 128,-1,50
 394 193 394 193 376.5 178.5 c 128,-1,51
 359 164 359 164 341 154 c 1,52,53
 374 134 374 134 392.5 104 c 128,-1,54
 411 74 411 74 411 37 c 0,55,56
 411 -35 411 -35 357.5 -72 c 128,-1,57
 304 -109 304 -109 214 -109 c 0,58,59
 154 -109 154 -109 116.5 -99.5 c 128,-1,60
 79 -90 79 -90 56 -79 c 1,61,-1
 72 -28 l 1,0,1
227 420 m 0,62,63
 216 424 216 424 205.5 427.5 c 128,-1,64
 195 431 195 431 190 433 c 1,65,66
 155 415 155 415 132 387 c 128,-1,67
 109 359 109 359 109 317 c 0,68,69
 109 288 109 288 120.5 269 c 128,-1,70
 132 250 132 250 152 236 c 128,-1,71
 172 222 172 222 199 211.5 c 128,-1,72
 226 201 226 201 257 191 c 0,73,74
 267 188 267 188 278 184 c 128,-1,75
 289 180 289 180 296 177 c 1,76,77
 334 196 334 196 354.5 228 c 128,-1,78
 375 260 375 260 375 295 c 0,79,80
 375 323 375 323 362 343 c 128,-1,81
 349 363 349 363 328 377 c 128,-1,82
 307 391 307 391 280.5 401 c 128,-1,83
 254 411 254 411 227 420 c 0,62,63
EndSplineSet
EndChar

StartChar: dieresis
Encoding: 168 168 131
Width: 376
Flags: W
LayerCount: 2
Fore
SplineSet
148 673 m 256,0,1
 148 651 148 651 135 638 c 128,-1,2
 122 625 122 625 102 625 c 256,3,4
 82 625 82 625 69 638 c 128,-1,5
 56 651 56 651 56 673 c 256,6,7
 56 695 56 695 69 708 c 128,-1,8
 82 721 82 721 102 721 c 256,9,10
 122 721 122 721 135 708 c 128,-1,11
 148 695 148 695 148 673 c 256,0,1
320 673 m 256,12,13
 320 651 320 651 307 638 c 128,-1,14
 294 625 294 625 274 625 c 256,15,16
 254 625 254 625 241 638 c 128,-1,17
 228 651 228 651 228 673 c 256,18,19
 228 695 228 695 241 708 c 128,-1,20
 254 721 254 721 274 721 c 256,21,22
 294 721 294 721 307 708 c 128,-1,23
 320 695 320 695 320 673 c 256,12,13
EndSplineSet
EndChar

StartChar: copyright
Encoding: 169 169 132
Width: 826
Flags: W
LayerCount: 2
Fore
SplineSet
418 142 m 0,0,1
 379 142 379 142 345.5 156 c 128,-1,2
 312 170 312 170 287 196 c 128,-1,3
 262 222 262 222 248 260.5 c 128,-1,4
 234 299 234 299 234 348 c 0,5,6
 234 396 234 396 249.5 433.5 c 128,-1,7
 265 471 265 471 291 497.5 c 128,-1,8
 317 524 317 524 351 537.5 c 128,-1,9
 385 551 385 551 422 551 c 0,10,11
 471 551 471 551 501.5 537.5 c 128,-1,12
 532 524 532 524 543 516 c 1,13,-1
 524 471 l 1,14,15
 509 479 509 479 485.5 488.5 c 128,-1,16
 462 498 462 498 422 498 c 0,17,18
 367 498 367 498 330.5 459 c 128,-1,19
 294 420 294 420 294 348 c 0,20,21
 294 274 294 274 329.5 234.5 c 128,-1,22
 365 195 365 195 426 195 c 0,23,24
 469 195 469 195 493.5 204.5 c 128,-1,25
 518 214 518 214 529 221 c 1,26,-1
 546 173 l 1,27,28
 533 165 533 165 500 153.5 c 128,-1,29
 467 142 467 142 418 142 c 0,0,1
752 347 m 0,30,31
 752 261 752 261 724 194 c 128,-1,32
 696 127 696 127 649.5 80.5 c 128,-1,33
 603 34 603 34 541.5 9.5 c 128,-1,34
 480 -15 480 -15 413 -15 c 256,35,36
 346 -15 346 -15 284.5 9.5 c 128,-1,37
 223 34 223 34 176.5 80.5 c 128,-1,38
 130 127 130 127 102 194 c 128,-1,39
 74 261 74 261 74 347 c 0,40,41
 74 432 74 432 102 499.5 c 128,-1,42
 130 567 130 567 176.5 613 c 128,-1,43
 223 659 223 659 284.5 683.5 c 128,-1,44
 346 708 346 708 413 708 c 256,45,46
 480 708 480 708 541.5 683.5 c 128,-1,47
 603 659 603 659 649.5 613 c 128,-1,48
 696 567 696 567 724 499.5 c 128,-1,49
 752 432 752 432 752 347 c 0,30,31
693 347 m 256,50,51
 693 416 693 416 672 473 c 128,-1,52
 651 530 651 530 614 570.5 c 128,-1,53
 577 611 577 611 525.5 633 c 128,-1,54
 474 655 474 655 413 655 c 256,55,56
 352 655 352 655 300.5 633 c 128,-1,57
 249 611 249 611 212 570.5 c 128,-1,58
 175 530 175 530 154 473 c 128,-1,59
 133 416 133 416 133 347 c 256,60,61
 133 278 133 278 154 221 c 128,-1,62
 175 164 175 164 212 123.5 c 128,-1,63
 249 83 249 83 300.5 60.5 c 128,-1,64
 352 38 352 38 413 38 c 256,65,66
 474 38 474 38 525.5 60.5 c 128,-1,67
 577 83 577 83 614 123.5 c 128,-1,68
 651 164 651 164 672 221 c 128,-1,69
 693 278 693 278 693 347 c 256,50,51
EndSplineSet
EndChar

StartChar: ordfeminine
Encoding: 170 170 133
Width: 386
Flags: W
LayerCount: 2
Fore
SplineSet
195 379 m 0,0,1
 217 379 217 379 238 380.5 c 128,-1,2
 259 382 259 382 270 384 c 1,3,-1
 270 504 l 1,4,5
 257 506 257 506 240 508 c 128,-1,6
 223 510 223 510 205 510 c 0,7,8
 184 510 184 510 165 507 c 128,-1,9
 146 504 146 504 131.5 497 c 128,-1,10
 117 490 117 490 109 477.5 c 128,-1,11
 101 465 101 465 101 447 c 0,12,13
 101 415 101 415 121 397 c 128,-1,14
 141 379 141 379 195 379 c 0,0,1
189 704 m 0,15,16
 226 704 226 704 252 694.5 c 128,-1,17
 278 685 278 685 294 667.5 c 128,-1,18
 310 650 310 650 317 625.5 c 128,-1,19
 324 601 324 601 324 572 c 2,20,-1
 324 346 l 1,21,22
 312 343 312 343 295.5 340.5 c 128,-1,23
 279 338 279 338 261.5 336 c 128,-1,24
 244 334 244 334 226.5 333 c 128,-1,25
 209 332 209 332 196 332 c 0,26,27
 129 332 129 332 87.5 358.5 c 128,-1,28
 46 385 46 385 46 443 c 0,29,30
 46 473 46 473 58.5 494.5 c 128,-1,31
 71 516 71 516 92.5 529.5 c 128,-1,32
 114 543 114 543 142.5 549.5 c 128,-1,33
 171 556 171 556 203 556 c 0,34,35
 214 556 214 556 232 554 c 128,-1,36
 250 552 250 552 270 548 c 1,37,-1
 270 557 l 2,38,39
 270 575 270 575 268 592.5 c 128,-1,40
 266 610 266 610 258 624 c 128,-1,41
 250 638 250 638 233.5 647 c 128,-1,42
 217 656 217 656 189 656 c 0,43,44
 163 656 163 656 138.5 653.5 c 128,-1,45
 114 651 114 651 94 644 c 1,46,-1
 87 690 l 1,47,48
 104 695 104 695 130.5 699.5 c 128,-1,49
 157 704 157 704 189 704 c 0,15,16
EndSplineSet
EndChar

StartChar: logicalnot
Encoding: 172 172 135
Width: 564
Flags: W
LayerCount: 2
Fore
SplineSet
508 48 m 1,0,-1
 450 48 l 1,1,-1
 450 324 l 1,2,-1
 56 324 l 1,3,-1
 56 380 l 1,4,-1
 508 380 l 1,5,-1
 508 48 l 1,0,-1
EndSplineSet
EndChar

StartChar: registered
Encoding: 174 174 137
Width: 826
Flags: W
LayerCount: 2
Fore
SplineSet
521 149 m 1,0,1
 495 196 495 196 467 238.5 c 128,-1,2
 439 281 439 281 418 306 c 1,3,4
 411 305 411 305 405 305 c 128,-1,5
 399 305 399 305 394 305 c 2,6,-1
 331 305 l 1,7,-1
 331 149 l 1,8,-1
 276 149 l 1,9,-1
 276 536 l 1,10,11
 299 541 299 541 327.5 544 c 128,-1,12
 356 547 356 547 381 547 c 0,13,14
 466 547 466 547 510.5 516 c 128,-1,15
 555 485 555 485 555 422 c 0,16,17
 555 386 555 386 535 357.5 c 128,-1,18
 515 329 515 329 476 315 c 1,19,20
 484 306 484 306 497.5 287.5 c 128,-1,21
 511 269 511 269 526 246 c 128,-1,22
 541 223 541 223 556 197 c 128,-1,23
 571 171 571 171 582 149 c 1,24,-1
 521 149 l 1,0,1
331 350 m 1,25,-1
 381 350 l 2,26,27
 406 350 406 350 427 353 c 128,-1,28
 448 356 448 356 463.5 364.5 c 128,-1,29
 479 373 479 373 487.5 387 c 128,-1,30
 496 401 496 401 496 423 c 0,31,32
 496 444 496 444 486.5 458.5 c 128,-1,33
 477 473 477 473 461.5 482 c 128,-1,34
 446 491 446 491 426 495 c 128,-1,35
 406 499 406 499 384 499 c 0,36,37
 369 499 369 499 355.5 498.5 c 128,-1,38
 342 498 342 498 331 497 c 1,39,-1
 331 350 l 1,25,-1
752 347 m 0,40,41
 752 261 752 261 724 194 c 128,-1,42
 696 127 696 127 649.5 80.5 c 128,-1,43
 603 34 603 34 541.5 9.5 c 128,-1,44
 480 -15 480 -15 413 -15 c 256,45,46
 346 -15 346 -15 284.5 9.5 c 128,-1,47
 223 34 223 34 176.5 80.5 c 128,-1,48
 130 127 130 127 102 194 c 128,-1,49
 74 261 74 261 74 347 c 0,50,51
 74 432 74 432 102 499.5 c 128,-1,52
 130 567 130 567 176.5 613 c 128,-1,53
 223 659 223 659 284.5 683.5 c 128,-1,54
 346 708 346 708 413 708 c 256,55,56
 480 708 480 708 541.5 683.5 c 128,-1,57
 603 659 603 659 649.5 613 c 128,-1,58
 696 567 696 567 724 499.5 c 128,-1,59
 752 432 752 432 752 347 c 0,40,41
693 347 m 256,60,61
 693 416 693 416 672 473 c 128,-1,62
 651 530 651 530 614 570.5 c 128,-1,63
 577 611 577 611 525.5 633 c 128,-1,64
 474 655 474 655 413 655 c 256,65,66
 352 655 352 655 300.5 633 c 128,-1,67
 249 611 249 611 212 570.5 c 128,-1,68
 175 530 175 530 154 473 c 128,-1,69
 133 416 133 416 133 347 c 256,70,71
 133 278 133 278 154 221 c 128,-1,72
 175 164 175 164 212 123.5 c 128,-1,73
 249 83 249 83 300.5 60.5 c 128,-1,74
 352 38 352 38 413 38 c 256,75,76
 474 38 474 38 525.5 60.5 c 128,-1,77
 577 83 577 83 614 123.5 c 128,-1,78
 651 164 651 164 672 221 c 128,-1,79
 693 278 693 278 693 347 c 256,60,61
EndSplineSet
EndChar

StartChar: macron
Encoding: 175 175 138
Width: 376
Flags: W
LayerCount: 2
Fore
SplineSet
56 649 m 1,0,-1
 56 704 l 1,1,-1
 321 704 l 1,2,-1
 321 649 l 1,3,-1
 56 649 l 1,0,-1
EndSplineSet
EndChar

StartChar: degree
Encoding: 176 176 139
Width: 318
Flags: W
LayerCount: 2
Fore
SplineSet
159 511 m 256,0,1
 133 511 133 511 109.5 520 c 128,-1,2
 86 529 86 529 68 545.5 c 128,-1,3
 50 562 50 562 39.5 586.5 c 128,-1,4
 29 611 29 611 29 642 c 256,5,6
 29 673 29 673 39.5 697.5 c 128,-1,7
 50 722 50 722 68 738.5 c 128,-1,8
 86 755 86 755 109.5 764 c 128,-1,9
 133 773 133 773 159 773 c 256,10,11
 185 773 185 773 208.5 764 c 128,-1,12
 232 755 232 755 250 738.5 c 128,-1,13
 268 722 268 722 278.5 697.5 c 128,-1,14
 289 673 289 673 289 642 c 256,15,16
 289 611 289 611 278.5 586.5 c 128,-1,17
 268 562 268 562 250 545.5 c 128,-1,18
 232 529 232 529 208.5 520 c 128,-1,19
 185 511 185 511 159 511 c 256,0,1
159 556 m 256,20,21
 194 556 194 556 217.5 579 c 128,-1,22
 241 602 241 602 241 642 c 256,23,24
 241 682 241 682 217.5 705 c 128,-1,25
 194 728 194 728 159 728 c 256,26,27
 124 728 124 728 100.5 705 c 128,-1,28
 77 682 77 682 77 642 c 256,29,30
 77 602 77 602 100.5 579 c 128,-1,31
 124 556 124 556 159 556 c 256,20,21
EndSplineSet
EndChar

StartChar: plusminus
Encoding: 177 177 140
Width: 564
Flags: W
LayerCount: 2
Fore
SplineSet
56 56 m 1,0,-1
 508 56 l 1,1,-1
 508 0 l 1,2,-1
 56 0 l 1,3,-1
 56 56 l 1,0,-1
56 401 m 1,4,-1
 253 401 l 1,5,-1
 253 618 l 1,6,-1
 311 618 l 1,7,-1
 311 401 l 1,8,-1
 508 401 l 1,9,-1
 508 345 l 1,10,-1
 311 345 l 1,11,-1
 311 128 l 1,12,-1
 253 128 l 1,13,-1
 253 345 l 1,14,-1
 56 345 l 1,15,-1
 56 401 l 1,4,-1
EndSplineSet
EndChar

StartChar: twosuperior
Encoding: 178 178 141
Width: 359
Flags: W
LayerCount: 2
Fore
SplineSet
284 600 m 0,0,1
 284 579 284 579 276.5 561 c 128,-1,2
 269 543 269 543 257 527.5 c 128,-1,3
 245 512 245 512 229.5 498 c 128,-1,4
 214 484 214 484 197 471 c 0,5,6
 171 450 171 450 154.5 434 c 128,-1,7
 138 418 138 418 128.5 406 c 128,-1,8
 119 394 119 394 115.5 384 c 128,-1,9
 112 374 112 374 112 365 c 1,10,-1
 303 365 l 1,11,-1
 303 317 l 1,12,-1
 55 317 l 1,13,14
 54 322 54 322 54 327 c 128,-1,15
 54 332 54 332 54 337 c 0,16,17
 54 367 54 367 64 390.5 c 128,-1,18
 74 414 74 414 89.5 433.5 c 128,-1,19
 105 453 105 453 124 469.5 c 128,-1,20
 143 486 143 486 161 503 c 0,21,22
 175 515 175 515 187 525.5 c 128,-1,23
 199 536 199 536 208 547.5 c 128,-1,24
 217 559 217 559 222.5 572 c 128,-1,25
 228 585 228 585 228 602 c 0,26,27
 228 635 228 635 208 647.5 c 128,-1,28
 188 660 188 660 161 660 c 0,29,30
 144 660 144 660 129.5 655.5 c 128,-1,31
 115 651 115 651 103 644.5 c 128,-1,32
 91 638 91 638 82.5 631.5 c 128,-1,33
 74 625 74 625 70 621 c 1,34,-1
 43 659 l 1,35,36
 60 677 60 677 90.5 692.5 c 128,-1,37
 121 708 121 708 166 708 c 0,38,39
 222 708 222 708 253 681 c 128,-1,40
 284 654 284 654 284 600 c 0,0,1
EndSplineSet
Substitution2: "Single Substitution lookup 26 subtable" twoinferior
Substitution2: "'sinf' Scientific Inferiors lookup 13 subtable" two.sinf
Substitution2: "'subs' Subscript lookup 12 subtable" two.sinf
Substitution2: "'sups' Superscript lookup 11 subtable" two.sups
Substitution2: "'dnom' Denominators lookup 10 subtable" twoinferior
EndChar

StartChar: threesuperior
Encoding: 179 179 142
Width: 359
Flags: W
LayerCount: 2
Fore
SplineSet
146 357 m 0,0,1
 203 357 203 357 223 376.5 c 128,-1,2
 243 396 243 396 243 425 c 0,3,4
 243 446 243 446 233 460 c 128,-1,5
 223 474 223 474 207 483 c 128,-1,6
 191 492 191 492 169.5 495.5 c 128,-1,7
 148 499 148 499 126 499 c 2,8,-1
 113 499 l 1,9,-1
 113 544 l 1,10,-1
 128 544 l 2,11,12
 146 544 146 544 163.5 546.5 c 128,-1,13
 181 549 181 549 194 556.5 c 128,-1,14
 207 564 207 564 215 576 c 128,-1,15
 223 588 223 588 223 608 c 0,16,17
 223 637 223 637 204.5 649 c 128,-1,18
 186 661 186 661 155 661 c 0,19,20
 123 661 123 661 101 651.5 c 128,-1,21
 79 642 79 642 66 633 c 1,22,-1
 46 675 l 1,23,24
 57 684 57 684 86 696 c 128,-1,25
 115 708 115 708 157 708 c 0,26,27
 222 708 222 708 249.5 681.5 c 128,-1,28
 277 655 277 655 277 613 c 0,29,30
 277 551 277 551 216 526 c 1,31,32
 253 515 253 515 276 490 c 128,-1,33
 299 465 299 465 299 423 c 0,34,35
 299 400 299 400 290.5 379.5 c 128,-1,36
 282 359 282 359 264 343 c 128,-1,37
 246 327 246 327 217.5 318 c 128,-1,38
 189 309 189 309 149 309 c 0,39,40
 111 309 111 309 86 315.5 c 128,-1,41
 61 322 61 322 45 330 c 1,42,-1
 58 377 l 1,43,44
 72 370 72 370 93.5 363.5 c 128,-1,45
 115 357 115 357 146 357 c 0,0,1
EndSplineSet
Substitution2: "Single Substitution lookup 26 subtable" threeinferior
Substitution2: "'sinf' Scientific Inferiors lookup 13 subtable" three.sinf
Substitution2: "'subs' Subscript lookup 12 subtable" three.sinf
Substitution2: "'sups' Superscript lookup 11 subtable" three.sups
Substitution2: "'dnom' Denominators lookup 10 subtable" threeinferior
EndChar

StartChar: acute
Encoding: 180 180 143
Width: 376
Flags: W
LayerCount: 2
Fore
SplineSet
316 722 m 1,0,-1
 145 583 l 1,1,-1
 112 621 l 1,2,-1
 270 773 l 1,3,-1
 316 722 l 1,0,-1
EndSplineSet
EndChar

StartChar: mu
Encoding: 181 181 144
Width: 575
Flags: W
LayerCount: 2
Fore
SplineSet
291 -10 m 0,0,1
 234 -10 234 -10 199 5 c 128,-1,2
 164 20 164 20 144 46 c 1,3,4
 148 14 148 14 148.5 -18.5 c 128,-1,5
 149 -51 149 -51 149 -79 c 2,6,-1
 149 -185 l 1,7,-1
 86 -185 l 1,8,-1
 86 517 l 1,9,-1
 151 517 l 1,10,-1
 151 248 l 2,11,12
 151 193 151 193 159 155 c 128,-1,13
 167 117 167 117 185 93.5 c 128,-1,14
 203 70 203 70 231.5 59.5 c 128,-1,15
 260 49 260 49 301 49 c 0,16,17
 347 49 347 49 381 54 c 128,-1,18
 415 59 415 59 424 63 c 1,19,-1
 424 517 l 1,20,-1
 489 517 l 1,21,-1
 489 18 l 1,22,23
 460 10 460 10 411 0 c 128,-1,24
 362 -10 362 -10 291 -10 c 0,0,1
EndSplineSet
EndChar

StartChar: paragraph
Encoding: 182 182 145
Width: 616
Flags: W
LayerCount: 2
Fore
SplineSet
457 638 m 1,0,1
 443 640 443 640 419.5 641.5 c 128,-1,2
 396 643 396 643 377 643 c 0,3,4
 369 643 369 643 360 642.5 c 128,-1,5
 351 642 351 642 346 641 c 1,6,-1
 346 -185 l 1,7,-1
 288 -185 l 1,8,-1
 288 264 l 1,9,10
 233 268 233 268 188 283 c 128,-1,11
 143 298 143 298 111.5 324.5 c 128,-1,12
 80 351 80 351 63 389.5 c 128,-1,13
 46 428 46 428 46 480 c 0,14,15
 46 535 46 535 69.5 576 c 128,-1,16
 93 617 93 617 135 644.5 c 128,-1,17
 177 672 177 672 235.5 685.5 c 128,-1,18
 294 699 294 699 364 699 c 0,19,20
 396 699 396 699 438 696.5 c 128,-1,21
 480 694 480 694 515 686 c 1,22,-1
 515 -185 l 1,23,-1
 457 -185 l 1,24,-1
 457 638 l 1,0,1
EndSplineSet
EndChar

StartChar: cedilla
Encoding: 184 184 147
Width: 376
Flags: W
LayerCount: 2
Fore
SplineSet
206 -36 m 1,0,1
 234 -48 234 -48 250.5 -65.5 c 128,-1,2
 267 -83 267 -83 267 -112 c 0,3,4
 267 -124 267 -124 263 -137.5 c 128,-1,5
 259 -151 259 -151 248 -162 c 128,-1,6
 237 -173 237 -173 218 -180 c 128,-1,7
 199 -187 199 -187 169 -187 c 0,8,9
 149 -187 149 -187 128 -183.5 c 128,-1,10
 107 -180 107 -180 98 -175 c 1,11,-1
 106 -132 l 1,12,13
 117 -137 117 -137 131 -139 c 128,-1,14
 145 -141 145 -141 165 -141 c 0,15,16
 206 -141 206 -141 206 -112 c 0,17,18
 206 -95 206 -95 192 -86 c 128,-1,19
 178 -77 178 -77 148 -65 c 1,20,21
 151 -55 151 -55 157 -42 c 128,-1,22
 163 -29 163 -29 169 -17 c 128,-1,23
 175 -5 175 -5 180.5 5 c 128,-1,24
 186 15 186 15 189 20 c 1,25,-1
 235 20 l 1,26,27
 228 9 228 9 219.5 -7.5 c 128,-1,28
 211 -24 211 -24 206 -36 c 1,0,1
EndSplineSet
EndChar

StartChar: onesuperior
Encoding: 185 185 148
Width: 359
Flags: W
LayerCount: 2
Fore
SplineSet
74 578 m 1,0,-1
 61 620 l 1,1,2
 96 631 96 631 131 650.5 c 128,-1,3
 166 670 166 670 191 699 c 1,4,-1
 228 699 l 1,5,-1
 228 317 l 1,6,-1
 174 317 l 1,7,-1
 174 621 l 1,8,9
 163 613 163 613 148.5 606 c 128,-1,10
 134 599 134 599 120 593 c 128,-1,11
 106 587 106 587 93.5 583 c 128,-1,12
 81 579 81 579 74 578 c 1,0,-1
EndSplineSet
Substitution2: "Single Substitution lookup 26 subtable" oneinferior
Substitution2: "'sinf' Scientific Inferiors lookup 13 subtable" one.sinf
Substitution2: "'subs' Subscript lookup 12 subtable" one.sinf
Substitution2: "'sups' Superscript lookup 11 subtable" one.sups
Substitution2: "'dnom' Denominators lookup 10 subtable" oneinferior
EndChar

StartChar: ordmasculine
Encoding: 186 186 149
Width: 437
Flags: W
LayerCount: 2
Fore
SplineSet
391 518 m 256,0,1
 391 476 391 476 378 441.5 c 128,-1,2
 365 407 365 407 342 382.5 c 128,-1,3
 319 358 319 358 287 344.5 c 128,-1,4
 255 331 255 331 218 331 c 256,5,6
 181 331 181 331 149.5 344.5 c 128,-1,7
 118 358 118 358 95 382.5 c 128,-1,8
 72 407 72 407 59 441.5 c 128,-1,9
 46 476 46 476 46 518 c 256,10,11
 46 560 46 560 59 594.5 c 128,-1,12
 72 629 72 629 95 653.5 c 128,-1,13
 118 678 118 678 149.5 691.5 c 128,-1,14
 181 705 181 705 218 705 c 256,15,16
 255 705 255 705 287 691.5 c 128,-1,17
 319 678 319 678 342 653.5 c 128,-1,18
 365 629 365 629 378 594.5 c 128,-1,19
 391 560 391 560 391 518 c 256,0,1
332 518 m 256,20,21
 332 581 332 581 301 618.5 c 128,-1,22
 270 656 270 656 218 656 c 0,23,24
 167 656 167 656 136 618.5 c 128,-1,25
 105 581 105 581 105 518 c 256,26,27
 105 455 105 455 136 417.5 c 128,-1,28
 167 380 167 380 218 380 c 0,29,30
 270 380 270 380 301 417.5 c 128,-1,31
 332 455 332 455 332 518 c 256,20,21
EndSplineSet
EndChar

StartChar: questiondown
Encoding: 191 191 154
Width: 380
Flags: W
LayerCount: 2
Fore
SplineSet
99 -39 m 0,0,1
 99 -65 99 -65 109 -82 c 128,-1,2
 119 -99 119 -99 135.5 -109 c 128,-1,3
 152 -119 152 -119 174.5 -123.5 c 128,-1,4
 197 -128 197 -128 222 -128 c 0,5,6
 288 -128 288 -128 344 -98 c 1,7,-1
 363 -152 l 1,8,9
 342 -164 342 -164 302.5 -175 c 128,-1,10
 263 -186 263 -186 215 -186 c 0,11,12
 161 -186 161 -186 125.5 -172.5 c 128,-1,13
 90 -159 90 -159 68.5 -138.5 c 128,-1,14
 47 -118 47 -118 38.5 -93 c 128,-1,15
 30 -68 30 -68 30 -45 c 0,16,17
 30 -11 30 -11 42.5 17 c 128,-1,18
 55 45 55 45 74 69 c 128,-1,19
 93 93 93 93 115.5 116 c 128,-1,20
 138 139 138 139 157 163 c 128,-1,21
 176 187 176 187 188.5 214.5 c 128,-1,22
 201 242 201 242 201 276 c 0,23,24
 201 282 201 282 201 284.5 c 128,-1,25
 201 287 201 287 200 292 c 1,26,-1
 251 292 l 1,27,28
 255 275 255 275 255 255 c 0,29,30
 255 223 255 223 243.5 196.5 c 128,-1,31
 232 170 232 170 214.5 147 c 128,-1,32
 197 124 197 124 177 102 c 128,-1,33
 157 80 157 80 139.5 58 c 128,-1,34
 122 36 122 36 110.5 12.5 c 128,-1,35
 99 -11 99 -11 99 -39 c 0,0,1
274 462 m 256,36,37
 274 439 274 439 259.5 423 c 128,-1,38
 245 407 245 407 219 407 c 256,39,40
 193 407 193 407 178.5 423 c 128,-1,41
 164 439 164 439 164 462 c 256,42,43
 164 485 164 485 178.5 501 c 128,-1,44
 193 517 193 517 219 517 c 256,45,46
 245 517 245 517 259.5 501 c 128,-1,47
 274 485 274 485 274 462 c 256,36,37
EndSplineSet
Substitution2: "'case' Case-Sensitive Forms lookup 18 subtable" Questiondown
EndChar

StartChar: Aring
Encoding: 197 197 160
Width: 641
Flags: W
LayerCount: 2
Fore
SplineSet
415 742 m 0,0,1
 415 713 415 713 401.5 691 c 128,-1,2
 388 669 388 669 367 657 c 1,3,4
 401 585 401 585 432 511.5 c 128,-1,5
 463 438 463 438 494.5 358.5 c 128,-1,6
 526 279 526 279 559.5 190.5 c 128,-1,7
 593 102 593 102 631 0 c 1,8,-1
 556 0 l 1,9,10
 537 51 537 51 520 98 c 128,-1,11
 503 145 503 145 487 190 c 1,12,-1
 150 190 l 1,13,14
 133 145 133 145 116 98 c 128,-1,15
 99 51 99 51 81 0 c 1,16,-1
 10 0 l 1,17,18
 47 102 47 102 80 190.5 c 128,-1,19
 113 279 113 279 144.5 358.5 c 128,-1,20
 176 438 176 438 207 511.5 c 128,-1,21
 238 585 238 585 272 657 c 1,22,23
 250 669 250 669 237 691 c 128,-1,24
 224 713 224 713 224 742 c 0,25,26
 224 785 224 785 252.5 811 c 128,-1,27
 281 837 281 837 320 837 c 0,28,29
 339 837 339 837 356.5 830 c 128,-1,30
 374 823 374 823 387 810.5 c 128,-1,31
 400 798 400 798 407.5 780.5 c 128,-1,32
 415 763 415 763 415 742 c 0,0,1
318 615 m 1,33,34
 280 529 280 529 244.5 440 c 128,-1,35
 209 351 209 351 171 248 c 1,36,-1
 466 248 l 1,37,38
 428 351 428 351 392 440 c 128,-1,39
 356 529 356 529 318 615 c 1,33,34
377 742 m 0,40,41
 377 770 377 770 360.5 785.5 c 128,-1,42
 344 801 344 801 320 801 c 256,43,44
 296 801 296 801 279.5 785.5 c 128,-1,45
 263 770 263 770 263 742 c 0,46,47
 263 713 263 713 279.5 698 c 128,-1,48
 296 683 296 683 320 683 c 256,49,50
 344 683 344 683 360.5 698 c 128,-1,51
 377 713 377 713 377 742 c 0,40,41
EndSplineSet
EndChar

StartChar: AE
Encoding: 198 198 161
Width: 915
Flags: W
LayerCount: 2
Fore
SplineSet
464 0 m 1,0,-1
 464 190 l 1,1,-1
 177 190 l 1,2,3
 151 142 151 142 125.5 95 c 128,-1,4
 100 48 100 48 76 0 c 1,5,-1
 6 0 l 1,6,7
 60 107 60 107 113.5 201 c 128,-1,8
 167 295 167 295 220 379.5 c 128,-1,9
 273 464 273 464 326 541.5 c 128,-1,10
 379 619 379 619 433 693 c 1,11,-1
 850 693 l 1,12,-1
 850 634 l 1,13,-1
 532 634 l 1,14,-1
 532 393 l 1,15,-1
 814 393 l 1,16,-1
 814 335 l 1,17,-1
 532 335 l 1,18,-1
 532 59 l 1,19,-1
 876 59 l 1,20,-1
 876 0 l 1,21,-1
 464 0 l 1,0,-1
464 637 m 1,22,23
 395 544 395 544 332 447.5 c 128,-1,24
 269 351 269 351 210 248 c 1,25,-1
 464 248 l 1,26,-1
 464 637 l 1,22,23
EndSplineSet
EndChar

StartChar: Ccedilla
Encoding: 199 199 162
Width: 609
Flags: W
LayerCount: 2
Fore
SplineSet
364 -36 m 1,0,1
 392 -48 392 -48 408.5 -65.5 c 128,-1,2
 425 -83 425 -83 425 -112 c 0,3,4
 425 -124 425 -124 421 -137.5 c 128,-1,5
 417 -151 417 -151 406 -162 c 128,-1,6
 395 -173 395 -173 376 -180 c 128,-1,7
 357 -187 357 -187 327 -187 c 0,8,9
 307 -187 307 -187 286 -183.5 c 128,-1,10
 265 -180 265 -180 256 -175 c 1,11,-1
 264 -132 l 1,12,13
 275 -137 275 -137 289 -139 c 128,-1,14
 303 -141 303 -141 323 -141 c 0,15,16
 364 -141 364 -141 364 -112 c 0,17,18
 364 -95 364 -95 350 -86 c 128,-1,19
 336 -77 336 -77 306 -65 c 1,20,21
 310 -54 310 -54 316 -39.5 c 128,-1,22
 322 -25 322 -25 329 -11 c 1,23,24
 271 -3 271 -3 222 24 c 128,-1,25
 173 51 173 51 137.5 96.5 c 128,-1,26
 102 142 102 142 82 204.5 c 128,-1,27
 62 267 62 267 62 347 c 0,28,29
 62 434 62 434 88.5 501.5 c 128,-1,30
 115 569 115 569 159 615 c 128,-1,31
 203 661 203 661 261 684.5 c 128,-1,32
 319 708 319 708 382 708 c 0,33,34
 421 708 421 708 453 703 c 128,-1,35
 485 698 485 698 509 690.5 c 128,-1,36
 533 683 533 683 550 675.5 c 128,-1,37
 567 668 567 668 576 662 c 1,38,-1
 554 603 l 1,39,40
 529 618 529 618 490.5 632.5 c 128,-1,41
 452 647 452 647 395 647 c 0,42,43
 330 647 330 647 281.5 625 c 128,-1,44
 233 603 233 603 200 563 c 128,-1,45
 167 523 167 523 150.5 468 c 128,-1,46
 134 413 134 413 134 346 c 0,47,48
 134 277 134 277 150.5 221.5 c 128,-1,49
 167 166 167 166 199 127 c 128,-1,50
 231 88 231 88 277.5 67 c 128,-1,51
 324 46 324 46 384 46 c 0,52,53
 450 46 450 46 494.5 58.5 c 128,-1,54
 539 71 539 71 562 84 c 1,55,-1
 581 26 l 1,56,57
 574 21 574 21 557 14.5 c 128,-1,58
 540 8 540 8 514 1 c 128,-1,59
 488 -6 488 -6 454 -10.5 c 128,-1,60
 420 -15 420 -15 378 -15 c 2,61,-1
 373 -15 l 1,62,63
 370 -20 370 -20 368 -25.5 c 128,-1,64
 366 -31 366 -31 364 -36 c 1,0,1
EndSplineSet
EndChar

StartChar: Eth
Encoding: 208 208 171
Width: 716
Flags: W
LayerCount: 2
Fore
SplineSet
654 347 m 0,0,1
 654 258 654 258 626 192 c 128,-1,2
 598 126 598 126 547.5 82 c 128,-1,3
 497 38 497 38 427 16 c 128,-1,4
 357 -6 357 -6 273 -6 c 0,5,6
 231 -6 231 -6 185 -1.5 c 128,-1,7
 139 3 139 3 104 12 c 1,8,-1
 104 335 l 1,9,-1
 24 335 l 1,10,-1
 24 390 l 1,11,-1
 104 390 l 1,12,-1
 104 680 l 1,13,14
 139 690 139 690 185 694.5 c 128,-1,15
 231 699 231 699 273 699 c 0,16,17
 357 699 357 699 427 677 c 128,-1,18
 497 655 497 655 547.5 611 c 128,-1,19
 598 567 598 567 626 501 c 128,-1,20
 654 435 654 435 654 347 c 0,0,1
172 60 m 1,21,22
 178 59 178 59 202.5 56 c 128,-1,23
 227 53 227 53 281 53 c 0,24,25
 356 53 356 53 412 73.5 c 128,-1,26
 468 94 468 94 506 132 c 128,-1,27
 544 170 544 170 563 224.5 c 128,-1,28
 582 279 582 279 582 347 c 256,29,30
 582 415 582 415 563 469 c 128,-1,31
 544 523 544 523 506 561 c 128,-1,32
 468 599 468 599 412 619.5 c 128,-1,33
 356 640 356 640 281 640 c 0,34,35
 227 640 227 640 202.5 637 c 128,-1,36
 178 634 178 634 172 633 c 1,37,-1
 172 390 l 1,38,-1
 304 390 l 1,39,-1
 304 335 l 1,40,-1
 172 335 l 1,41,-1
 172 60 l 1,21,22
EndSplineSet
EndChar

StartChar: multiply
Encoding: 215 215 178
Width: 564
Flags: W
LayerCount: 2
Fore
SplineSet
129 486 m 1,0,-1
 282 332 l 1,1,-1
 435 486 l 1,2,-1
 474 447 l 1,3,-1
 320 294 l 1,4,-1
 474 141 l 1,5,-1
 435 102 l 1,6,-1
 282 256 l 1,7,-1
 129 102 l 1,8,-1
 90 141 l 1,9,-1
 244 294 l 1,10,-1
 90 447 l 1,11,-1
 129 486 l 1,0,-1
EndSplineSet
EndChar

StartChar: Oslash
Encoding: 216 216 179
Width: 774
Flags: W
LayerCount: 2
Fore
SplineSet
712 347 m 0,0,1
 712 258 712 258 686 190 c 128,-1,2
 660 122 660 122 615.5 76.5 c 128,-1,3
 571 31 571 31 512 8 c 128,-1,4
 453 -15 453 -15 387 -15 c 0,5,6
 333 -15 333 -15 284.5 0 c 128,-1,7
 236 15 236 15 194 46 c 1,8,-1
 133 -34 l 1,9,-1
 85 2 l 1,10,-1
 150 86 l 1,11,12
 108 131 108 131 85 196.5 c 128,-1,13
 62 262 62 262 62 347 c 0,14,15
 62 436 62 436 88 503.5 c 128,-1,16
 114 571 114 571 158.5 616.5 c 128,-1,17
 203 662 203 662 262 685 c 128,-1,18
 321 708 321 708 387 708 c 0,19,20
 441 708 441 708 490.5 692.5 c 128,-1,21
 540 677 540 677 582 645 c 1,22,-1
 646 728 l 1,23,-1
 694 692 l 1,24,-1
 626 604 l 1,25,26
 666 559 666 559 689 495 c 128,-1,27
 712 431 712 431 712 347 c 0,0,1
134 347 m 0,28,29
 134 283 134 283 149 230.5 c 128,-1,30
 164 178 164 178 192 140 c 1,31,-1
 543 594 l 1,32,33
 478 647 478 647 387 647 c 0,34,35
 329 647 329 647 282.5 626.5 c 128,-1,36
 236 606 236 606 203 567 c 128,-1,37
 170 528 170 528 152 472.5 c 128,-1,38
 134 417 134 417 134 347 c 0,28,29
640 347 m 0,39,40
 640 410 640 410 625.5 461 c 128,-1,41
 611 512 611 512 584 550 c 1,42,-1
 233 96 l 1,43,44
 295 46 295 46 387 46 c 0,45,46
 445 46 445 46 491.5 67 c 128,-1,47
 538 88 538 88 571 127 c 128,-1,48
 604 166 604 166 622 221.5 c 128,-1,49
 640 277 640 277 640 347 c 0,39,40
EndSplineSet
EndChar

StartChar: Thorn
Encoding: 222 222 185
Width: 593
Flags: W
LayerCount: 2
Fore
SplineSet
158 570 m 1,0,1
 175 572 175 572 206.5 574 c 128,-1,2
 238 576 238 576 263 576 c 0,3,4
 411 576 411 576 483.5 519.5 c 128,-1,5
 556 463 556 463 556 361 c 0,6,7
 556 302 556 302 535 260.5 c 128,-1,8
 514 219 514 219 475 193.5 c 128,-1,9
 436 168 436 168 379.5 156.5 c 128,-1,10
 323 145 323 145 252 145 c 2,11,-1
 158 145 l 1,12,-1
 158 0 l 1,13,-1
 90 0 l 1,14,-1
 90 693 l 1,15,-1
 158 693 l 1,16,-1
 158 570 l 1,0,1
266 517 m 0,17,18
 230 517 230 517 202.5 515 c 128,-1,19
 175 513 175 513 158 511 c 1,20,-1
 158 204 l 1,21,-1
 244 204 l 2,22,23
 299 204 299 204 343.5 210.5 c 128,-1,24
 388 217 388 217 419.5 234.5 c 128,-1,25
 451 252 451 252 468 283 c 128,-1,26
 485 314 485 314 485 362 c 0,27,28
 485 408 485 408 466.5 438 c 128,-1,29
 448 468 448 468 417.5 485.5 c 128,-1,30
 387 503 387 503 347.5 510 c 128,-1,31
 308 517 308 517 266 517 c 0,17,18
EndSplineSet
EndChar

StartChar: germandbls
Encoding: 223 223 186
Width: 596
Flags: W
LayerCount: 2
Fore
SplineSet
475 619 m 0,0,1
 475 593 475 593 466.5 571.5 c 128,-1,2
 458 550 458 550 445.5 533 c 128,-1,3
 433 516 433 516 419 502 c 128,-1,4
 405 488 405 488 395 478 c 0,5,6
 381 464 381 464 371.5 453.5 c 128,-1,7
 362 443 362 443 356 434 c 128,-1,8
 350 425 350 425 347.5 416 c 128,-1,9
 345 407 345 407 345 396 c 0,10,11
 345 382 345 382 351.5 371 c 128,-1,12
 358 360 358 360 368.5 352 c 128,-1,13
 379 344 379 344 392 337.5 c 128,-1,14
 405 331 405 331 418 325 c 0,15,16
 448 311 448 311 474.5 296 c 128,-1,17
 501 281 501 281 520.5 261 c 128,-1,18
 540 241 540 241 551 213 c 128,-1,19
 562 185 562 185 562 145 c 0,20,21
 562 70 562 70 511 29 c 128,-1,22
 460 -12 460 -12 369 -12 c 0,23,24
 320 -12 320 -12 285 -1.5 c 128,-1,25
 250 9 250 9 240 14 c 1,26,-1
 254 74 l 1,27,28
 262 69 262 69 292.5 57 c 128,-1,29
 323 45 323 45 381 45 c 0,30,31
 435 45 435 45 465 72 c 128,-1,32
 495 99 495 99 495 145 c 0,33,34
 495 167 495 167 489.5 183.5 c 128,-1,35
 484 200 484 200 471 214 c 128,-1,36
 458 228 458 228 438 240.5 c 128,-1,37
 418 253 418 253 390 268 c 0,38,39
 357 285 357 285 335.5 298 c 128,-1,40
 314 311 314 311 301.5 324.5 c 128,-1,41
 289 338 289 338 284 353 c 128,-1,42
 279 368 279 368 279 390 c 0,43,44
 279 424 279 424 298.5 450 c 128,-1,45
 318 476 318 476 344 503 c 0,46,47
 359 519 359 519 371.5 531.5 c 128,-1,48
 384 544 384 544 392.5 557 c 128,-1,49
 401 570 401 570 405.5 584 c 128,-1,50
 410 598 410 598 410 616 c 0,51,52
 410 661 410 661 379 689.5 c 128,-1,53
 348 718 348 718 295 718 c 0,54,55
 218 718 218 718 184.5 675 c 128,-1,56
 151 632 151 632 151 560 c 2,57,-1
 151 0 l 1,58,-1
 86 0 l 1,59,-1
 86 564 l 2,60,61
 86 612 86 612 100 651.5 c 128,-1,62
 114 691 114 691 140.5 718.5 c 128,-1,63
 167 746 167 746 204 761 c 128,-1,64
 241 776 241 776 287 776 c 0,65,66
 385 776 385 776 430 732.5 c 128,-1,67
 475 689 475 689 475 619 c 0,0,1
EndSplineSet
EndChar

StartChar: ae
Encoding: 230 230 193
Width: 854
Flags: W
LayerCount: 2
Fore
SplineSet
728 300 m 1,0,1
 726 381 726 381 690 426 c 128,-1,2
 654 471 654 471 588 471 c 0,3,4
 553 471 553 471 525.5 457 c 128,-1,5
 498 443 498 443 477.5 419.5 c 128,-1,6
 457 396 457 396 445.5 365 c 128,-1,7
 434 334 434 334 432 300 c 1,8,-1
 728 300 l 1,0,1
252 -11 m 0,9,10
 208 -11 208 -11 170.5 -2 c 128,-1,11
 133 7 133 7 106 26.5 c 128,-1,12
 79 46 79 46 63.5 76.5 c 128,-1,13
 48 107 48 107 48 151 c 0,14,15
 48 193 48 193 64 223 c 128,-1,16
 80 253 80 253 109 272.5 c 128,-1,17
 138 292 138 292 178 301 c 128,-1,18
 218 310 218 310 265 310 c 0,19,20
 279 310 279 310 294.5 308.5 c 128,-1,21
 310 307 310 307 324.5 304.5 c 128,-1,22
 339 302 339 302 349.5 299.5 c 128,-1,23
 360 297 360 297 364 295 c 1,24,-1
 364 327 l 2,25,26
 364 354 364 354 360 379.5 c 128,-1,27
 356 405 356 405 342.5 425.5 c 128,-1,28
 329 446 329 446 304.5 458.5 c 128,-1,29
 280 471 280 471 240 471 c 0,30,31
 186 471 186 471 156 463.5 c 128,-1,32
 126 456 126 456 113 451 c 1,33,-1
 105 507 l 1,34,35
 122 515 122 515 158 522 c 128,-1,36
 194 529 194 529 243 529 c 0,37,38
 314 529 314 529 354.5 502.5 c 128,-1,39
 395 476 395 476 412 431 c 1,40,41
 445 480 445 480 491 504.5 c 128,-1,42
 537 529 537 529 587 529 c 0,43,44
 682 529 682 529 738.5 467 c 128,-1,45
 795 405 795 405 795 276 c 0,46,47
 795 268 795 268 794.5 260 c 128,-1,48
 794 252 794 252 793 245 c 1,49,-1
 430 245 l 1,50,51
 433 150 433 150 477 99 c 128,-1,52
 521 48 521 48 617 48 c 0,53,54
 670 48 670 48 701 58 c 128,-1,55
 732 68 732 68 746 75 c 1,56,-1
 758 19 l 1,57,58
 744 11 744 11 705.5 0 c 128,-1,59
 667 -11 667 -11 615 -11 c 0,60,61
 558 -11 558 -11 514 3 c 128,-1,62
 470 17 470 17 437 49 c 1,63,64
 426 40 426 40 409.5 29.5 c 128,-1,65
 393 19 393 19 370 10 c 128,-1,66
 347 1 347 1 318 -5 c 128,-1,67
 289 -11 289 -11 252 -11 c 0,9,10
365 238 m 1,68,69
 354 243 354 243 329.5 248.5 c 128,-1,70
 305 254 305 254 263 254 c 0,71,72
 239 254 239 254 213 250.5 c 128,-1,73
 187 247 187 247 165 235.5 c 128,-1,74
 143 224 143 224 129 204 c 128,-1,75
 115 184 115 184 115 151 c 0,76,77
 115 122 115 122 125 102 c 128,-1,78
 135 82 135 82 153.5 70 c 128,-1,79
 172 58 172 58 197 52.5 c 128,-1,80
 222 47 222 47 252 47 c 0,81,82
 314 47 314 47 350 63.5 c 128,-1,83
 386 80 386 80 400 93 c 1,84,85
 384 119 384 119 375 154.5 c 128,-1,86
 366 190 366 190 365 238 c 1,68,69
EndSplineSet
Substitution2: "'case' Case-Sensitive Forms lookup 19 subtable" AE
EndChar

StartChar: ccedilla
Encoding: 231 231 194
Width: 460
Flags: W
LayerCount: 2
Fore
SplineSet
294 -36 m 1,0,1
 322 -48 322 -48 338.5 -65.5 c 128,-1,2
 355 -83 355 -83 355 -112 c 0,3,4
 355 -124 355 -124 351 -137.5 c 128,-1,5
 347 -151 347 -151 336 -162 c 128,-1,6
 325 -173 325 -173 306 -180 c 128,-1,7
 287 -187 287 -187 257 -187 c 0,8,9
 237 -187 237 -187 216 -183.5 c 128,-1,10
 195 -180 195 -180 186 -175 c 1,11,-1
 194 -132 l 1,12,13
 205 -137 205 -137 219 -139 c 128,-1,14
 233 -141 233 -141 253 -141 c 0,15,16
 294 -141 294 -141 294 -112 c 0,17,18
 294 -95 294 -95 280 -86 c 128,-1,19
 266 -77 266 -77 236 -65 c 1,20,21
 240 -53 240 -53 246.5 -37.5 c 128,-1,22
 253 -22 253 -22 261 -8 c 1,23,24
 160 4 160 4 107.5 75 c 128,-1,25
 55 146 55 146 55 257 c 0,26,27
 55 318 55 318 71.5 368 c 128,-1,28
 88 418 88 418 119 454 c 128,-1,29
 150 490 150 490 194 509.5 c 128,-1,30
 238 529 238 529 293 529 c 0,31,32
 335 529 335 529 371.5 522 c 128,-1,33
 408 515 408 515 428 504 c 1,34,-1
 411 448 l 1,35,36
 391 458 391 458 366 464 c 128,-1,37
 341 470 341 470 299 470 c 0,38,39
 213 470 213 470 168.5 414.5 c 128,-1,40
 124 359 124 359 124 257 c 0,41,42
 124 211 124 211 134 172.5 c 128,-1,43
 144 134 144 134 166.5 106.5 c 128,-1,44
 189 79 189 79 224.5 63.5 c 128,-1,45
 260 48 260 48 311 48 c 0,46,47
 353 48 353 48 381.5 57.5 c 128,-1,48
 410 67 410 67 423 74 c 1,49,-1
 437 18 l 1,50,51
 420 8 420 8 383 -1 c 128,-1,52
 346 -10 346 -10 305 -11 c 1,53,54
 302 -18 302 -18 299 -24.5 c 128,-1,55
 296 -31 296 -31 294 -36 c 1,0,1
EndSplineSet
Substitution2: "'case' Case-Sensitive Forms lookup 19 subtable" Ccedilla
EndChar

StartChar: eth
Encoding: 240 240 203
Width: 578
Flags: W
LayerCount: 2
Fore
SplineSet
433 634 m 1,0,1
 474 571 474 571 496 495 c 128,-1,2
 518 419 518 419 518 330 c 0,3,4
 518 270 518 270 508.5 209 c 128,-1,5
 499 148 499 148 472.5 99 c 128,-1,6
 446 50 446 50 399 19 c 128,-1,7
 352 -12 352 -12 277 -12 c 0,8,9
 225 -12 225 -12 184 8.5 c 128,-1,10
 143 29 143 29 114.5 64 c 128,-1,11
 86 99 86 99 70.5 145.5 c 128,-1,12
 55 192 55 192 55 245 c 0,13,14
 55 303 55 303 72 348 c 128,-1,15
 89 393 89 393 119.5 424 c 128,-1,16
 150 455 150 455 192.5 471 c 128,-1,17
 235 487 235 487 286 487 c 0,18,19
 316 487 316 487 340.5 481.5 c 128,-1,20
 365 476 365 476 384.5 468 c 128,-1,21
 404 460 404 460 418.5 451 c 128,-1,22
 433 442 433 442 441 435 c 1,23,24
 436 477 436 477 419 523 c 128,-1,25
 402 569 402 569 373 613 c 1,26,-1
 242 567 l 1,27,-1
 225 612 l 1,28,-1
 343 653 l 1,29,30
 302 702 302 702 245 737 c 1,31,-1
 288 776 l 1,32,33
 355 735 355 735 403 675 c 1,34,-1
 523 717 l 1,35,-1
 540 672 l 1,36,-1
 433 634 l 1,0,1
450 331 m 0,37,38
 450 340 450 340 450 348.5 c 128,-1,39
 450 357 450 357 449 366 c 1,40,41
 414 401 414 401 375 415 c 128,-1,42
 336 429 336 429 294 429 c 0,43,44
 249 429 249 429 216.5 414.5 c 128,-1,45
 184 400 184 400 163.5 375.5 c 128,-1,46
 143 351 143 351 133 317.5 c 128,-1,47
 123 284 123 284 123 245 c 0,48,49
 123 205 123 205 133 169 c 128,-1,50
 143 133 143 133 162.5 106 c 128,-1,51
 182 79 182 79 210.5 63 c 128,-1,52
 239 47 239 47 277 47 c 0,53,54
 331 47 331 47 364.5 71.5 c 128,-1,55
 398 96 398 96 417 136 c 128,-1,56
 436 176 436 176 443 227 c 128,-1,57
 450 278 450 278 450 331 c 0,37,38
EndSplineSet
Substitution2: "'case' Case-Sensitive Forms lookup 19 subtable" Eth
EndChar

StartChar: divide
Encoding: 247 247 210
Width: 564
Flags: W
LayerCount: 2
Fore
SplineSet
281 51 m 0,0,1
 261 51 261 51 247.5 65 c 128,-1,2
 234 79 234 79 234 100 c 0,3,4
 234 122 234 122 247.5 136 c 128,-1,5
 261 150 261 150 281 150 c 0,6,7
 302 150 302 150 315.5 136 c 128,-1,8
 329 122 329 122 329 100 c 0,9,10
 329 79 329 79 315.5 65 c 128,-1,11
 302 51 302 51 281 51 c 0,0,1
281 427 m 0,12,13
 261 427 261 427 247.5 441 c 128,-1,14
 234 455 234 455 234 477 c 0,15,16
 234 498 234 498 247.5 512 c 128,-1,17
 261 526 261 526 281 526 c 0,18,19
 302 526 302 526 315.5 512 c 128,-1,20
 329 498 329 498 329 477 c 0,21,22
 329 455 329 455 315.5 441 c 128,-1,23
 302 427 302 427 281 427 c 0,12,13
56 317 m 1,24,-1
 508 317 l 1,25,-1
 508 261 l 1,26,-1
 56 261 l 1,27,-1
 56 317 l 1,24,-1
EndSplineSet
EndChar

StartChar: oslash
Encoding: 248 248 211
Width: 582
Flags: W
LayerCount: 2
Fore
SplineSet
527 258 m 0,0,1
 527 197 527 197 509.5 147 c 128,-1,2
 492 97 492 97 460.5 62 c 128,-1,3
 429 27 429 27 386 7.5 c 128,-1,4
 343 -12 343 -12 291 -12 c 0,5,6
 211 -12 211 -12 152 33 c 1,7,-1
 101 -34 l 1,8,-1
 58 -2 l 1,9,-1
 114 70 l 1,10,11
 85 105 85 105 70 152.5 c 128,-1,12
 55 200 55 200 55 258 c 0,13,14
 55 319 55 319 72.5 369 c 128,-1,15
 90 419 90 419 121.5 454.5 c 128,-1,16
 153 490 153 490 196 509.5 c 128,-1,17
 239 529 239 529 291 529 c 0,18,19
 372 529 372 529 432 481 c 1,20,-1
 483 548 l 1,21,-1
 525 517 l 1,22,-1
 469 444 l 1,23,24
 497 409 497 409 512 362 c 128,-1,25
 527 315 527 315 527 258 c 0,0,1
124 258 m 0,26,27
 124 178 124 178 155 124 c 1,28,-1
 394 432 l 1,29,30
 374 450 374 450 348 460 c 128,-1,31
 322 470 322 470 291 470 c 0,32,33
 214 470 214 470 169 412.5 c 128,-1,34
 124 355 124 355 124 258 c 0,26,27
458 258 m 0,35,36
 458 336 458 336 427 390 c 1,37,-1
 190 82 l 1,38,39
 231 47 231 47 291 47 c 0,40,41
 368 47 368 47 413 104 c 128,-1,42
 458 161 458 161 458 258 c 0,35,36
EndSplineSet
Substitution2: "'case' Case-Sensitive Forms lookup 19 subtable" Oslash
EndChar

StartChar: thorn
Encoding: 254 254 217
Width: 583
Flags: W
LayerCount: 2
Fore
SplineSet
151 776 m 1,0,-1
 151 502 l 1,1,2
 215 527 215 527 278 527 c 0,3,4
 334 527 334 527 380 508 c 128,-1,5
 426 489 426 489 459 454 c 128,-1,6
 492 419 492 419 510 369 c 128,-1,7
 528 319 528 319 528 257 c 0,8,9
 528 198 528 198 512.5 148.5 c 128,-1,10
 497 99 497 99 467 63.5 c 128,-1,11
 437 28 437 28 393.5 8 c 128,-1,12
 350 -12 350 -12 294 -12 c 0,13,14
 243 -12 243 -12 205.5 2.5 c 128,-1,15
 168 17 168 17 151 30 c 1,16,-1
 151 -185 l 1,17,-1
 86 -185 l 1,18,-1
 86 764 l 1,19,-1
 151 776 l 1,0,-1
151 93 m 1,20,21
 160 86 160 86 173.5 78 c 128,-1,22
 187 70 187 70 205 63 c 128,-1,23
 223 56 223 56 244 51.5 c 128,-1,24
 265 47 265 47 288 47 c 0,25,26
 336 47 336 47 368.5 63.5 c 128,-1,27
 401 80 401 80 421 108.5 c 128,-1,28
 441 137 441 137 450 175.5 c 128,-1,29
 459 214 459 214 459 257 c 0,30,31
 459 358 459 358 407.5 413 c 128,-1,32
 356 468 356 468 272 468 c 0,33,34
 230 468 230 468 196 459 c 128,-1,35
 162 450 162 450 151 445 c 1,36,-1
 151 93 l 1,20,21
EndSplineSet
Substitution2: "'case' Case-Sensitive Forms lookup 19 subtable" Thorn
EndChar

StartChar: Aogonek
Encoding: 260 260 223
Width: 641
Flags: W
LayerCount: 2
Fore
SplineSet
539 -15 m 0,0,1
 544 -10 544 -10 548 -6.5 c 128,-1,2
 552 -3 552 -3 556 0 c 1,3,4
 537 51 537 51 520 98 c 128,-1,5
 503 145 503 145 487 190 c 1,6,-1
 150 190 l 1,7,8
 133 145 133 145 116 98 c 128,-1,9
 99 51 99 51 81 0 c 1,10,-1
 10 0 l 1,11,12
 50 108 50 108 85 201.5 c 128,-1,13
 120 295 120 295 153.5 378.5 c 128,-1,14
 187 462 187 462 220 539 c 128,-1,15
 253 616 253 616 290 693 c 1,16,-1
 350 693 l 1,17,18
 387 616 387 616 420 539 c 128,-1,19
 453 462 453 462 486 379 c 128,-1,20
 519 296 519 296 554 203 c 128,-1,21
 589 110 589 110 630 2 c 1,22,23
 619 -6 619 -6 608 -15.5 c 128,-1,24
 597 -25 597 -25 585 -38 c 0,25,26
 569 -55 569 -55 559.5 -69.5 c 128,-1,27
 550 -84 550 -84 550 -101 c 0,28,29
 550 -119 550 -119 562 -127 c 128,-1,30
 574 -135 574 -135 592 -135 c 0,31,32
 601 -135 601 -135 611.5 -133.5 c 128,-1,33
 622 -132 622 -132 630 -129 c 1,34,-1
 635 -177 l 1,35,36
 627 -180 627 -180 611.5 -183 c 128,-1,37
 596 -186 596 -186 581 -186 c 0,38,39
 527 -186 527 -186 505 -166.5 c 128,-1,40
 483 -147 483 -147 483 -116 c 256,41,42
 483 -85 483 -85 500 -60.5 c 128,-1,43
 517 -36 517 -36 539 -15 c 0,0,1
318 615 m 1,44,45
 280 529 280 529 244.5 440 c 128,-1,46
 209 351 209 351 171 248 c 1,47,-1
 466 248 l 1,48,49
 428 351 428 351 392 440 c 128,-1,50
 356 529 356 529 318 615 c 1,44,45
EndSplineSet
EndChar

StartChar: aogonek
Encoding: 261 261 224
Width: 509
Flags: W
LayerCount: 2
Fore
SplineSet
243 529 m 0,0,1
 294 529 294 529 329.5 514.5 c 128,-1,2
 365 500 365 500 387 474.5 c 128,-1,3
 409 449 409 449 419 414 c 128,-1,4
 429 379 429 379 429 338 c 2,5,-1
 429 10 l 1,6,7
 405 -9 405 -9 380 -36 c 0,8,9
 364 -53 364 -53 354.5 -68.5 c 128,-1,10
 345 -84 345 -84 345 -101 c 0,11,12
 345 -119 345 -119 357 -127 c 128,-1,13
 369 -135 369 -135 387 -135 c 0,14,15
 396 -135 396 -135 406.5 -133.5 c 128,-1,16
 417 -132 417 -132 425 -129 c 1,17,-1
 430 -177 l 1,18,19
 422 -180 422 -180 406.5 -183 c 128,-1,20
 391 -186 391 -186 376 -186 c 0,21,22
 322 -186 322 -186 300 -166.5 c 128,-1,23
 278 -147 278 -147 278 -116 c 0,24,25
 278 -97 278 -97 284.5 -81 c 128,-1,26
 291 -65 291 -65 301.5 -51 c 128,-1,27
 312 -37 312 -37 325.5 -25.5 c 128,-1,28
 339 -14 339 -14 352 -4 c 1,29,30
 327 -7 327 -7 298 -9 c 128,-1,31
 269 -11 269 -11 238 -11 c 0,32,33
 197 -11 197 -11 162.5 -2 c 128,-1,34
 128 7 128 7 102.5 26.5 c 128,-1,35
 77 46 77 46 62.5 76.5 c 128,-1,36
 48 107 48 107 48 151 c 0,37,38
 48 193 48 193 64 223 c 128,-1,39
 80 253 80 253 109 272.5 c 128,-1,40
 138 292 138 292 178 301 c 128,-1,41
 218 310 218 310 265 310 c 0,42,43
 279 310 279 310 294.5 308.5 c 128,-1,44
 310 307 310 307 324.5 304.5 c 128,-1,45
 339 302 339 302 349.5 299.5 c 128,-1,46
 360 297 360 297 364 295 c 1,47,-1
 364 327 l 2,48,49
 364 354 364 354 360 379.5 c 128,-1,50
 356 405 356 405 342.5 425.5 c 128,-1,51
 329 446 329 446 304.5 458.5 c 128,-1,52
 280 471 280 471 240 471 c 0,53,54
 186 471 186 471 156 463.5 c 128,-1,55
 126 456 126 456 113 451 c 1,56,-1
 105 507 l 1,57,58
 122 515 122 515 158 522 c 128,-1,59
 194 529 194 529 243 529 c 0,0,1
249 47 m 0,60,61
 287 47 287 47 315.5 49.5 c 128,-1,62
 344 52 344 52 364 56 c 1,63,-1
 364 238 l 1,64,65
 353 243 353 243 329 248.5 c 128,-1,66
 305 254 305 254 263 254 c 0,67,68
 239 254 239 254 213 250.5 c 128,-1,69
 187 247 187 247 165 235.5 c 128,-1,70
 143 224 143 224 129 204 c 128,-1,71
 115 184 115 184 115 151 c 0,72,73
 115 122 115 122 124.5 102 c 128,-1,74
 134 82 134 82 151.5 70 c 128,-1,75
 169 58 169 58 193.5 52.5 c 128,-1,76
 218 47 218 47 249 47 c 0,60,61
EndSplineSet
Substitution2: "'case' Case-Sensitive Forms lookup 19 subtable" Aogonek
EndChar

StartChar: dcroat
Encoding: 273 273 236
Width: 583
Flags: W
LayerCount: 2
Fore
SplineSet
497 680 m 1,0,-1
 577 680 l 1,1,-1
 577 628 l 1,2,-1
 497 628 l 1,3,-1
 497 16 l 1,4,5
 468 6 468 6 423 -3 c 128,-1,6
 378 -12 378 -12 309 -12 c 0,7,8
 252 -12 252 -12 205.5 6.5 c 128,-1,9
 159 25 159 25 125.5 60 c 128,-1,10
 92 95 92 95 73.5 145 c 128,-1,11
 55 195 55 195 55 258 c 0,12,13
 55 317 55 317 70.5 366.5 c 128,-1,14
 86 416 86 416 116 452 c 128,-1,15
 146 488 146 488 189.5 508 c 128,-1,16
 233 528 233 528 289 528 c 0,17,18
 340 528 340 528 377.5 513.5 c 128,-1,19
 415 499 415 499 432 486 c 1,20,-1
 432 628 l 1,21,-1
 250 628 l 1,22,-1
 250 680 l 1,23,-1
 432 680 l 1,24,-1
 432 764 l 1,25,-1
 497 776 l 1,26,-1
 497 680 l 1,0,-1
432 423 m 1,27,28
 423 430 423 430 409.5 438 c 128,-1,29
 396 446 396 446 378 453 c 128,-1,30
 360 460 360 460 339 464.5 c 128,-1,31
 318 469 318 469 295 469 c 0,32,33
 247 469 247 469 214.5 452 c 128,-1,34
 182 435 182 435 162 406.5 c 128,-1,35
 142 378 142 378 133 339.5 c 128,-1,36
 124 301 124 301 124 258 c 0,37,38
 124 156 124 156 175 101.5 c 128,-1,39
 226 47 226 47 310 47 c 0,40,41
 358 47 358 47 387.5 51.5 c 128,-1,42
 417 56 417 56 432 61 c 1,43,-1
 432 423 l 1,27,28
EndSplineSet
Substitution2: "'case' Case-Sensitive Forms lookup 19 subtable" Dcroat
EndChar

StartChar: Eogonek
Encoding: 280 280 243
Width: 555
Flags: W
LayerCount: 2
Fore
SplineSet
90 0 m 1,0,-1
 90 693 l 1,1,-1
 490 693 l 1,2,-1
 490 634 l 1,3,-1
 158 634 l 1,4,-1
 158 393 l 1,5,-1
 454 393 l 1,6,-1
 454 335 l 1,7,-1
 158 335 l 1,8,-1
 158 59 l 1,9,-1
 516 59 l 1,10,-1
 516 2 l 1,11,12
 505 -6 505 -6 494 -15.5 c 128,-1,13
 483 -25 483 -25 471 -38 c 0,14,15
 455 -55 455 -55 445.5 -69.5 c 128,-1,16
 436 -84 436 -84 436 -101 c 0,17,18
 436 -119 436 -119 448 -127 c 128,-1,19
 460 -135 460 -135 478 -135 c 0,20,21
 487 -135 487 -135 497.5 -133.5 c 128,-1,22
 508 -132 508 -132 516 -129 c 1,23,-1
 521 -177 l 1,24,25
 513 -180 513 -180 497.5 -183 c 128,-1,26
 482 -186 482 -186 467 -186 c 0,27,28
 413 -186 413 -186 391 -166.5 c 128,-1,29
 369 -147 369 -147 369 -116 c 256,30,31
 369 -85 369 -85 385.5 -61 c 128,-1,32
 402 -37 402 -37 424 -17 c 0,33,34
 429 -12 429 -12 434.5 -8 c 128,-1,35
 440 -4 440 -4 445 0 c 1,36,-1
 90 0 l 1,0,-1
EndSplineSet
EndChar

StartChar: eogonek
Encoding: 281 281 244
Width: 548
Flags: W
LayerCount: 2
Fore
SplineSet
55 259 m 0,0,1
 55 327 55 327 74.5 377.5 c 128,-1,2
 94 428 94 428 125.5 462 c 128,-1,3
 157 496 157 496 197.5 512.5 c 128,-1,4
 238 529 238 529 281 529 c 0,5,6
 376 529 376 529 432.5 467 c 128,-1,7
 489 405 489 405 489 276 c 0,8,9
 489 268 489 268 488.5 260 c 128,-1,10
 488 252 488 252 487 245 c 1,11,-1
 124 245 l 1,12,13
 127 150 127 150 171 99 c 128,-1,14
 215 48 215 48 311 48 c 0,15,16
 364 48 364 48 395 58 c 128,-1,17
 426 68 426 68 440 75 c 1,18,-1
 452 19 l 1,19,20
 413 -11 413 -11 386 -38 c 0,21,22
 370 -55 370 -55 360.5 -70 c 128,-1,23
 351 -85 351 -85 351 -101 c 0,24,25
 351 -119 351 -119 363 -127 c 128,-1,26
 375 -135 375 -135 393 -135 c 0,27,28
 402 -135 402 -135 412.5 -133.5 c 128,-1,29
 423 -132 423 -132 431 -129 c 1,30,-1
 436 -177 l 1,31,32
 428 -180 428 -180 412.5 -183 c 128,-1,33
 397 -186 397 -186 382 -186 c 0,34,35
 328 -186 328 -186 306 -166.5 c 128,-1,36
 284 -147 284 -147 284 -116 c 0,37,38
 284 -98 284 -98 291 -82 c 128,-1,39
 298 -66 298 -66 308.5 -51.5 c 128,-1,40
 319 -37 319 -37 332 -25.5 c 128,-1,41
 345 -14 345 -14 358 -5 c 1,42,43
 333 -10 333 -10 309 -10 c 0,44,45
 241 -10 241 -10 193 10 c 128,-1,46
 145 30 145 30 114 65.5 c 128,-1,47
 83 101 83 101 69 150.5 c 128,-1,48
 55 200 55 200 55 259 c 0,0,1
422 300 m 1,49,50
 420 381 420 381 384 426 c 128,-1,51
 348 471 348 471 282 471 c 0,52,53
 247 471 247 471 219.5 457 c 128,-1,54
 192 443 192 443 171.5 419.5 c 128,-1,55
 151 396 151 396 139.5 365 c 128,-1,56
 128 334 128 334 126 300 c 1,57,-1
 422 300 l 1,49,50
EndSplineSet
Substitution2: "'case' Case-Sensitive Forms lookup 19 subtable" Eogonek
EndChar

StartChar: Hbar
Encoding: 294 294 257
Width: 720
Flags: W
LayerCount: 2
Fore
SplineSet
616 532 m 1,0,-1
 616 0 l 1,1,-1
 548 0 l 1,2,-1
 548 333 l 1,3,-1
 172 333 l 1,4,-1
 172 0 l 1,5,-1
 104 0 l 1,6,-1
 104 532 l 1,7,-1
 24 532 l 1,8,-1
 24 586 l 1,9,-1
 104 586 l 1,10,-1
 104 693 l 1,11,-1
 172 693 l 1,12,-1
 172 586 l 1,13,-1
 548 586 l 1,14,-1
 548 693 l 1,15,-1
 616 693 l 1,16,-1
 616 586 l 1,17,-1
 696 586 l 1,18,-1
 696 532 l 1,19,-1
 616 532 l 1,0,-1
548 532 m 1,20,-1
 172 532 l 1,21,-1
 172 392 l 1,22,-1
 548 392 l 1,23,-1
 548 532 l 1,20,-1
EndSplineSet
EndChar

StartChar: hbar
Encoding: 295 295 258
Width: 569
Flags: W
LayerCount: 2
Fore
SplineSet
86 0 m 1,0,-1
 86 628 l 1,1,-1
 6 628 l 1,2,-1
 6 680 l 1,3,-1
 86 680 l 1,4,-1
 86 764 l 1,5,-1
 151 776 l 1,6,-1
 151 680 l 1,7,-1
 338 680 l 1,8,-1
 338 628 l 1,9,-1
 151 628 l 1,10,-1
 151 502 l 1,11,12
 183 514 183 514 216 520.5 c 128,-1,13
 249 527 249 527 282 527 c 0,14,15
 342 527 342 527 382 510 c 128,-1,16
 422 493 422 493 446 461.5 c 128,-1,17
 470 430 470 430 479.5 386 c 128,-1,18
 489 342 489 342 489 289 c 2,19,-1
 489 0 l 1,20,-1
 424 0 l 1,21,-1
 424 268 l 2,22,23
 424 323 424 323 416.5 361 c 128,-1,24
 409 399 409 399 391.5 423 c 128,-1,25
 374 447 374 447 345 457.5 c 128,-1,26
 316 468 316 468 272 468 c 0,27,28
 255 468 255 468 235.5 465 c 128,-1,29
 216 462 216 462 199 458.5 c 128,-1,30
 182 455 182 455 168.5 451 c 128,-1,31
 155 447 155 447 151 445 c 1,32,-1
 151 0 l 1,33,-1
 86 0 l 1,0,-1
EndSplineSet
Substitution2: "'case' Case-Sensitive Forms lookup 19 subtable" Hbar
EndChar

StartChar: Iogonek
Encoding: 302 302 265
Width: 248
Flags: W
LayerCount: 2
Fore
SplineSet
158 0 m 1,0,1
 148 -8 148 -8 137.5 -17 c 128,-1,2
 127 -26 127 -26 116 -38 c 0,3,4
 100 -55 100 -55 91 -69.5 c 128,-1,5
 82 -84 82 -84 82 -101 c 0,6,7
 82 -119 82 -119 94 -127 c 128,-1,8
 106 -135 106 -135 124 -135 c 0,9,10
 133 -135 133 -135 143.5 -133.5 c 128,-1,11
 154 -132 154 -132 162 -129 c 1,12,-1
 167 -177 l 1,13,14
 159 -180 159 -180 143.5 -183 c 128,-1,15
 128 -186 128 -186 113 -186 c 0,16,17
 59 -186 59 -186 37 -166.5 c 128,-1,18
 15 -147 15 -147 15 -116 c 256,19,20
 15 -85 15 -85 31 -61 c 128,-1,21
 47 -37 47 -37 69 -17 c 0,22,23
 74 -12 74 -12 79.5 -8 c 128,-1,24
 85 -4 85 -4 90 0 c 1,25,-1
 90 693 l 1,26,-1
 158 693 l 1,27,-1
 158 0 l 1,0,1
EndSplineSet
EndChar

StartChar: iogonek
Encoding: 303 303 266
Width: 237
Flags: W
LayerCount: 2
Fore
SplineSet
151 0 m 1,0,1
 143 -8 143 -8 132 -17 c 128,-1,2
 121 -26 121 -26 110 -38 c 0,3,4
 94 -55 94 -55 86 -69.5 c 128,-1,5
 78 -84 78 -84 78 -101 c 0,6,7
 78 -119 78 -119 90 -127 c 128,-1,8
 102 -135 102 -135 120 -135 c 0,9,10
 129 -135 129 -135 139.5 -133.5 c 128,-1,11
 150 -132 150 -132 158 -129 c 1,12,-1
 163 -177 l 1,13,14
 155 -180 155 -180 139.5 -183 c 128,-1,15
 124 -186 124 -186 109 -186 c 0,16,17
 55 -186 55 -186 33 -166.5 c 128,-1,18
 11 -147 11 -147 11 -116 c 256,19,20
 11 -85 11 -85 27 -61 c 128,-1,21
 43 -37 43 -37 65 -17 c 0,22,23
 70 -12 70 -12 75.5 -8 c 128,-1,24
 81 -4 81 -4 86 0 c 1,25,-1
 86 517 l 1,26,-1
 151 517 l 1,27,-1
 151 0 l 1,0,1
166 673 m 256,28,29
 166 650 166 650 152 636.5 c 128,-1,30
 138 623 138 623 118 623 c 256,31,32
 98 623 98 623 84 636.5 c 128,-1,33
 70 650 70 650 70 673 c 256,34,35
 70 696 70 696 84 709.5 c 128,-1,36
 98 723 98 723 118 723 c 256,37,38
 138 723 138 723 152 709.5 c 128,-1,39
 166 696 166 696 166 673 c 256,28,29
EndSplineSet
Substitution2: "'case' Case-Sensitive Forms lookup 19 subtable" Iogonek
EndChar

StartChar: dotlessi
Encoding: 305 305 268
Width: 237
Flags: W
LayerCount: 2
Fore
SplineSet
151 0 m 1,0,-1
 86 0 l 1,1,-1
 86 517 l 1,2,-1
 151 517 l 1,3,-1
 151 0 l 1,0,-1
EndSplineSet
EndChar

StartChar: Lslash
Encoding: 321 321 286
Width: 516
Flags: W
LayerCount: 2
Fore
SplineSet
285 449 m 1,0,-1
 308 401 l 1,1,-1
 172 330 l 1,2,-1
 172 59 l 1,3,-1
 498 59 l 1,4,-1
 498 0 l 1,5,-1
 104 0 l 1,6,-1
 104 295 l 1,7,-1
 26 255 l 1,8,-1
 1 303 l 1,9,-1
 104 356 l 1,10,-1
 104 693 l 1,11,-1
 172 693 l 1,12,-1
 172 391 l 1,13,-1
 285 449 l 1,0,-1
EndSplineSet
EndChar

StartChar: lslash
Encoding: 322 322 287
Width: 255
Flags: W
LayerCount: 2
Fore
SplineSet
229 477 m 1,0,-1
 251 429 l 1,1,-1
 155 379 l 1,2,-1
 155 125 l 2,3,4
 155 101 155 101 159.5 86.5 c 128,-1,5
 164 72 164 72 173 63.5 c 128,-1,6
 182 55 182 55 196.5 51 c 128,-1,7
 211 47 211 47 231 44 c 1,8,-1
 222 -10 l 1,9,10
 189 -8 189 -8 164.5 -0.5 c 128,-1,11
 140 7 140 7 123.5 22 c 128,-1,12
 107 37 107 37 98.5 61.5 c 128,-1,13
 90 86 90 86 90 123 c 2,14,-1
 90 345 l 1,15,-1
 36 317 l 1,16,-1
 13 364 l 1,17,-1
 90 404 l 1,18,-1
 90 764 l 1,19,-1
 155 776 l 1,20,-1
 155 439 l 1,21,-1
 229 477 l 1,0,-1
EndSplineSet
Substitution2: "'case' Case-Sensitive Forms lookup 19 subtable" Lslash
EndChar

StartChar: Eng
Encoding: 330 330 296
Width: 709
Flags: W
LayerCount: 2
Fore
SplineSet
552 17 m 1,0,1
 531 54 531 54 501.5 101 c 128,-1,2
 472 148 472 148 437.5 200 c 128,-1,3
 403 252 403 252 365.5 306 c 128,-1,4
 328 360 328 360 291 411 c 128,-1,5
 254 462 254 462 219.5 506.5 c 128,-1,6
 185 551 185 551 157 584 c 1,7,-1
 157 0 l 1,8,-1
 90 0 l 1,9,-1
 90 693 l 1,10,-1
 144 693 l 1,11,12
 195 636 195 636 253.5 561.5 c 128,-1,13
 312 487 312 487 368 409.5 c 128,-1,14
 424 332 424 332 472.5 258 c 128,-1,15
 521 184 521 184 552 129 c 1,16,-1
 552 693 l 1,17,-1
 619 693 l 1,18,-1
 619 -26 l 2,19,20
 619 -60 619 -60 615 -89.5 c 128,-1,21
 611 -119 611 -119 597.5 -140.5 c 128,-1,22
 584 -162 584 -162 559.5 -174.5 c 128,-1,23
 535 -187 535 -187 493 -187 c 0,24,25
 476 -187 476 -187 460.5 -184 c 128,-1,26
 445 -181 445 -181 437 -178 c 1,27,-1
 446 -124 l 1,28,29
 451 -126 451 -126 461 -128 c 128,-1,30
 471 -130 471 -130 483 -130 c 0,31,32
 521 -130 521 -130 536.5 -107.5 c 128,-1,33
 552 -85 552 -85 552 -37 c 2,34,-1
 552 17 l 1,0,1
EndSplineSet
EndChar

StartChar: eng
Encoding: 331 331 297
Width: 569
Flags: W
LayerCount: 2
Fore
SplineSet
424 268 m 2,0,1
 424 323 424 323 416.5 361 c 128,-1,2
 409 399 409 399 391.5 423 c 128,-1,3
 374 447 374 447 345.5 457.5 c 128,-1,4
 317 468 317 468 274 468 c 0,5,6
 228 468 228 468 194.5 463 c 128,-1,7
 161 458 161 458 151 454 c 1,8,-1
 151 0 l 1,9,-1
 86 0 l 1,10,-1
 86 499 l 1,11,12
 115 507 115 507 164 517 c 128,-1,13
 213 527 213 527 284 527 c 0,14,15
 343 527 343 527 382.5 510 c 128,-1,16
 422 493 422 493 445.5 461.5 c 128,-1,17
 469 430 469 430 479 386 c 128,-1,18
 489 342 489 342 489 289 c 2,19,-1
 489 -26 l 2,20,21
 489 -60 489 -60 485 -89.5 c 128,-1,22
 481 -119 481 -119 468 -140.5 c 128,-1,23
 455 -162 455 -162 430.5 -174 c 128,-1,24
 406 -186 406 -186 364 -186 c 0,25,26
 347 -186 347 -186 333 -183.5 c 128,-1,27
 319 -181 319 -181 311 -178 c 1,28,-1
 320 -125 l 1,29,30
 332 -130 332 -130 356 -130 c 0,31,32
 394 -130 394 -130 409 -107.5 c 128,-1,33
 424 -85 424 -85 424 -37 c 2,34,-1
 424 268 l 2,0,1
EndSplineSet
Substitution2: "'case' Case-Sensitive Forms lookup 19 subtable" Eng
EndChar

StartChar: Scedilla
Encoding: 350 350 314
Width: 517
Flags: W
LayerCount: 2
Fore
SplineSet
264 -36 m 1,0,1
 292 -48 292 -48 308.5 -65.5 c 128,-1,2
 325 -83 325 -83 325 -112 c 0,3,4
 325 -124 325 -124 321 -137.5 c 128,-1,5
 317 -151 317 -151 306 -162 c 128,-1,6
 295 -173 295 -173 276 -180 c 128,-1,7
 257 -187 257 -187 227 -187 c 0,8,9
 207 -187 207 -187 186 -183.5 c 128,-1,10
 165 -180 165 -180 156 -175 c 1,11,-1
 164 -132 l 1,12,13
 175 -137 175 -137 189 -139 c 128,-1,14
 203 -141 203 -141 223 -141 c 0,15,16
 264 -141 264 -141 264 -112 c 0,17,18
 264 -95 264 -95 250 -86 c 128,-1,19
 236 -77 236 -77 206 -65 c 1,20,21
 209 -54 209 -54 215 -41 c 128,-1,22
 221 -28 221 -28 228 -15 c 1,23,24
 190 -14 190 -14 158.5 -9 c 128,-1,25
 127 -4 127 -4 102.5 3.5 c 128,-1,26
 78 11 78 11 60.5 18.5 c 128,-1,27
 43 26 43 26 34 32 c 1,28,-1
 56 91 l 1,29,30
 66 85 66 85 83 77 c 128,-1,31
 100 69 100 69 123 61.5 c 128,-1,32
 146 54 146 54 175 49 c 128,-1,33
 204 44 204 44 239 44 c 0,34,35
 320 44 320 44 365 73.5 c 128,-1,36
 410 103 410 103 410 169 c 0,37,38
 410 207 410 207 395.5 232.5 c 128,-1,39
 381 258 381 258 357 275.5 c 128,-1,40
 333 293 333 293 302 305.5 c 128,-1,41
 271 318 271 318 237 332 c 0,42,43
 194 349 194 349 160 367 c 128,-1,44
 126 385 126 385 102 407.5 c 128,-1,45
 78 430 78 430 65.5 459 c 128,-1,46
 53 488 53 488 53 527 c 0,47,48
 53 616 53 616 112 662 c 128,-1,49
 171 708 171 708 276 708 c 0,50,51
 304 708 304 708 331 704 c 128,-1,52
 358 700 358 700 381.5 693.5 c 128,-1,53
 405 687 405 687 424.5 679 c 128,-1,54
 444 671 444 671 457 662 c 1,55,-1
 433 605 l 1,56,57
 404 625 404 625 362.5 637 c 128,-1,58
 321 649 321 649 273 649 c 0,59,60
 240 649 240 649 212.5 642.5 c 128,-1,61
 185 636 185 636 165 621.5 c 128,-1,62
 145 607 145 607 133.5 585 c 128,-1,63
 122 563 122 563 122 532 c 0,64,65
 122 500 122 500 134 478 c 128,-1,66
 146 456 146 456 167.5 440 c 128,-1,67
 189 424 189 424 218 411 c 128,-1,68
 247 398 247 398 281 384 c 0,69,70
 322 367 322 367 358.5 350 c 128,-1,71
 395 333 395 333 422 310 c 128,-1,72
 449 287 449 287 465 254 c 128,-1,73
 481 221 481 221 481 173 c 0,74,75
 481 86 481 86 426 40 c 128,-1,76
 371 -6 371 -6 274 -13 c 1,77,78
 271 -19 271 -19 268.5 -25 c 128,-1,79
 266 -31 266 -31 264 -36 c 1,0,1
EndSplineSet
EndChar

StartChar: scedilla
Encoding: 351 351 315
Width: 428
Flags: W
LayerCount: 2
Fore
SplineSet
221 -36 m 1,0,1
 249 -48 249 -48 265.5 -65.5 c 128,-1,2
 282 -83 282 -83 282 -112 c 0,3,4
 282 -124 282 -124 278 -137.5 c 128,-1,5
 274 -151 274 -151 263 -162 c 128,-1,6
 252 -173 252 -173 233 -180 c 128,-1,7
 214 -187 214 -187 184 -187 c 0,8,9
 164 -187 164 -187 143 -183.5 c 128,-1,10
 122 -180 122 -180 113 -175 c 1,11,-1
 121 -132 l 1,12,13
 132 -137 132 -137 146 -139 c 128,-1,14
 160 -141 160 -141 180 -141 c 0,15,16
 221 -141 221 -141 221 -112 c 0,17,18
 221 -95 221 -95 207 -86 c 128,-1,19
 193 -77 193 -77 163 -65 c 1,20,21
 167 -54 167 -54 173 -39.5 c 128,-1,22
 179 -25 179 -25 186 -12 c 1,23,24
 121 -11 121 -11 86 0 c 128,-1,25
 51 11 51 11 40 17 c 1,26,-1
 57 76 l 2,27,28
 60 74 60 74 70 69.5 c 128,-1,29
 80 65 80 65 97 59.5 c 128,-1,30
 114 54 114 54 137.5 50 c 128,-1,31
 161 46 161 46 192 46 c 0,32,33
 248 46 248 46 284.5 64.5 c 128,-1,34
 321 83 321 83 321 127 c 0,35,36
 321 148 321 148 314.5 163 c 128,-1,37
 308 178 308 178 293 190 c 128,-1,38
 278 202 278 202 253.5 213 c 128,-1,39
 229 224 229 224 193 239 c 0,40,41
 164 251 164 251 138 263.5 c 128,-1,42
 112 276 112 276 92 292.5 c 128,-1,43
 72 309 72 309 60 332 c 128,-1,44
 48 355 48 355 48 388 c 0,45,46
 48 451 48 451 95.5 490 c 128,-1,47
 143 529 143 529 226 529 c 0,48,49
 279 529 279 529 313.5 520 c 128,-1,50
 348 511 348 511 362 504 c 1,51,-1
 347 446 l 1,52,53
 335 452 335 452 306.5 462 c 128,-1,54
 278 472 278 472 223 472 c 0,55,56
 201 472 201 472 181.5 467.5 c 128,-1,57
 162 463 162 463 147 453.5 c 128,-1,58
 132 444 132 444 123 429.5 c 128,-1,59
 114 415 114 415 114 394 c 256,60,61
 114 373 114 373 122 358 c 128,-1,62
 130 343 130 343 145.5 331.5 c 128,-1,63
 161 320 161 320 183.5 310 c 128,-1,64
 206 300 206 300 235 288 c 0,65,66
 265 276 265 276 292.5 263.5 c 128,-1,67
 320 251 320 251 341 233.5 c 128,-1,68
 362 216 362 216 375 191.5 c 128,-1,69
 388 167 388 167 388 130 c 0,70,71
 388 68 388 68 346.5 33 c 128,-1,72
 305 -2 305 -2 233 -9 c 1,73,74
 225 -24 225 -24 221 -36 c 1,0,1
EndSplineSet
Substitution2: "'case' Case-Sensitive Forms lookup 19 subtable" Scedilla
EndChar

StartChar: uni0162
Encoding: 354 354 316
Width: 548
Flags: W
LayerCount: 2
Fore
SplineSet
281 -36 m 1,0,1
 309 -48 309 -48 325.5 -65.5 c 128,-1,2
 342 -83 342 -83 342 -112 c 0,3,4
 342 -124 342 -124 338 -137.5 c 128,-1,5
 334 -151 334 -151 323 -162 c 128,-1,6
 312 -173 312 -173 293 -180 c 128,-1,7
 274 -187 274 -187 244 -187 c 0,8,9
 224 -187 224 -187 203 -183.5 c 128,-1,10
 182 -180 182 -180 173 -175 c 1,11,-1
 181 -132 l 1,12,13
 192 -137 192 -137 206 -139 c 128,-1,14
 220 -141 220 -141 240 -141 c 0,15,16
 281 -141 281 -141 281 -112 c 0,17,18
 281 -95 281 -95 267 -86 c 128,-1,19
 253 -77 253 -77 223 -65 c 1,20,21
 228 -51 228 -51 236 -32.5 c 128,-1,22
 244 -14 244 -14 252 0 c 1,23,-1
 240 0 l 1,24,-1
 240 634 l 1,25,-1
 18 634 l 1,26,-1
 18 693 l 1,27,-1
 530 693 l 1,28,-1
 530 634 l 1,29,-1
 308 634 l 1,30,-1
 308 0 l 1,31,-1
 298 0 l 1,32,33
 293 -9 293 -9 288.5 -18.5 c 128,-1,34
 284 -28 284 -28 281 -36 c 1,0,1
EndSplineSet
EndChar

StartChar: uni0163
Encoding: 355 355 317
Width: 387
Flags: W
LayerCount: 2
Fore
SplineSet
243 -36 m 1,0,1
 271 -48 271 -48 287.5 -65.5 c 128,-1,2
 304 -83 304 -83 304 -112 c 0,3,4
 304 -124 304 -124 300 -137.5 c 128,-1,5
 296 -151 296 -151 285 -162 c 128,-1,6
 274 -173 274 -173 255 -180 c 128,-1,7
 236 -187 236 -187 206 -187 c 0,8,9
 186 -187 186 -187 165 -183.5 c 128,-1,10
 144 -180 144 -180 135 -175 c 1,11,-1
 143 -132 l 1,12,13
 154 -137 154 -137 168 -139 c 128,-1,14
 182 -141 182 -141 202 -141 c 0,15,16
 243 -141 243 -141 243 -112 c 0,17,18
 243 -95 243 -95 229 -86 c 128,-1,19
 215 -77 215 -77 185 -65 c 1,20,21
 188 -55 188 -55 194 -42 c 128,-1,22
 200 -29 200 -29 206 -17 c 0,23,24
 208 -12 208 -12 210 -8 c 1,25,26
 187 -5 187 -5 169 1 c 0,27,28
 137 14 137 14 117.5 39.5 c 128,-1,29
 98 65 98 65 90 103 c 128,-1,30
 82 141 82 141 82 193 c 2,31,-1
 82 669 l 1,32,-1
 147 681 l 1,33,-1
 147 517 l 1,34,-1
 353 517 l 1,35,-1
 353 462 l 1,36,-1
 147 462 l 1,37,-1
 147 187 l 2,38,39
 147 143 147 143 154.5 115.5 c 128,-1,40
 162 88 162 88 176 73 c 128,-1,41
 190 58 190 58 210 53 c 128,-1,42
 230 48 230 48 254 48 c 0,43,44
 295 48 295 48 320 57.5 c 128,-1,45
 345 67 345 67 359 75 c 1,46,-1
 375 21 l 1,47,48
 361 12 361 12 326 0 c 0,49,50
 293 -10 293 -10 254 -11 c 1,51,52
 247 -25 247 -25 243 -36 c 1,0,1
EndSplineSet
Substitution2: "'case' Case-Sensitive Forms lookup 19 subtable" uni0162
EndChar

StartChar: Tbar
Encoding: 358 358 320
Width: 548
Flags: W
LayerCount: 2
Fore
SplineSet
530 693 m 1,0,-1
 530 634 l 1,1,-1
 308 634 l 1,2,-1
 308 383 l 1,3,-1
 432 383 l 1,4,-1
 432 329 l 1,5,-1
 308 329 l 1,6,-1
 308 0 l 1,7,-1
 240 0 l 1,8,-1
 240 329 l 1,9,-1
 116 329 l 1,10,-1
 116 383 l 1,11,-1
 240 383 l 1,12,-1
 240 634 l 1,13,-1
 18 634 l 1,14,-1
 18 693 l 1,15,-1
 530 693 l 1,0,-1
EndSplineSet
EndChar

StartChar: tbar
Encoding: 359 359 321
Width: 387
Flags: W
LayerCount: 2
Fore
SplineSet
147 517 m 1,0,-1
 353 517 l 1,1,-1
 353 462 l 1,2,-1
 147 462 l 1,3,-1
 147 298 l 1,4,-1
 349 298 l 1,5,-1
 349 245 l 1,6,-1
 147 245 l 1,7,-1
 147 187 l 2,8,9
 147 143 147 143 154.5 115.5 c 128,-1,10
 162 88 162 88 176 73 c 128,-1,11
 190 58 190 58 210 53 c 128,-1,12
 230 48 230 48 254 48 c 0,13,14
 295 48 295 48 320 57.5 c 128,-1,15
 345 67 345 67 359 75 c 1,16,-1
 375 21 l 1,17,18
 361 12 361 12 326 0.5 c 128,-1,19
 291 -11 291 -11 250 -11 c 0,20,21
 202 -11 202 -11 169.5 1.5 c 128,-1,22
 137 14 137 14 117.5 39.5 c 128,-1,23
 98 65 98 65 90 103 c 128,-1,24
 82 141 82 141 82 193 c 2,25,-1
 82 669 l 1,26,-1
 147 681 l 1,27,-1
 147 517 l 1,0,-1
EndSplineSet
Substitution2: "'case' Case-Sensitive Forms lookup 19 subtable" Tbar
EndChar

StartChar: Uogonek
Encoding: 370 370 332
Width: 680
Flags: W
LayerCount: 2
Fore
SplineSet
361 -14 m 1,0,1
 355 -15 355 -15 350 -15 c 128,-1,2
 345 -15 345 -15 340 -15 c 0,3,4
 271 -15 271 -15 222.5 6 c 128,-1,5
 174 27 174 27 144 64 c 128,-1,6
 114 101 114 101 100.5 150.5 c 128,-1,7
 87 200 87 200 87 257 c 2,8,-1
 87 693 l 1,9,-1
 155 693 l 1,10,-1
 155 266 l 2,11,12
 155 209 155 209 168.5 167.5 c 128,-1,13
 182 126 182 126 206 99 c 128,-1,14
 230 72 230 72 264 59 c 128,-1,15
 298 46 298 46 340 46 c 256,16,17
 382 46 382 46 416 59 c 128,-1,18
 450 72 450 72 474 99 c 128,-1,19
 498 126 498 126 511.5 167.5 c 128,-1,20
 525 209 525 209 525 266 c 2,21,-1
 525 693 l 1,22,-1
 593 693 l 1,23,-1
 593 257 l 2,24,25
 593 179 593 179 567.5 116 c 128,-1,26
 542 53 542 53 483 19 c 0,27,28
 463 8 463 8 442.5 -5.5 c 128,-1,29
 422 -19 422 -19 404 -38 c 0,30,31
 388 -55 388 -55 378.5 -69.5 c 128,-1,32
 369 -84 369 -84 369 -101 c 0,33,34
 369 -119 369 -119 381 -127 c 128,-1,35
 393 -135 393 -135 411 -135 c 0,36,37
 420 -135 420 -135 430.5 -133.5 c 128,-1,38
 441 -132 441 -132 449 -129 c 1,39,-1
 454 -177 l 1,40,41
 446 -180 446 -180 430.5 -183 c 128,-1,42
 415 -186 415 -186 400 -186 c 0,43,44
 346 -186 346 -186 324 -166.5 c 128,-1,45
 302 -147 302 -147 302 -116 c 256,46,47
 302 -85 302 -85 319 -60.5 c 128,-1,48
 336 -36 336 -36 361 -14 c 1,0,1
EndSplineSet
EndChar

StartChar: uogonek
Encoding: 371 371 333
Width: 569
Flags: W
LayerCount: 2
Fore
SplineSet
412 1 m 1,0,1
 386 -3 386 -3 354.5 -6.5 c 128,-1,2
 323 -10 323 -10 285 -10 c 0,3,4
 227 -10 227 -10 188 7 c 128,-1,5
 149 24 149 24 125 55 c 128,-1,6
 101 86 101 86 90.5 130 c 128,-1,7
 80 174 80 174 80 227 c 2,8,-1
 80 517 l 1,9,-1
 145 517 l 1,10,-1
 145 248 l 2,11,12
 145 193 145 193 153 155 c 128,-1,13
 161 117 161 117 179 93.5 c 128,-1,14
 197 70 197 70 225.5 59.5 c 128,-1,15
 254 49 254 49 295 49 c 0,16,17
 341 49 341 49 375 54 c 128,-1,18
 409 59 409 59 418 63 c 1,19,-1
 418 517 l 1,20,-1
 483 517 l 1,21,-1
 483 13 l 1,22,23
 471 3 471 3 459 -9.5 c 128,-1,24
 447 -22 447 -22 433 -36 c 0,25,26
 417 -53 417 -53 407.5 -68.5 c 128,-1,27
 398 -84 398 -84 398 -101 c 0,28,29
 398 -119 398 -119 410 -127 c 128,-1,30
 422 -135 422 -135 440 -135 c 0,31,32
 449 -135 449 -135 459.5 -133.5 c 128,-1,33
 470 -132 470 -132 478 -129 c 1,34,-1
 483 -177 l 1,35,36
 475 -180 475 -180 459.5 -183 c 128,-1,37
 444 -186 444 -186 429 -186 c 0,38,39
 375 -186 375 -186 353 -166.5 c 128,-1,40
 331 -147 331 -147 331 -116 c 0,41,42
 331 -78 331 -78 355.5 -50 c 128,-1,43
 380 -22 380 -22 412 1 c 1,0,1
EndSplineSet
Substitution2: "'case' Case-Sensitive Forms lookup 19 subtable" Uogonek
EndChar

StartChar: longs
Encoding: 383 383 344
Width: 247
Flags: W
LayerCount: 2
Fore
SplineSet
151 0 m 1,0,-1
 86 0 l 1,1,-1
 86 573 l 2,2,3
 86 674 86 674 132.5 725 c 128,-1,4
 179 776 179 776 276 776 c 0,5,6
 318 776 318 776 344.5 769.5 c 128,-1,7
 371 763 371 763 379 758 c 1,8,-1
 366 702 l 1,9,10
 355 707 355 707 333.5 712.5 c 128,-1,11
 312 718 312 718 279 718 c 0,12,13
 210 718 210 718 180.5 683 c 128,-1,14
 151 648 151 648 151 571 c 2,15,-1
 151 0 l 1,0,-1
EndSplineSet
Substitution2: "'case' Case-Sensitive Forms lookup 18 subtable" S
EndChar

StartChar: dotlessj
Encoding: 567 567 349
Width: 237
Flags: W
LayerCount: 2
Fore
SplineSet
-11 -187 m 0,0,1
 -22 -187 -22 -187 -38.5 -184 c 128,-1,2
 -55 -181 -55 -181 -63 -177 c 1,3,-1
 -54 -124 l 1,4,5
 -47 -126 -47 -126 -35 -128 c 128,-1,6
 -23 -130 -23 -130 -12 -130 c 0,7,8
 47 -130 47 -130 66.5 -97 c 128,-1,9
 86 -64 86 -64 86 2 c 2,10,-1
 86 517 l 1,11,-1
 151 517 l 1,12,-1
 151 5 l 2,13,14
 151 -93 151 -93 114 -140 c 128,-1,15
 77 -187 77 -187 -11 -187 c 0,0,1
EndSplineSet
Substitution2: "'case' Case-Sensitive Forms lookup 18 subtable" J
EndChar

StartChar: apostrophe
Encoding: 700 700 350
Width: 376
Flags: W
LayerCount: 2
Fore
SplineSet
235 776 m 1,0,1
 235 713 235 713 217 666 c 128,-1,2
 199 619 199 619 169 569 c 1,3,-1
 124 590 l 1,4,5
 141 625 141 625 152.5 664 c 128,-1,6
 164 703 164 703 164 741 c 0,7,8
 164 750 164 750 163.5 760.5 c 128,-1,9
 163 771 163 771 162 776 c 1,10,-1
 235 776 l 1,0,1
EndSplineSet
EndChar

StartChar: caron
Encoding: 711 711 351
Width: 376
Flags: W
LayerCount: 2
Fore
SplineSet
188 669 m 1,0,-1
 292 765 l 1,1,-1
 320 734 l 1,2,-1
 188 587 l 1,3,-1
 56 734 l 1,4,-1
 84 765 l 1,5,-1
 188 669 l 1,0,-1
EndSplineSet
EndChar

StartChar: breve
Encoding: 728 728 353
Width: 376
Flags: W
LayerCount: 2
Fore
SplineSet
188 613 m 256,0,1
 164 613 164 613 141.5 621 c 128,-1,2
 119 629 119 629 101.5 645 c 128,-1,3
 84 661 84 661 74.5 686 c 128,-1,4
 65 711 65 711 66 746 c 1,5,-1
 109 746 l 1,6,7
 109 739 109 739 111.5 726 c 128,-1,8
 114 713 114 713 122 700.5 c 128,-1,9
 130 688 130 688 145.5 678.5 c 128,-1,10
 161 669 161 669 188 669 c 256,11,12
 215 669 215 669 230.5 678.5 c 128,-1,13
 246 688 246 688 254 700.5 c 128,-1,14
 262 713 262 713 264.5 726 c 128,-1,15
 267 739 267 739 267 746 c 1,16,-1
 310 746 l 1,17,18
 311 711 311 711 301.5 686 c 128,-1,19
 292 661 292 661 274.5 645 c 128,-1,20
 257 629 257 629 234.5 621 c 128,-1,21
 212 613 212 613 188 613 c 256,0,1
EndSplineSet
EndChar

StartChar: dotaccent
Encoding: 729 729 354
Width: 376
Flags: W
LayerCount: 2
Fore
SplineSet
188 623 m 256,0,1
 168 623 168 623 154 636.5 c 128,-1,2
 140 650 140 650 140 673 c 256,3,4
 140 696 140 696 154 709.5 c 128,-1,5
 168 723 168 723 188 723 c 256,6,7
 208 723 208 723 222 709.5 c 128,-1,8
 236 696 236 696 236 673 c 256,9,10
 236 650 236 650 222 636.5 c 128,-1,11
 208 623 208 623 188 623 c 256,0,1
EndSplineSet
EndChar

StartChar: ring
Encoding: 730 730 355
Width: 376
Flags: W
LayerCount: 2
Fore
SplineSet
283 676 m 0,0,1
 283 654 283 654 275.5 636.5 c 128,-1,2
 268 619 268 619 255 606.5 c 128,-1,3
 242 594 242 594 224.5 587 c 128,-1,4
 207 580 207 580 188 580 c 0,5,6
 149 580 149 580 120.5 606 c 128,-1,7
 92 632 92 632 92 676 c 0,8,9
 92 719 92 719 120.5 745 c 128,-1,10
 149 771 149 771 188 771 c 0,11,12
 207 771 207 771 224.5 764 c 128,-1,13
 242 757 242 757 255 744.5 c 128,-1,14
 268 732 268 732 275.5 714.5 c 128,-1,15
 283 697 283 697 283 676 c 0,0,1
245 676 m 0,16,17
 245 704 245 704 228.5 719.5 c 128,-1,18
 212 735 212 735 188 735 c 256,19,20
 164 735 164 735 147.5 719.5 c 128,-1,21
 131 704 131 704 131 676 c 0,22,23
 131 647 131 647 147.5 632 c 128,-1,24
 164 617 164 617 188 617 c 256,25,26
 212 617 212 617 228.5 632 c 128,-1,27
 245 647 245 647 245 676 c 0,16,17
EndSplineSet
EndChar

StartChar: ogonek
Encoding: 731 731 356
Width: 376
Flags: W
LayerCount: 2
Fore
SplineSet
177 -186 m 0,0,1
 123 -186 123 -186 101 -166.5 c 128,-1,2
 79 -147 79 -147 79 -116 c 256,3,4
 79 -85 79 -85 95.5 -61 c 128,-1,5
 112 -37 112 -37 134 -17 c 0,6,7
 142 -10 142 -10 149.5 -3.5 c 128,-1,8
 157 3 157 3 165 8 c 1,9,-1
 234 8 l 1,10,11
 222 -1 222 -1 208.5 -12 c 128,-1,12
 195 -23 195 -23 181 -38 c 0,13,14
 165 -55 165 -55 155.5 -69.5 c 128,-1,15
 146 -84 146 -84 146 -101 c 0,16,17
 146 -119 146 -119 158 -127 c 128,-1,18
 170 -135 170 -135 188 -135 c 0,19,20
 197 -135 197 -135 207.5 -133.5 c 128,-1,21
 218 -132 218 -132 226 -129 c 1,22,-1
 231 -177 l 1,23,24
 223 -180 223 -180 207.5 -183 c 128,-1,25
 192 -186 192 -186 177 -186 c 0,0,1
EndSplineSet
EndChar

StartChar: hungarumlaut
Encoding: 733 733 357
Width: 376
Flags: W
LayerCount: 2
Fore
SplineSet
190 731 m 1,0,-1
 64 582 l 1,1,-1
 25 611 l 1,2,-1
 144 773 l 1,3,-1
 190 731 l 1,0,-1
347 731 m 1,4,-1
 221 582 l 1,5,-1
 182 611 l 1,6,-1
 301 773 l 1,7,-1
 347 731 l 1,4,-1
EndSplineSet
EndChar

StartChar: fraction
Encoding: 8260 8260 366
Width: 148
Flags: W
LayerCount: 2
Fore
SplineSet
238 693 m 1,0,-1
 304 693 l 1,1,-1
 -91 0 l 1,2,-1
 -157 0 l 1,3,-1
 238 693 l 1,0,-1
EndSplineSet
EndChar

StartChar: zerosuperior
Encoding: 8304 8304 367
Width: 359
Flags: W
LayerCount: 2
Fore
SplineSet
179 708 m 256,0,1
 242 708 242 708 282 657.5 c 128,-1,2
 322 607 322 607 322 508 c 256,3,4
 322 409 322 409 282 358.5 c 128,-1,5
 242 308 242 308 179 308 c 256,6,7
 116 308 116 308 76 358.5 c 128,-1,8
 36 409 36 409 36 508 c 256,9,10
 36 607 36 607 76 657.5 c 128,-1,11
 116 708 116 708 179 708 c 256,0,1
179 357 m 256,12,13
 204 357 204 357 220.5 369 c 128,-1,14
 237 381 237 381 247 401.5 c 128,-1,15
 257 422 257 422 261 449.5 c 128,-1,16
 265 477 265 477 265 508 c 256,17,18
 265 539 265 539 261 566.5 c 128,-1,19
 257 594 257 594 247 614.5 c 128,-1,20
 237 635 237 635 220.5 647 c 128,-1,21
 204 659 204 659 179 659 c 256,22,23
 154 659 154 659 137.5 647 c 128,-1,24
 121 635 121 635 111 614.5 c 128,-1,25
 101 594 101 594 97 566.5 c 128,-1,26
 93 539 93 539 93 508 c 256,27,28
 93 477 93 477 97 449.5 c 128,-1,29
 101 422 101 422 111 401.5 c 128,-1,30
 121 381 121 381 137.5 369 c 128,-1,31
 154 357 154 357 179 357 c 256,12,13
EndSplineSet
Substitution2: "Single Substitution lookup 26 subtable" zeroinferior
Substitution2: "'sinf' Scientific Inferiors lookup 13 subtable" zero.sinf
Substitution2: "'subs' Subscript lookup 12 subtable" zero.sinf
Substitution2: "'sups' Superscript lookup 11 subtable" zero.sups
Substitution2: "'dnom' Denominators lookup 10 subtable" zeroinferior
EndChar

StartChar: foursuperior
Encoding: 8308 8308 368
Width: 359
Flags: W
LayerCount: 2
Fore
SplineSet
325 457 m 1,0,-1
 325 413 l 1,1,-1
 274 413 l 1,2,-1
 274 317 l 1,3,-1
 221 317 l 1,4,-1
 221 413 l 1,5,-1
 33 413 l 1,6,-1
 33 446 l 1,7,8
 43 466 43 466 63.5 499 c 128,-1,9
 84 532 84 532 110.5 569 c 128,-1,10
 137 606 137 606 167.5 641 c 128,-1,11
 198 676 198 676 227 699 c 1,12,-1
 274 699 l 1,13,-1
 274 457 l 1,14,-1
 325 457 l 1,0,-1
221 457 m 1,15,-1
 221 636 l 1,16,17
 204 619 204 619 185 596 c 128,-1,18
 166 573 166 573 148.5 548.5 c 128,-1,19
 131 524 131 524 115.5 499.5 c 128,-1,20
 100 475 100 475 90 457 c 1,21,-1
 221 457 l 1,15,-1
EndSplineSet
Substitution2: "Single Substitution lookup 26 subtable" fourinferior
Substitution2: "'sinf' Scientific Inferiors lookup 13 subtable" four.sinf
Substitution2: "'subs' Subscript lookup 12 subtable" four.sinf
Substitution2: "'sups' Superscript lookup 11 subtable" four.sups
Substitution2: "'dnom' Denominators lookup 10 subtable" fourinferior
EndChar

StartChar: fivesuperior
Encoding: 8309 8309 369
Width: 359
Flags: W
LayerCount: 2
Fore
SplineSet
305 425 m 0,0,1
 305 374 305 374 268.5 341.5 c 128,-1,2
 232 309 232 309 150 309 c 0,3,4
 120 309 120 309 90 316 c 128,-1,5
 60 323 60 323 46 331 c 1,6,-1
 57 377 l 1,7,8
 63 374 63 374 73 370.5 c 128,-1,9
 83 367 83 367 96 363.5 c 128,-1,10
 109 360 109 360 123 357.5 c 128,-1,11
 137 355 137 355 150 355 c 0,12,13
 181 355 181 355 200.5 361 c 128,-1,14
 220 367 220 367 230.5 377 c 128,-1,15
 241 387 241 387 245 399 c 128,-1,16
 249 411 249 411 249 423 c 0,17,18
 249 440 249 440 242.5 455.5 c 128,-1,19
 236 471 236 471 217.5 483 c 128,-1,20
 199 495 199 495 164.5 502 c 128,-1,21
 130 509 130 509 73 509 c 1,22,23
 80 559 80 559 85 602 c 128,-1,24
 90 645 90 645 92 699 c 1,25,-1
 286 699 l 1,26,-1
 286 651 l 1,27,-1
 138 651 l 1,28,29
 136 628 136 628 134 602.5 c 128,-1,30
 132 577 132 577 127 552 c 1,31,32
 219 546 219 546 262 515 c 128,-1,33
 305 484 305 484 305 425 c 0,0,1
EndSplineSet
Substitution2: "Single Substitution lookup 26 subtable" fiveinferior
Substitution2: "'sinf' Scientific Inferiors lookup 13 subtable" five.sinf
Substitution2: "'subs' Subscript lookup 12 subtable" five.sinf
Substitution2: "'sups' Superscript lookup 11 subtable" five.sups
Substitution2: "'dnom' Denominators lookup 10 subtable" fiveinferior
EndChar

StartChar: sixsuperior
Encoding: 8310 8310 370
Width: 359
Flags: W
LayerCount: 2
Fore
SplineSet
108 536 m 1,0,1
 129 546 129 546 148.5 549 c 128,-1,2
 168 552 168 552 182 552 c 0,3,4
 220 552 220 552 246.5 542.5 c 128,-1,5
 273 533 273 533 289 516.5 c 128,-1,6
 305 500 305 500 312 479 c 128,-1,7
 319 458 319 458 319 435 c 0,8,9
 319 413 319 413 311 390.5 c 128,-1,10
 303 368 303 368 287 349.5 c 128,-1,11
 271 331 271 331 245.5 319.5 c 128,-1,12
 220 308 220 308 186 308 c 0,13,14
 114 308 114 308 80 352 c 128,-1,15
 46 396 46 396 46 471 c 0,16,17
 46 583 46 583 110.5 640.5 c 128,-1,18
 175 698 175 698 286 702 c 1,19,-1
 292 655 l 1,20,21
 217 653 217 653 167.5 622 c 128,-1,22
 118 591 118 591 108 536 c 1,0,1
102 493 m 1,23,24
 101 488 101 488 101 483.5 c 128,-1,25
 101 479 101 479 101 475 c 0,26,27
 101 449 101 449 105 427 c 128,-1,28
 109 405 109 405 118.5 388.5 c 128,-1,29
 128 372 128 372 144 363 c 128,-1,30
 160 354 160 354 185 354 c 0,31,32
 206 354 206 354 220.5 361 c 128,-1,33
 235 368 235 368 244.5 379 c 128,-1,34
 254 390 254 390 258.5 404 c 128,-1,35
 263 418 263 418 263 432 c 0,36,37
 263 472 263 472 243.5 489.5 c 128,-1,38
 224 507 224 507 183 507 c 0,39,40
 161 507 161 507 139 503.5 c 128,-1,41
 117 500 117 500 102 493 c 1,23,24
EndSplineSet
Substitution2: "Single Substitution lookup 26 subtable" sixinferior
Substitution2: "'sinf' Scientific Inferiors lookup 13 subtable" six.sinf
Substitution2: "'subs' Subscript lookup 12 subtable" six.sinf
Substitution2: "'sups' Superscript lookup 11 subtable" six.sups
Substitution2: "'dnom' Denominators lookup 10 subtable" sixinferior
EndChar

StartChar: sevensuperior
Encoding: 8311 8311 371
Width: 359
Flags: W
LayerCount: 2
Fore
SplineSet
153 317 m 1,0,-1
 100 317 l 1,1,2
 103 356 103 356 117.5 403.5 c 128,-1,3
 132 451 132 451 153 497 c 128,-1,4
 174 543 174 543 199.5 583.5 c 128,-1,5
 225 624 225 624 249 649 c 1,6,-1
 45 649 l 1,7,-1
 45 699 l 1,8,-1
 316 699 l 1,9,-1
 316 658 l 1,10,11
 295 638 295 638 268.5 601.5 c 128,-1,12
 242 565 242 565 217 518.5 c 128,-1,13
 192 472 192 472 174 420 c 128,-1,14
 156 368 156 368 153 317 c 1,0,-1
EndSplineSet
Substitution2: "Single Substitution lookup 26 subtable" seveninferior
Substitution2: "'sinf' Scientific Inferiors lookup 13 subtable" seven.sinf
Substitution2: "'subs' Subscript lookup 12 subtable" seven.sinf
Substitution2: "'sups' Superscript lookup 11 subtable" seven.sups
Substitution2: "'dnom' Denominators lookup 10 subtable" seveninferior
EndChar

StartChar: eightsuperior
Encoding: 8312 8312 372
Width: 359
Flags: W
LayerCount: 2
Fore
SplineSet
316 420 m 0,0,1
 316 371 316 371 279 339.5 c 128,-1,2
 242 308 242 308 178 308 c 0,3,4
 142 308 142 308 116 317 c 128,-1,5
 90 326 90 326 73.5 341 c 128,-1,6
 57 356 57 356 49.5 375.5 c 128,-1,7
 42 395 42 395 42 415 c 0,8,9
 42 453 42 453 62.5 476 c 128,-1,10
 83 499 83 499 109 513 c 1,11,12
 86 525 86 525 69.5 546.5 c 128,-1,13
 53 568 53 568 53 603 c 0,14,15
 53 625 53 625 62.5 644 c 128,-1,16
 72 663 72 663 88.5 677.5 c 128,-1,17
 105 692 105 692 128 700 c 128,-1,18
 151 708 151 708 178 708 c 0,19,20
 210 708 210 708 233.5 699.5 c 128,-1,21
 257 691 257 691 272.5 677.5 c 128,-1,22
 288 664 288 664 295.5 646 c 128,-1,23
 303 628 303 628 303 610 c 0,24,25
 303 575 303 575 286 552.5 c 128,-1,26
 269 530 269 530 245 514 c 1,27,28
 284 498 284 498 300 472.5 c 128,-1,29
 316 447 316 447 316 420 c 0,0,1
94 421 m 0,30,31
 94 410 94 410 97.5 398 c 128,-1,32
 101 386 101 386 110.5 376 c 128,-1,33
 120 366 120 366 136.5 359.5 c 128,-1,34
 153 353 153 353 178 353 c 0,35,36
 224 353 224 353 243 373 c 128,-1,37
 262 393 262 393 262 416 c 0,38,39
 262 445 262 445 235 464.5 c 128,-1,40
 208 484 208 484 147 497 c 1,41,42
 123 485 123 485 108.5 466.5 c 128,-1,43
 94 448 94 448 94 421 c 0,30,31
251 607 m 0,44,45
 251 629 251 629 233 646.5 c 128,-1,46
 215 664 215 664 178 664 c 0,47,48
 143 664 143 664 124 647 c 128,-1,49
 105 630 105 630 105 604 c 0,50,51
 105 574 105 574 127.5 557.5 c 128,-1,52
 150 541 150 541 203 528 c 1,53,54
 228 544 228 544 239.5 562.5 c 128,-1,55
 251 581 251 581 251 607 c 0,44,45
EndSplineSet
Substitution2: "Single Substitution lookup 26 subtable" eightinferior
Substitution2: "'sinf' Scientific Inferiors lookup 13 subtable" eight.sinf
Substitution2: "'subs' Subscript lookup 12 subtable" eight.sinf
Substitution2: "'sups' Superscript lookup 11 subtable" eight.sups
Substitution2: "'dnom' Denominators lookup 10 subtable" eightinferior
EndChar

StartChar: ninesuperior
Encoding: 8313 8313 373
Width: 359
Flags: W
LayerCount: 2
Fore
SplineSet
251 482 m 1,0,1
 230 472 230 472 210.5 469 c 128,-1,2
 191 466 191 466 177 466 c 0,3,4
 139 466 139 466 112.5 475.5 c 128,-1,5
 86 485 86 485 70 501 c 128,-1,6
 54 517 54 517 47 538 c 128,-1,7
 40 559 40 559 40 582 c 0,8,9
 40 604 40 604 48 626.5 c 128,-1,10
 56 649 56 649 72 667 c 128,-1,11
 88 685 88 685 113 696.5 c 128,-1,12
 138 708 138 708 173 708 c 0,13,14
 245 708 245 708 279 664 c 128,-1,15
 313 620 313 620 313 545 c 0,16,17
 313 435 313 435 248.5 375 c 128,-1,18
 184 315 184 315 61 314 c 1,19,-1
 59 361 l 1,20,21
 144 361 144 361 193.5 394 c 128,-1,22
 243 427 243 427 251 482 c 1,0,1
176 511 m 0,23,24
 198 511 198 511 220 514.5 c 128,-1,25
 242 518 242 518 257 525 c 1,26,27
 258 530 258 530 258 534.5 c 128,-1,28
 258 539 258 539 258 543 c 0,29,30
 258 595 258 595 240.5 628.5 c 128,-1,31
 223 662 223 662 174 662 c 0,32,33
 153 662 153 662 138.5 655.5 c 128,-1,34
 124 649 124 649 114.5 638 c 128,-1,35
 105 627 105 627 100.5 613 c 128,-1,36
 96 599 96 599 96 585 c 0,37,38
 96 545 96 545 115.5 528 c 128,-1,39
 135 511 135 511 176 511 c 0,23,24
EndSplineSet
Substitution2: "Single Substitution lookup 26 subtable" nineinferior
Substitution2: "'sinf' Scientific Inferiors lookup 13 subtable" nine.sinf
Substitution2: "'subs' Subscript lookup 12 subtable" nine.sinf
Substitution2: "'sups' Superscript lookup 11 subtable" nine.sups
Substitution2: "'dnom' Denominators lookup 10 subtable" nineinferior
EndChar

StartChar: afii61289
Encoding: 8467 8467 384
Width: 418
Flags: W
LayerCount: 2
Fore
SplineSet
110 257 m 1,0,-1
 110 548 l 2,1,2
 110 594 110 594 116.5 635.5 c 128,-1,3
 123 677 123 677 139 708.5 c 128,-1,4
 155 740 155 740 183 758 c 128,-1,5
 211 776 211 776 255 776 c 0,6,7
 298 776 298 776 323.5 759 c 128,-1,8
 349 742 349 742 363 716.5 c 128,-1,9
 377 691 377 691 381.5 661.5 c 128,-1,10
 386 632 386 632 386 607 c 0,11,12
 386 495 386 495 333 408 c 128,-1,13
 280 321 280 321 175 243 c 1,14,-1
 175 198 l 2,15,16
 175 172 175 172 178 145 c 128,-1,17
 181 118 181 118 192.5 95.5 c 128,-1,18
 204 73 204 73 225 59 c 128,-1,19
 246 45 246 45 282 45 c 0,20,21
 311 45 311 45 330 53 c 128,-1,22
 349 61 349 61 368 75 c 1,23,-1
 394 22 l 1,24,25
 376 8 376 8 347 -3.5 c 128,-1,26
 318 -15 318 -15 276 -15 c 0,27,28
 228 -15 228 -15 196 -1.5 c 128,-1,29
 164 12 164 12 145 36.5 c 128,-1,30
 126 61 126 61 118 96.5 c 128,-1,31
 110 132 110 132 110 176 c 2,32,-1
 110 197 l 1,33,-1
 30 139 l 1,34,-1
 3 179 l 1,35,-1
 110 257 l 1,0,-1
175 304 m 1,36,37
 211 335 211 335 238.5 366.5 c 128,-1,38
 266 398 266 398 285 433.5 c 128,-1,39
 304 469 304 469 313.5 510.5 c 128,-1,40
 323 552 323 552 323 602 c 0,41,42
 323 621 323 621 320.5 641 c 128,-1,43
 318 661 318 661 310.5 678 c 128,-1,44
 303 695 303 695 289.5 706 c 128,-1,45
 276 717 276 717 255 717 c 0,46,47
 240 717 240 717 225.5 709.5 c 128,-1,48
 211 702 211 702 199.5 683.5 c 128,-1,49
 188 665 188 665 181.5 632.5 c 128,-1,50
 175 600 175 600 175 550 c 2,51,-1
 175 304 l 1,36,37
EndSplineSet
EndChar

StartChar: estimated
Encoding: 8494 8494 385
Width: 932
Flags: W
LayerCount: 2
Fore
SplineSet
217 337 m 2,0,1
 212 337 212 337 212 333 c 2,2,-1
 212 136 l 2,3,4
 212 123 212 123 221 114 c 0,5,6
 269 63 269 63 331 35 c 128,-1,7
 393 7 393 7 466 7 c 0,8,9
 545 7 545 7 611 39.5 c 128,-1,10
 677 72 677 72 725 126 c 1,11,-1
 782 126 l 1,12,13
 756 94 756 94 721.5 68.5 c 128,-1,14
 687 43 687 43 646 25 c 128,-1,15
 605 7 605 7 559 -3 c 128,-1,16
 513 -13 513 -13 465 -13 c 0,17,18
 382 -13 382 -13 309 15.5 c 128,-1,19
 236 44 236 44 182 92.5 c 128,-1,20
 128 141 128 141 96.5 206.5 c 128,-1,21
 65 272 65 272 65 347 c 256,22,23
 65 422 65 422 96.5 487.5 c 128,-1,24
 128 553 128 553 182 602 c 128,-1,25
 236 651 236 651 309 679.5 c 128,-1,26
 382 708 382 708 465 708 c 256,27,28
 548 708 548 708 621.5 679.5 c 128,-1,29
 695 651 695 651 749.5 602 c 128,-1,30
 804 553 804 553 835.5 487.5 c 128,-1,31
 867 422 867 422 867 347 c 2,32,-1
 867 337 l 1,33,-1
 217 337 l 2,0,1
719 560 m 2,34,35
 719 573 719 573 710 584 c 0,36,37
 662 632 662 632 600 659 c 128,-1,38
 538 686 538 686 466 686 c 256,39,40
 394 686 394 686 332 657 c 128,-1,41
 270 628 270 628 222 580 c 0,42,43
 217 576 217 576 214.5 569.5 c 128,-1,44
 212 563 212 563 212 556 c 2,45,-1
 212 363 l 2,46,47
 212 356 212 356 217 356 c 2,48,-1
 715 356 l 2,49,50
 719 356 719 356 719 363 c 2,51,-1
 719 560 l 2,34,35
EndSplineSet
EndChar

StartChar: partialdiff
Encoding: 8706 8706 410
Width: 584
Flags: W
LayerCount: 2
Fore
SplineSet
304 432 m 0,0,1
 254 432 254 432 218.5 413.5 c 128,-1,2
 183 395 183 395 161 364.5 c 128,-1,3
 139 334 139 334 129 294 c 128,-1,4
 119 254 119 254 119 211 c 0,5,6
 119 125 119 125 158.5 86 c 128,-1,7
 198 47 198 47 263 47 c 0,8,9
 303 47 303 47 333 64 c 128,-1,10
 363 81 363 81 384.5 108.5 c 128,-1,11
 406 136 406 136 420 170.5 c 128,-1,12
 434 205 434 205 441.5 241 c 128,-1,13
 449 277 449 277 452.5 310.5 c 128,-1,14
 456 344 456 344 456 369 c 1,15,16
 421 407 421 407 381.5 419.5 c 128,-1,17
 342 432 342 432 304 432 c 0,0,1
222 716 m 0,18,19
 180 716 180 716 152.5 708.5 c 128,-1,20
 125 701 125 701 110 693 c 1,21,-1
 98 751 l 1,22,23
 118 762 118 762 157 769 c 128,-1,24
 196 776 196 776 235 776 c 0,25,26
 321 776 321 776 377 744.5 c 128,-1,27
 433 713 433 713 466 660 c 128,-1,28
 499 607 499 607 512 537.5 c 128,-1,29
 525 468 525 468 525 392 c 0,30,31
 525 322 525 322 512 250 c 128,-1,32
 499 178 499 178 468 119.5 c 128,-1,33
 437 61 437 61 385.5 24 c 128,-1,34
 334 -13 334 -13 258 -13 c 0,35,36
 164 -13 164 -13 107 43.5 c 128,-1,37
 50 100 50 100 50 206 c 0,38,39
 50 271 50 271 67 323.5 c 128,-1,40
 84 376 84 376 116 413.5 c 128,-1,41
 148 451 148 451 195.5 471.5 c 128,-1,42
 243 492 243 492 304 492 c 0,43,44
 333 492 333 492 358 486 c 128,-1,45
 383 480 383 480 402.5 471 c 128,-1,46
 422 462 422 462 435.5 452.5 c 128,-1,47
 449 443 449 443 455 436 c 1,48,49
 453 496 453 496 440.5 547 c 128,-1,50
 428 598 428 598 401 635.5 c 128,-1,51
 374 673 374 673 330 694.5 c 128,-1,52
 286 716 286 716 222 716 c 0,18,19
EndSplineSet
EndChar

StartChar: Delta
Encoding: 8710 8710 411
Width: 630
Flags: W
LayerCount: 2
Fore
SplineSet
525 59 m 1,0,1
 497 143 497 143 470.5 217 c 128,-1,2
 444 291 444 291 418 359 c 128,-1,3
 392 427 392 427 366 490 c 128,-1,4
 340 553 340 553 313 615 c 1,5,6
 286 553 286 553 259.5 490 c 128,-1,7
 233 427 233 427 207 359 c 128,-1,8
 181 291 181 291 154.5 217 c 128,-1,9
 128 143 128 143 100 59 c 1,10,-1
 525 59 l 1,0,1
10 0 m 1,11,12
 47 108 47 108 81 201.5 c 128,-1,13
 115 295 115 295 148 378.5 c 128,-1,14
 181 462 181 462 214.5 539 c 128,-1,15
 248 616 248 616 285 693 c 1,16,-1
 345 693 l 1,17,18
 382 616 382 616 415.5 539 c 128,-1,19
 449 462 449 462 482 378.5 c 128,-1,20
 515 295 515 295 549 201.5 c 128,-1,21
 583 108 583 108 620 0 c 1,22,-1
 10 0 l 1,11,12
EndSplineSet
EndChar

StartChar: product
Encoding: 8719 8719 412
Width: 682
Flags: W
LayerCount: 2
Fore
SplineSet
592 693 m 1,0,-1
 592 -109 l 1,1,-1
 524 -109 l 1,2,-1
 524 634 l 1,3,-1
 158 634 l 1,4,-1
 158 -109 l 1,5,-1
 90 -109 l 1,6,-1
 90 693 l 1,7,-1
 592 693 l 1,0,-1
EndSplineSet
EndChar

StartChar: summation
Encoding: 8721 8721 413
Width: 523
Flags: W
LayerCount: 2
Fore
SplineSet
114 634 m 1,0,1
 128 610 128 610 154 572 c 128,-1,2
 180 534 180 534 211.5 489 c 128,-1,3
 243 444 243 444 277.5 396.5 c 128,-1,4
 312 349 312 349 345 306 c 1,5,6
 313 264 313 264 279 219 c 128,-1,7
 245 174 245 174 213 128.5 c 128,-1,8
 181 83 181 83 152 38 c 128,-1,9
 123 -7 123 -7 100 -50 c 1,10,-1
 490 -50 l 1,11,-1
 490 -109 l 1,12,-1
 26 -109 l 1,13,-1
 26 -57 l 1,14,15
 44 -21 44 -21 71 23.5 c 128,-1,16
 98 68 98 68 130.5 116 c 128,-1,17
 163 164 163 164 198 212.5 c 128,-1,18
 233 261 233 261 266 306 c 1,19,20
 232 352 232 352 196.5 401.5 c 128,-1,21
 161 451 161 451 129 496.5 c 128,-1,22
 97 542 97 542 71 581 c 128,-1,23
 45 620 45 620 30 645 c 1,24,-1
 30 693 l 1,25,-1
 490 693 l 1,26,-1
 490 634 l 1,27,-1
 114 634 l 1,0,1
EndSplineSet
EndChar

StartChar: minus
Encoding: 8722 8722 415
Width: 564
Flags: W
LayerCount: 2
Fore
SplineSet
56 317 m 1,0,-1
 508 317 l 1,1,-1
 508 261 l 1,2,-1
 56 261 l 1,3,-1
 56 317 l 1,0,-1
EndSplineSet
EndChar

StartChar: radical
Encoding: 8730 8730 418
Width: 547
Flags: W
LayerCount: 2
Fore
SplineSet
11 343 m 1,0,-1
 148 387 l 1,1,2
 188 302 188 302 222.5 220 c 128,-1,3
 257 138 257 138 286 57 c 1,4,-1
 494 783 l 1,5,-1
 553 783 l 1,6,-1
 322 -15 l 1,7,-1
 255 -15 l 1,8,9
 222 74 222 74 184 164 c 128,-1,10
 146 254 146 254 111 327 c 1,11,-1
 25 298 l 1,12,-1
 11 343 l 1,0,-1
EndSplineSet
EndChar

StartChar: infinity
Encoding: 8734 8734 419
Width: 572
Flags: W
LayerCount: 2
Fore
SplineSet
263 294 m 1,0,1
 243 337 243 337 217.5 359.5 c 128,-1,2
 192 382 192 382 157 382 c 0,3,4
 128 382 128 382 104.5 361.5 c 128,-1,5
 81 341 81 341 81 294 c 256,6,7
 81 247 81 247 104.5 226.5 c 128,-1,8
 128 206 128 206 157 206 c 0,9,10
 192 206 192 206 217.5 228.5 c 128,-1,11
 243 251 243 251 263 294 c 1,0,1
286 244 m 1,12,13
 277 229 277 229 265 214 c 128,-1,14
 253 199 253 199 237 187 c 128,-1,15
 221 175 221 175 200.5 168 c 128,-1,16
 180 161 180 161 153 161 c 0,17,18
 136 161 136 161 115 167.5 c 128,-1,19
 94 174 94 174 75 189.5 c 128,-1,20
 56 205 56 205 43 230.5 c 128,-1,21
 30 256 30 256 30 294 c 256,22,23
 30 332 30 332 43 357.5 c 128,-1,24
 56 383 56 383 75 398.5 c 128,-1,25
 94 414 94 414 115 420.5 c 128,-1,26
 136 427 136 427 153 427 c 0,27,28
 180 427 180 427 200.5 420 c 128,-1,29
 221 413 221 413 237 401 c 128,-1,30
 253 389 253 389 265 374 c 128,-1,31
 277 359 277 359 286 344 c 1,32,33
 295 359 295 359 307 374 c 128,-1,34
 319 389 319 389 335 401 c 128,-1,35
 351 413 351 413 371.5 420 c 128,-1,36
 392 427 392 427 419 427 c 0,37,38
 435 427 435 427 456.5 420.5 c 128,-1,39
 478 414 478 414 497 398.5 c 128,-1,40
 516 383 516 383 529 357.5 c 128,-1,41
 542 332 542 332 542 294 c 256,42,43
 542 256 542 256 529 230.5 c 128,-1,44
 516 205 516 205 497 189.5 c 128,-1,45
 478 174 478 174 456.5 167.5 c 128,-1,46
 435 161 435 161 419 161 c 0,47,48
 392 161 392 161 371.5 168 c 128,-1,49
 351 175 351 175 335 187 c 128,-1,50
 319 199 319 199 307 214 c 128,-1,51
 295 229 295 229 286 244 c 1,12,13
309 294 m 1,52,53
 329 251 329 251 354.5 228.5 c 128,-1,54
 380 206 380 206 415 206 c 0,55,56
 444 206 444 206 467.5 226.5 c 128,-1,57
 491 247 491 247 491 294 c 256,58,59
 491 341 491 341 467.5 361.5 c 128,-1,60
 444 382 444 382 415 382 c 0,61,62
 380 382 380 382 354.5 359.5 c 128,-1,63
 329 337 329 337 309 294 c 1,52,53
EndSplineSet
EndChar

StartChar: integral
Encoding: 8747 8747 420
Width: 355
Flags: W
LayerCount: 2
Fore
SplineSet
145 579 m 2,0,1
 145 679 145 679 192.5 727.5 c 128,-1,2
 240 776 240 776 323 776 c 0,3,4
 337 776 337 776 345 774 c 1,5,-1
 345 720 l 1,6,-1
 340 720 l 2,7,8
 302 720 302 720 277 710 c 128,-1,9
 252 700 252 700 237 682 c 128,-1,10
 222 664 222 664 216 638 c 128,-1,11
 210 612 210 612 210 579 c 2,12,-1
 210 12 l 2,13,14
 210 -88 210 -88 162.5 -136.5 c 128,-1,15
 115 -185 115 -185 32 -185 c 0,16,17
 18 -185 18 -185 10 -183 c 1,18,-1
 10 -129 l 1,19,-1
 15 -129 l 2,20,21
 53 -129 53 -129 78 -119 c 128,-1,22
 103 -109 103 -109 118 -91 c 128,-1,23
 133 -73 133 -73 139 -47 c 128,-1,24
 145 -21 145 -21 145 12 c 2,25,-1
 145 579 l 2,0,1
EndSplineSet
EndChar

